<svg xmlns="http://www.w3.org/2000/svg" viewBox="0 0 376.54 79.51"><defs><style>.cls-1{isolation:isolate;}.cls-2,.cls-4{fill:#d8805e;}.cls-3{fill:#c1794c;mix-blend-mode:multiply;}.cls-4{mix-blend-mode:screen;}</style></defs><g class="cls-1"><g id="Layer_2" data-name="Layer 2"><g id="Layer_1-2" data-name="Layer 1"><path class="cls-2" d="M7.74,48.31c-1,2.76-1.83,5.53-2.63,8.35-1,3.41-1.84,6.81-2.56,10.28-.1.44-.17.89-.24,1.33H322.25c-8.59-3.68-17.38-6.74-26.76-8.12C287.78,59,280,58.8,272.27,57.71c-5.79-.82-11.78-2.06-16.72-5.41-7.24-4.91-9.91-12.83-11.34-21.17-.43-2.46-.79-4.94-1.17-7.41-.19-1.19-.37-2.38-.58-3.56a.09.09,0,0,0,0-.05,5.31,5.31,0,0,0-.2-.56,2,2,0,0,0-1.49-1.3l-.8.17a107.75,107.75,0,0,1-21.32.62c-7-.4-13.62,1.42-20.55,2.17-5.33.57-10-1.52-15-2.95-2.5-.71-5.62-1.72-8.21-.89-2.38.77-3.27,3.51-3.67,5.76-.82,4.67-.29,9.52-1.35,14.16a.36.36,0,0,1-.69,0c-.84-4-.94-8.11-1.44-12.16-.48-3.85-1.17-9.45-4.94-11.55-5.42-3-12,1.26-17.53,1.9a54.81,54.81,0,0,1-7.47.26,19.92,19.92,0,0,0-2.13.62c-1.72.64-3.22,1.63-5.05,2-3.17.6-6.44.12-9.6.79a25.05,25.05,0,0,0-4.2,1.27c-1.22.49-2.72,1.1-3.38,2.33-.29.52-.44,1.26-.94,1.63a2.6,2.6,0,0,1-1.9.37c-1.07-.26-1.85-1.14-2.92-1.41a6.15,6.15,0,0,0-3.13.06,25.07,25.07,0,0,1-3.2.72,20.71,20.71,0,0,1-3.15.05c-2-.08-4.83-.54-6.6.66-1.09.72-2.1,2.5-3.65,2s-2.67-1.92-4.32-2.29-4.34-.9-5.94.1a7.24,7.24,0,0,0-.78,2.63,72.64,72.64,0,0,0-.64,11.42.36.36,0,0,1-.71.09C73.73,34.17,71,30,68.8,25.57c-.26-.45-.52-.9-.77-1.35-1.15-2-2.3-4-3.6-5.91a32.61,32.61,0,0,0-2.05-2.78,8.48,8.48,0,0,0-2.31-2.2c-1.72-.94-3.67-.86-5.56-1.13a9.33,9.33,0,0,1-2.65-.64,13.92,13.92,0,0,1-2.32-1.5c-.61-.45-2-1.66-2.8-1.08a19.91,19.91,0,0,0-1.63,1.68,1.71,1.71,0,0,1-2.32.06,6.19,6.19,0,0,1-1.54-3.39A16.34,16.34,0,0,0,40,3a6.24,6.24,0,0,0-5.3-3A24.4,24.4,0,0,0,28.9,1.27c-2,.53-4,.63-6,1a8.61,8.61,0,0,0-4.71,2.47c-.28.53-.53,1.07-.76,1.61,0,.18-.08.35-.11.53-.27,1.41-.39,2.85-.61,4.26-.29,1.87-.63,3.73-1,5.58-2.06,10.5-3.89,21.16-7.78,31.16Z"/><path class="cls-3" d="M6,53.66c-.31,1-.61,2-.89,3-1,3.41-1.84,6.81-2.56,10.28-.1.44-.17.89-.24,1.33H322.25c-8.59-3.68-17.38-6.74-26.76-8.12C287.78,59,280,58.8,272.27,57.71c-5.79-.82-11.78-2.06-16.72-5.41-7.24-4.91-9.91-12.83-11.34-21.17-.43-2.46-.79-4.94-1.17-7.41-.19-1.19-.37-2.38-.58-3.56a.09.09,0,0,0,0-.05,5.31,5.31,0,0,0-.2-.56,2,2,0,0,0-1.49-1.3l-.8.17a107.75,107.75,0,0,1-21.32.62,52,52,0,0,0-10.68.71l-.69.57a18.87,18.87,0,0,0-3.33,3.23c-1.41,2.07-1.08,4.86-1.65,7.22a.17.17,0,0,1-.33,0c-.46-1.58-.75-3.19-1.16-4.77-.28,2.29-.61,4.59-.72,6.9a31.83,31.83,0,0,0,.86,7.65,27.21,27.21,0,0,1,.58,7.2c-.18,2.47-.57,4.91-1,7.35,0,.21-.32.13-.34-.05-.42-4-.13-8-.91-11.94-.69-3.51-2-6.93-2.19-10.52a37.89,37.89,0,0,0-.4-5.23,8.84,8.84,0,0,0-2.35-4.4A22.11,22.11,0,0,0,192,20.83c-3-.62-5.83-1.71-8.87-2.57-2.24-.64-5-1.51-7.4-1.08a3.14,3.14,0,0,1,2.13,1.45C179,20.49,179,23,179.1,25.09c.26,3.59,1.38,7,1.74,10.63A40.46,40.46,0,0,1,180,49.46a.17.17,0,0,1-.33,0,74.91,74.91,0,0,1-2.67-13c.31,4.54,1.07,9.08.53,13.61-.56,4.73-3.16,8.92-5,13.19-.08.18-.32.07-.33-.09-.52-6.34-.89-12.71-1.91-19-.45-2.75-1.22-5.47-1.49-8.24a12,12,0,0,1-.07-1.33c-.44-3.14-.59-6.32-1-9.47-.48-3.85-1.17-9.45-4.94-11.55-5.42-3-12,1.26-17.53,1.9a54.81,54.81,0,0,1-7.47.26,19.92,19.92,0,0,0-2.13.62c-1.72.64-3.22,1.63-5.05,2-3.17.6-6.44.12-9.6.79-.36.08-.73.16-1.1.26a7.12,7.12,0,0,0-1.55,1.55c.4.14.79.29,1.18.45a.18.18,0,0,1,.11.26,4.48,4.48,0,0,0,.08,3.55,28.32,28.32,0,0,1,.73,2.74c.06.3.13.61.2.91a15.36,15.36,0,0,1,.56,1.9c.67,3-.19,6.29-.42,9.32,0,.16-.24.26-.32.09-.47-.95-.91-1.92-1.44-2.84-.1,3.8,1.07,7.51.94,11.31a25,25,0,0,1-1,5.4,33.66,33.66,0,0,0-1.11,6.14c0,.19-.31.26-.34.05-1.19-8-1.65-16.19-4.16-23.9a17.08,17.08,0,0,1-1.07-5.14,20.37,20.37,0,0,1,.79-4.16,3,3,0,0,0-.73-2.56,2.67,2.67,0,0,1-1.74.27c-1.07-.26-1.85-1.14-2.92-1.41a6.15,6.15,0,0,0-3.13.06,25.07,25.07,0,0,1-3.2.72,20.71,20.71,0,0,1-3.15.05c-2-.08-4.83-.54-6.6.66-1.09.72-2.1,2.5-3.65,2s-2.57-1.79-4.1-2.23q.39.43.75.9c1.75,2.39,2.18,5.32,3.11,8.06.27-.67.67-1.28.89-2a.17.17,0,0,1,.33,0c.82,3,1.26,6.25,3.15,8.83a20.27,20.27,0,0,1,3.21,6.38,47.74,47.74,0,0,1,1.83,15,.17.17,0,0,1-.26.15c-2.28-1.69-5.26-2.5-7.22-4.63-1.76-1.9-2.31-4.47-3.29-6.81a40.77,40.77,0,0,1,.15,4.94.17.17,0,0,1-.32.09C82.94,49.84,78.64,44.83,75.82,39a.39.39,0,0,1-.28-.25C73.73,34.17,71,30,68.8,25.57c-.26-.45-.52-.9-.77-1.35-1.15-2-2.3-4-3.6-5.91a32.61,32.61,0,0,0-2.05-2.78,8.48,8.48,0,0,0-2.31-2.2c-1.72-.94-3.67-.86-5.56-1.13a9.33,9.33,0,0,1-2.65-.64,13.92,13.92,0,0,1-2.32-1.5c-.61-.45-2-1.66-2.8-1.08a19.91,19.91,0,0,0-1.63,1.68,1.71,1.71,0,0,1-2.32.06,6.19,6.19,0,0,1-1.54-3.39A16.34,16.34,0,0,0,40,3a6.24,6.24,0,0,0-5.3-3A24.4,24.4,0,0,0,28.9,1.27c-2,.53-4,.63-6,1a8.8,8.8,0,0,0-3.16,1.21,11.44,11.44,0,0,1,3.36.07,5.44,5.44,0,0,1,3.31,1.4,5.68,5.68,0,0,1,1.25,3c.3,1.74.47,3.53.62,5.29.23,2.78.34,5.58.49,8.37s.46,5.6.52,8.41c.1,5.14-.24,10.34.58,15.43,1.16-9.93.28-20,1.6-29.9,0-.2.28-.14.34,0,2.2,5.37,2,11.78,1.53,17.46-.27,3.18-.75,6.33-1.13,9.49a62.61,62.61,0,0,1-1.8,10.17c0,.13-.25.19-.31,0-1.57-3.73-1.89-7.81-3-11.67a31.9,31.9,0,0,1-.87,7.22.17.17,0,0,1-.32,0A10.82,10.82,0,0,0,24.48,46a6.4,6.4,0,0,1-3.19,2.5,14.85,14.85,0,0,1-4.41.53,15.5,15.5,0,0,0-5.16.68,11.21,11.21,0,0,0-3.08,1.8C7.75,52.2,6.88,52.94,6,53.66ZM184.19,22.91a.18.18,0,0,1,.32,0,49.37,49.37,0,0,1,3.11,8.33,66.12,66.12,0,0,1,2,8.9c.77,5.72-.88,11.39-1.24,17.07,0,.18-.31.25-.34,0-1.12-6.43-2.5-12.88-3.18-19.38a37.1,37.1,0,0,1-1-4.66A30.76,30.76,0,0,1,184.19,22.91Zm-50.68-4.58a.18.18,0,0,1,.32,0c1.57,2.88,1.75,6.28,2.74,9.36a30.27,30.27,0,0,1,1.22,5.65c.23,2,.18,4,.23,6,.06,2.25.4,4.46.65,6.69a21.24,21.24,0,0,1,.11,5.85c-.66,3.79-3,7-3.54,10.86,0,.19-.28.15-.34,0-1.17-3.48-.84-7.22-1.32-10.82S132,44.5,132.33,40.79c.1-1.22.29-2.43.47-3.64C132,30.81,131,24.48,133.51,18.33Zm-9.44,11.85c-.71-4.12.74-9.5,5.6-9,.09,0,.19.07.18.17-.28,2.28-1.93,4-2.56,6.18-.41,1.42-.93,2.78-1.2,4.24a32.72,32.72,0,0,0-.5,4.52,129,129,0,0,1-1.67,17.55c0,.18-.29.16-.34,0-1.63-5.94.35-12.13.35-18.15A48.69,48.69,0,0,1,124.07,30.18Zm-24-1.93a.17.17,0,0,1,.34-.05c4,9.54,5.23,20.27,4.71,30.55,0,.19-.31.26-.35,0-.6-4.11-2-8-2.93-12A48.11,48.11,0,0,1,101,40.9a21.17,21.17,0,0,1-.69-2.63C99.67,35,100.05,31.61,100.07,28.25Zm-5.3,7.41c-.19-.45-.38-.89-.6-1.33a7.74,7.74,0,0,1-1-4.18,23.09,23.09,0,0,1,1-4.24.18.18,0,0,1,.32,0A32.4,32.4,0,0,1,99.35,38c.62,4.34,0,8.7,0,13A.17.17,0,0,1,99,51,142.23,142.23,0,0,1,94.77,35.66ZM51,12.76c1,.75,1.66,1.8,2.57,2.62a3.07,3.07,0,0,0,2.1.73,7.15,7.15,0,0,1,1.51-.22,1.33,1.33,0,0,1,1.25.73,21,21,0,0,1,1.47,3.61A24.28,24.28,0,0,1,61.09,26c.45,4.64.95,9.26,1.32,13.91s.73,9.42,1.25,14.12c0,.2-.3.24-.34,0-1.23-5.75-2.85-11.42-3.94-17.21a34.5,34.5,0,0,1-.59-4,35.94,35.94,0,0,0-.39-4.41c-.41-2.09-1.59-3.9-2.43-5.83-.08,1.55-.33,3.09-.49,4.64a.18.18,0,0,1-.35,0c-.33-2.64-1.67-4.81-2.7-7.22-1-2.22-.46-4.81-1.63-7C50.73,12.86,50.89,12.65,51,12.76Zm-10.71.33a.18.18,0,0,1,.3-.13c2.17,2.29,3,5.6,4.72,8.23,1.84,2.86,2,5.94,2.08,9.25.11,3.93,1.38,8.08.38,12C46.89,46,44.75,49,43.26,52.32a.17.17,0,0,1-.31,0C40.33,41.42,40.31,30.16,40.32,19,40.22,17.06,40.24,15.08,40.33,13.09Zm-5-11.33a.17.17,0,0,1,.29-.08,11,11,0,0,1,2.65,5.7,58.76,58.76,0,0,1,.87,6.75A28.85,28.85,0,0,1,36,30.1a.17.17,0,0,1-.32,0c-1-4.09-.75-8.39-1-12.57a38.3,38.3,0,0,1,.08-5.57c0-.16-.06-.32-.08-.48A19.85,19.85,0,0,1,35.28,1.76Z"/><path class="cls-3" d="M15.58,52.22c-.67,3.22-1.94,6.3-2.68,9.5-.5,2.17-.91,4.36-1.31,6.55h3.87q0-.83,0-1.65C15.5,61.84,16.19,57,15.58,52.22Z"/><path class="cls-3" d="M32.88,61.86c0-1.53-.16-3.06-.27-4.59a73,73,0,0,1-.12-9.92,53.46,53.46,0,0,0,.07-7.8c-.13,1-.25,1.94-.37,2.91a62.61,62.61,0,0,1-1.8,10.17.19.19,0,0,1-.15.12,78.14,78.14,0,0,0,.05,15.52h2.93c-.1-.75-.21-1.5-.27-2.23C32.81,64.64,32.91,63.26,32.88,61.86Z"/><path class="cls-3" d="M48.18,38.46a14.06,14.06,0,0,1-.37,3.94.75.75,0,0,1-.05.16c0,.4,0,.8,0,1.21,0,3.11-.58,6.14-.81,9.24-.37,5.08-.16,10.17-.15,15.26H51C50.48,58.31,49.1,48.4,48.18,38.46Z"/><path class="cls-3" d="M65.66,60.34c-.61-2.61-1.39-5.17-2.14-7.74,0,.47.09.93.14,1.39a.11.11,0,0,1,0,.11c.28,2.31.51,4.63.69,6.93s.25,4.83.35,7.24h1.9A44,44,0,0,0,65.66,60.34Z"/><path class="cls-3" d="M86.18,60.31c-.81-3.59-1.44-7.11-3.46-10.24A90.34,90.34,0,0,1,75.82,39a.39.39,0,0,1-.28-.25C73.73,34.17,71,30,68.8,25.57c-.26-.45-.52-.9-.77-1.35-.59-1-1.17-2-1.78-3,.81,5.43,2.07,10.78,3.09,16.17a81.47,81.47,0,0,1,1.13,15.12c.19-3.36.33-6.73.34-10.1a.17.17,0,0,1,.32-.09,29.93,29.93,0,0,1,3.35,8.58,62.63,62.63,0,0,1,1.11,9.45q.28,4,.65,8H88.18C87.48,65.63,86.79,63,86.18,60.31Z"/><path class="cls-3" d="M30.51,15.46A26.36,26.36,0,0,0,29.12,10a10.72,10.72,0,0,0-1.69-3c.08.31.16.63.21,1,.3,1.74.47,3.53.62,5.29.23,2.78.34,5.58.49,8.37s.46,5.6.52,8.41c.1,5.14-.24,10.34.58,15.43.81-6.95.62-14,.89-21,0-.36-.07-.72-.1-1.08C30.43,20.72,30.92,18.09,30.51,15.46Z"/><path class="cls-3" d="M38.59,34.27c.06,4.29,1.66,8.21,3.19,12.13A154.81,154.81,0,0,1,40.32,22,50.34,50.34,0,0,0,38.59,34.27Z"/><path class="cls-3" d="M47.12,26.13a35.39,35.39,0,0,1,.31,4.31c.1,3.68,1.23,7.57.54,11.24-.08,2.41-.26,4.81-.27,7.22.38-3.82,1.11-7.61,1.2-11.45A38.38,38.38,0,0,0,48,30,16.48,16.48,0,0,0,47.12,26.13Z"/><path class="cls-3" d="M69.87,37.22A28.47,28.47,0,0,0,69,33c0,.27.06.53.07.79.29,4.44.26,8.91.68,13.34,0,.24.05.49.08.74a22.7,22.7,0,0,0,.32-2.3A42.17,42.17,0,0,0,69.87,37.22Z"/><path class="cls-3" d="M75.55,49.63A66.51,66.51,0,0,0,76,60.83a30,30,0,0,0,.3-7C76.12,52.45,75.82,51,75.55,49.63Z"/><path class="cls-3" d="M95.72,44.92A31,31,0,0,0,90,36a14,14,0,0,0,2,4.39,20.27,20.27,0,0,1,3.21,6.38,42.75,42.75,0,0,1,1.43,6.76,8.77,8.77,0,0,0,.36-1.36A12.4,12.4,0,0,0,95.72,44.92Z"/><path class="cls-3" d="M132.33,40.79c.1-1.22.29-2.43.47-3.64-.3-2.27-.62-4.54-.78-6.8a20.85,20.85,0,0,0-.2,4.68,20.89,20.89,0,0,1-.3,4.67,29.11,29.11,0,0,0-.66,4.73c0,3.68,1.63,7,3,10.32-.05-1-.12-1.93-.25-2.89C133.1,48.22,132,44.5,132.33,40.79Z"/><path class="cls-3" d="M139.42,37.1c-.68-5.32-.64-12.2-4.56-16.3.7,2.24,1,4.62,1.71,6.85a30.27,30.27,0,0,1,1.22,5.65c.23,2,.18,4,.23,6,.06,2.25.4,4.46.65,6.69a21.24,21.24,0,0,1,.11,5.85,17.08,17.08,0,0,1-.87,3.07l.22-.31a18,18,0,0,0,1.46-2.21,6.18,6.18,0,0,0,.64-2.9c0-2.23.14-4.45,0-6.67C140.07,40.87,139.66,39,139.42,37.1Z"/><path class="cls-3" d="M128.82,65.67c-.21-3.2-.48-6.38-.56-9.58a89.42,89.42,0,0,0-.56-9,35,35,0,0,0-.7,3.53c-.19,1.43-.21,2.87-.41,4.3-.44,3-1.62,6.1-1.34,9.18.12,1.38.21,2.76.29,4.14h3.22A17.34,17.34,0,0,0,128.82,65.67Z"/><path class="cls-3" d="M295.49,60.15C287.78,59,280,58.8,272.27,57.71c-5.79-.82-11.78-2.06-16.72-5.41-7.24-4.91-9.91-12.83-11.34-21.17-.43-2.46-.79-4.94-1.17-7.41-.19-1.19-.37-2.38-.58-3.56a.09.09,0,0,0,0-.05,5.31,5.31,0,0,0-.2-.56,2,2,0,0,0-1.49-1.3l-.8.17a107.75,107.75,0,0,1-21.32.62,52,52,0,0,0-10.68.71l-.69.57a18.87,18.87,0,0,0-3.33,3.23c-1.41,2.07-1.08,4.86-1.65,7.22a.17.17,0,0,1-.33,0c-.46-1.58-.75-3.19-1.16-4.77-.05.42-.1.84-.16,1.27a50,50,0,0,0,.67,10.67c.37,1.75.9,3.46,1.3,5.21a29.91,29.91,0,0,1,.73,5.24c.21,3.86.25,7.68.68,11.53.3,2.77.37,5.57.62,8.35h4.45c0-.31.1-.62.14-.93a58.1,58.1,0,0,0-.44-7.8c-.54-4.21-1.57-8.34-1.93-12.58s.22-8.6.6-12.93c.34-3.85.33-8,1.55-11.64a.18.18,0,0,1,.26-.11,5.14,5.14,0,0,1,2,2.2c.93,1.65,1.58,3.45,2.37,5.17A49,49,0,0,1,216.3,37,96.93,96.93,0,0,1,219,53.25c.28,2.82.61,5.63,1.11,8.42.5,2.1,1,4.2,1.46,6.32l.06.28H322.25C313.66,64.59,304.87,61.53,295.49,60.15ZM228.24,46.72c0,.18-.29.16-.33,0-1.06-3.57-2-7.18-2.79-10.82-.71-1.69-1.52-3.34-2.14-5.07a16.69,16.69,0,0,1-.74-7.78.18.18,0,0,1,.33-.09,29.67,29.67,0,0,1,4.89,11.13A33.81,33.81,0,0,1,228.24,46.72Zm7.76-.57a.17.17,0,0,1-.34,0,60.49,60.49,0,0,1-2.82-10.27c-1.2-3.1-2.55-6.15-2.76-9.52a.18.18,0,0,1,.3-.13,26.06,26.06,0,0,1,2.78,4.27,33.85,33.85,0,0,1,2.36,4.7C236.77,38.75,236.47,42.51,236,46.15Z"/><path class="cls-3" d="M222.13,66.38A66.59,66.59,0,0,0,221.07,59c-.73-4.93-1.2-9.87-2.33-14.73a118.17,118.17,0,0,0-2.92-11.47,23.3,23.3,0,0,0-4.15-7.58c.74,1.45,1.32,3,2,4.47A49,49,0,0,1,216.3,37,96.93,96.93,0,0,1,219,53.25c.28,2.82.61,5.63,1.11,8.42.5,2.1,1,4.2,1.46,6.32l.06.28h.59C222.16,67.64,222.15,67,222.13,66.38Z"/><path class="cls-3" d="M223.75,24.73a30.69,30.69,0,0,1,3.71,9.36,38,38,0,0,1,1,9.84,15.92,15.92,0,0,0,.51-4.28,23.18,23.18,0,0,0-.54-5.45A25.07,25.07,0,0,0,223.75,24.73Z"/><path class="cls-3" d="M232.21,28.88c.33.54.65,1.1.95,1.66a33.85,33.85,0,0,1,2.36,4.7,16.64,16.64,0,0,1,.89,5.53c.12-.23.25-.46.36-.68a8.43,8.43,0,0,0,1-2.66,5,5,0,0,0-.58-2.87C236.05,32.24,233.92,30.74,232.21,28.88Z"/><path class="cls-3" d="M228,21.28c.14,1,.18,2.17.4,3.23a9.5,9.5,0,0,1,.73-4.11.18.18,0,0,1,.24-.06c1.46.94,3.42.67,5.07.86a2.67,2.67,0,0,1,2.52,1.66,20.22,20.22,0,0,1,.58,4.53c.2,2.13,1.24,4.05,2.09,6,1.9,4.31,2.44,8.89,3.21,13.5a49.16,49.16,0,0,0,1.76,7.18c.77,2.38,1.56,4.75,2.14,7.18.05.19-.22.32-.31.14-1.45-2.77-2.32-5.78-3.49-8.67-.51-1.25-1-2.51-1.43-3.78a14.26,14.26,0,0,0-1.62-3.47c0,4.48,1,8.85,1.42,13.28a40.66,40.66,0,0,1,.11,6.89c-.06.88-.12,1.77-.17,2.65h81c-8.59-3.68-17.38-6.74-26.76-8.12C287.78,59,280,58.8,272.27,57.71c-5.79-.82-11.78-2.06-16.72-5.41-7.24-4.91-9.91-12.83-11.34-21.17-.43-2.46-.79-4.94-1.17-7.41-.19-1.19-.37-2.38-.58-3.56a.09.09,0,0,0,0-.05,5.31,5.31,0,0,0-.2-.56,2,2,0,0,0-1.49-1.3l-.8.17a93.31,93.31,0,0,1-12.38.86A11.8,11.8,0,0,1,228,21.28Z"/><path class="cls-3" d="M229.11,61.63c-1-3.26-2.36-6.41-3.29-9.71C224.15,46,223.48,39.73,221.14,34c-.17,6.88,2.15,13.46,3.41,20.15.87,4.66,1.32,9.46,2.31,14.12h4C230.31,66.05,229.8,63.81,229.11,61.63Z"/><path class="cls-3" d="M200.42,55.22a.2.2,0,0,1-.21-.17c-.17-1.66-.23-3.34-.28-5-.7-3.42-2.26-6.59-3-10a44,44,0,0,0-1.79-5.14,8.18,8.18,0,0,1-.52-2.17c-.06-.88.06-1.75.05-2.63a11.41,11.41,0,0,0-1.38-5.67,7.09,7.09,0,0,0-3.16-3.35c-1.49-.69-3.24-1.08-4.55-2-.83-.26-1.66-.52-2.52-.76-2.24-.64-5-1.51-7.4-1.08a3.14,3.14,0,0,1,2.13,1.45.08.08,0,0,1,0,0,.18.18,0,0,1,.25.1,59.28,59.28,0,0,1,3.45,14.89,39.12,39.12,0,0,0,.54,4.16,16.78,16.78,0,0,1,.55,3.23c0,2.23-1.16,4.34-2,6.33a.14.14,0,0,1-.16.09c-.13.66-.27,1.33-.43,2a.17.17,0,0,1-.33,0,74.91,74.91,0,0,1-2.67-13c.08,1.13.18,2.27.29,3.4a63.51,63.51,0,0,1,1.36,7.61c.11,1.59,0,3.19.12,4.78s.4,3,.47,4.46c.16,2.93-.34,5.8-.35,8.73,0,.94,0,1.89,0,2.84h21.54C200.47,63.92,200.36,59.57,200.42,55.22ZM191,45.88a17.61,17.61,0,0,1-1.16,4.28,23.39,23.39,0,0,0-1.1,3.21c-.17,1.27-.31,2.53-.39,3.8,0,.18-.31.25-.34,0-1.12-6.43-2.5-12.88-3.18-19.38a37.1,37.1,0,0,1-1-4.66,30.44,30.44,0,0,1,.24-9.76l-.13-.15a.18.18,0,0,1,.2-.28.15.15,0,0,0,0-.07.18.18,0,0,1,.32,0c.17.35.34.71.5,1.06a28.31,28.31,0,0,1,6,13.26A30.85,30.85,0,0,1,191,45.88Z"/><path class="cls-3" d="M173.81,60.43c-.46.94-.9,1.88-1.31,2.82-.08.18-.32.07-.33-.09-.52-6.34-.89-12.71-1.91-19-.45-2.75-1.22-5.47-1.49-8.24a12,12,0,0,1-.07-1.33c-.44-3.14-.59-6.32-1-9.47-.48-3.85-1.17-9.45-4.94-11.55-5.42-3-12,1.26-17.53,1.9-1.63.18-3.26.26-4.89.28l.56.45a5.13,5.13,0,0,1,1.86,3c.37,2.22-.52,4.87.63,6.9A21.55,21.55,0,0,1,145,28.92a12.51,12.51,0,0,1,.68,3.2c.23,2.75.38,5.51.65,8.25.13,1.27.35,2.54.39,3.81a4.07,4.07,0,0,1-.54,2.54c-.57.84-1.48,1.64-1.38,2.76a13.6,13.6,0,0,0,1,3.1c.77,2.33-.09,4.9-.1,7.29,0,2.69-.47,5.6-.37,8.4H172C172.63,65.66,173,63,173.81,60.43Zm-20.07-5.49A38.36,38.36,0,0,0,152,60.69a32.49,32.49,0,0,1-1.35,5.69.17.17,0,0,1-.33,0c-1.14-4,.26-8.13-.46-12.17a5.84,5.84,0,0,0-1.19-2.69,5.23,5.23,0,0,1-1.08-1.87c-.35-1.71,1.12-2.56,1.51-4.06,1-3.75-.35-7.67-.85-11.4a46.75,46.75,0,0,1-.4-5.54c-.07-.39-.14-.77-.2-1.16-.34-2-.83-4-1-6.07-.2-2.88,2.7-4.26,4.88-5.31a.18.18,0,0,1,.26.2c-1.08,4.44.45,8.69.54,13.14s.32,8.83.77,13.22c.22,2.25.78,4.45,1.08,6.69A11.49,11.49,0,0,1,153.74,54.94Zm13.68,7.68c-2.24-6.18-2.92-12.76-4.25-19.17-.65-3.15-1.48-6.27-2.3-9.37a78.1,78.1,0,0,0-2.76-8.76,54.3,54.3,0,0,0-1.42,13.57c.08,2.48,0,4.93-.13,7.41-.11,2,.27,4.13,0,6.16,0,.55,0,1.1,0,1.65a.18.18,0,0,1-.35,0c0-.34,0-.69,0-1a.19.19,0,0,1-.09-.19c0-.15,0-.29.07-.43-.29-6.46-1.94-12.81-1.78-19.29.08-3.11.44-6.29.83-9.38a28.68,28.68,0,0,1,2.06-8.32.16.16,0,0,1,.2-.08,4.32,4.32,0,0,1,2.26,2.12,28.76,28.76,0,0,1,2.14,4.26c.52,1.24,1,2.49,1.45,3.76a24,24,0,0,1,1.15,6.23c.44,5.11,1.58,10.1,2,15.22s.6,10.41,1.23,15.59C167.78,62.78,167.48,62.79,167.42,62.62Z"/><path class="cls-3" d="M126.09,31.79a32.72,32.72,0,0,0-.5,4.52c-.21,4.08-.41,8.16-.88,12.21.11-.43.21-.87.3-1.3.49-2.15,1.24-4.24,1.58-6.42.51-3.18.48-6.38,1.12-9.54.53-2.62,1.19-5.22,1.54-7.86a34.13,34.13,0,0,0-2,4.15C126.88,29,126.36,30.33,126.09,31.79Z"/><path class="cls-3" d="M117.56,61.12c-.07-.48-.11-1-.15-1.44-1.13-7.81-1.62-15.83-4.08-23.37a17.08,17.08,0,0,1-1.07-5.14,17.21,17.21,0,0,1,.73-3.9l-.21.49a13.15,13.15,0,0,0-1.45,4.72c-.08,3.51,1.22,6.84,1.74,10.27s0,7-.39,10.45.73,7,.15,10.48c0,.19-.28.14-.33,0-1.67-4.15-1.91-8.7-2.51-13.09-.48-3.52-1.3-7-1.53-10.52-.19,2-.32,4.08-.41,6.12a34.23,34.23,0,0,0,0,4.75c.12,1.45.32,2.89.41,4.34.19,3-.13,6,0,9,0,1.32.12,2.64.2,4h9.68C118.22,65.87,117.88,63.51,117.56,61.12Z"/><path class="cls-3" d="M79.91,57.72c.14,1.25.33,2.49.44,3.73A44.91,44.91,0,0,0,80.89,54c0-1.46-.25-2.91-.41-4.37a18.25,18.25,0,0,1-.29,2.19A18.31,18.31,0,0,0,79.91,57.72Z"/><path class="cls-3" d="M104.73,41a23.84,23.84,0,0,0-3.33-10.17,67.08,67.08,0,0,1,3.51,16.4A41.84,41.84,0,0,0,104.73,41Z"/><path class="cls-3" d="M63.21,32.93A32.38,32.38,0,0,0,60,20.41,24.91,24.91,0,0,1,61.09,26c.45,4.64.95,9.26,1.32,13.91.16,1.93.31,3.86.47,5.79C63,41.41,63.43,37.18,63.21,32.93Z"/><path class="cls-4" d="M14,31.06c1-3.61,1.72-7.28,2.53-10.93A60.88,60.88,0,0,0,18.21,8.5a.18.18,0,0,1,.3-.12c.4.32.77.68,1.14,1-.24-1.07-1-2-1.19-3.08a2.53,2.53,0,0,1,.65-2A8.46,8.46,0,0,1,20.53,3a8.58,8.58,0,0,0-2.36,1.71c-.28.53-.53,1.07-.76,1.61,0,.18-.08.35-.11.53-.27,1.41-.39,2.85-.61,4.26-.29,1.87-.63,3.73-1,5.58C14.1,24.84,12.64,33.09,10.25,41A50.14,50.14,0,0,0,14,31.06Z"/><path class="cls-4" d="M35.4,9a121.16,121.16,0,0,0,.47,14.51A29.18,29.18,0,0,0,36.49,15C36.29,13,35.76,11,35.4,9Z"/><path class="cls-4" d="M77.07,40.93c.61-1.84.19-3.88.2-5.8,0-2.17.63-4.29.8-6.45.1-1.17,0-2.7.8-3.64a5,5,0,0,1,1.39-1,4.79,4.79,0,0,0-2.59.58,7.24,7.24,0,0,0-.78,2.63,62.47,62.47,0,0,0-.63,9.38C76.46,38.06,76.75,39.5,77.07,40.93Z"/><path class="cls-4" d="M86.42,41.57c.08,1.16,0,2.29,0,3.44A71.24,71.24,0,0,0,87,53.52c.06-6.68.3-13.35,1-20a11.93,11.93,0,0,0-1.66,4.61A30.16,30.16,0,0,0,86.42,41.57Z"/><path class="cls-4" d="M114.5,31.51a2.76,2.76,0,0,1,.85-2.37c.65-.63,1-1.25.35-2.05a2.77,2.77,0,0,1-.54-1.4,8.78,8.78,0,0,1,.18-2.79A4.18,4.18,0,0,0,114,25.63a14.35,14.35,0,0,1,.47,2.86c-.11,1.2-.89,2.24-.95,3.44-.07,1.51.72,3,1.24,4.33a22.09,22.09,0,0,1,1,4.56c.23,1.51.5,3,.73,4.53.37,2.36.7,4.71.93,7.08.34-5.77-.89-11.58-2.29-17.14A16.81,16.81,0,0,1,114.5,31.51Z"/><path class="cls-4" d="M133,23.56a9.65,9.65,0,0,0-.06,1.2Z"/><path class="cls-4" d="M172.32,54.77c3.6-8.07.75-16.74-.43-25.29-.09,2.53,0,5.08-.12,7.6-.05,1.5-.12,3,0,4.48s.27,3,.4,4.57C172.39,49,172,51.92,172.32,54.77Z"/><path class="cls-4" d="M149.9,48.92a6.09,6.09,0,0,1,.74-1.86c.72-1.6.16-3.42-.31-5.11a12.1,12.1,0,0,1-.31,3.7,4.56,4.56,0,0,1-.57,1.3c-.3.47-.89,1.2-.7,1.81a21.23,21.23,0,0,0,1.36,2.36,13.28,13.28,0,0,1,.8,4.32,9.48,9.48,0,0,0-.16-4.45C150.47,50.3,149.83,49.72,149.9,48.92Z"/><path class="cls-4" d="M223,28.59c.66,2.92,2.13,5.65,3.28,8.44A13.82,13.82,0,0,0,225,31.52,32.78,32.78,0,0,0,223,28.59Z"/><path class="cls-4" d="M231.94,30.81c.77,2.46,1.57,4.91,2.37,7.35a16.77,16.77,0,0,0-.95-4.77A17,17,0,0,0,231.94,30.81Z"/><path class="cls-4" d="M208.77,42.41a57.22,57.22,0,0,1,.37-5.84c.37-3.64.81-7.36.13-11a42.39,42.39,0,0,0-.41,4.92,44.42,44.42,0,0,1-.67,5.38,28.93,28.93,0,0,0-.63,6c.07,1.91.29,3.81.46,5.71.63,6.89,1.53,13.75,1.73,20.66h2.4c-1-6.67-1.85-13.37-2.78-20.06A43.35,43.35,0,0,1,208.77,42.41Z"/><path class="cls-4" d="M133.89,30.34c-.23-.73-.49-1.44-.73-2.16,0,.54,0,1.09.08,1.63.12,1.62.39,3.23.43,4.86s0,3.14,0,4.71a63.76,63.76,0,0,0,.58,9.77c.22,1.66.47,3.31.53,5,.05,1.34.08,2.68.24,4,1.45-6.27.15-12.62-.15-19C134.7,36.18,134.81,33.25,133.89,30.34Z"/><path class="cls-4" d="M41.34,26.55c-.05-.28-.09-.56-.13-.83.09,2.33.29,4.65.5,7,.25,2.7.38,5.4.68,8.09.26,2.28.55,4.56.78,6.84a40.23,40.23,0,0,0-.45-13.75C42.29,31.42,41.73,29,41.34,26.55Z"/><path class="cls-2" d="M171.68,66c-4.28-.25-8.55-.51-12.83-.65-9.22-.3-18.45-.23-27.66-.78-6.41-.38-12.82-.9-19.21-1.6s-12.58-1.7-18.91-2.14-12.49-.49-18.74-.72a181.58,181.58,0,0,1-18.78-1.78c-2.1-.3-4.18-.63-6.26-1a103.41,103.41,0,0,0-15,1.12,93.48,93.48,0,0,0-15.78,3.61c-2.51.84-5,1.78-7.47,2.67-2.26.81-4.55,1.49-6.84,2.18-1.27.38-2.69.85-4.14,1.2l0,.21C14.41,71,49.83,71.4,57,70.82c12.87-1,36.46-.61,49.33-1.32s25.8-1.15,38.72-1.56c10.19-.32,20.4-.76,30.55-1.78C174.26,66.14,173,66.08,171.68,66Z"/><path class="cls-3" d="M47.1,67.51a28.75,28.75,0,0,0-4.55-2.34c-1.57-.65-3.19-1.18-4.77-1.8a19.48,19.48,0,0,0-4.4-1.59c-2.87-.4-5.8.75-8.57,1.71,3.18-.5,6.38-1,9.34.67a35,35,0,0,1,8,6.86c3.59,0,6.81,0,9.41,0L51,70.57A44.51,44.51,0,0,0,47.1,67.51Z"/><path class="cls-3" d="M171.68,66c-4.28-.25-8.55-.51-12.83-.65-9.22-.3-18.45-.23-27.66-.78-6.41-.38-12.82-.9-19.21-1.6-2.59-.28-5.17-.62-7.76-.95,2.4.86,4.68,2,7.09,2.82,5.72,2,12,.2,17.83,1.2.18,0,.15.29,0,.34a42.68,42.68,0,0,1-7.84,1.48c-2.81.32-5.6.67-8.39,1.11l-1.73.27c11.27-.57,22.54-.94,33.83-1.3,10.19-.32,20.4-.76,30.55-1.78C174.26,66.14,173,66.08,171.68,66Z"/><path class="cls-4" d="M18.48,62.08c-2.51.84-5,1.78-7.47,2.67-2.26.81-4.55,1.49-6.84,2.18-1.27.38-2.69.85-4.14,1.2l0,.21c1.27.23,2.7.44,4.26.64a153.76,153.76,0,0,1,17.16-7,94.73,94.73,0,0,1,9.78-2.92c.75-.18,1.51-.33,2.27-.48A91.34,91.34,0,0,0,18.48,62.08Z"/><path class="cls-4" d="M58.37,59.05a51.19,51.19,0,0,0,9.91,1.52,85.12,85.12,0,0,0,9.45,0c.8-.06,1.6-.14,2.4-.23-1.94-.06-3.87-.11-5.8-.18a181.58,181.58,0,0,1-18.78-1.78l-1.22-.18C55.68,58.43,57,58.73,58.37,59.05Z"/><path class="cls-3" d="M171.68,66c-4.28-.25-8.55-.51-12.83-.65-9.22-.3-18.45-.23-27.66-.78-6.41-.38-12.82-.9-19.21-1.6s-12.58-1.7-18.91-2.14c-1.78-.13-3.56-.22-5.34-.3L90,61.1c3.18.82,6.55,1.31,9.57,2.66.17.08.07.33-.09.33-.41,0-.85.21-1.28.25A15,15,0,0,0,96,64.5a47.15,47.15,0,0,1-7.19,1c-5.12.4-10.32.83-15.45.2a59.75,59.75,0,0,1-14.44-4.08c-4.1-1.59-8.14-4.07-12.62-4.24a104.64,104.64,0,0,0-12,1.07,98.21,98.21,0,0,0-13.51,2.9c1.05-.23,2.11-.45,3.17-.65,4.17-.79,8.43-1.82,12.69-2,8.37-.35,15.58,4.57,22.9,8a.18.18,0,0,1,0,.33,101,101,0,0,1-12.94,1.93c-4.38.42-8.76.85-13.15,1.18-3,.23-5.9.31-8.85.41,13.9.63,28.18.65,32.43.3,12.87-1,36.46-.61,49.33-1.32s25.8-1.15,38.72-1.56c10.19-.32,20.4-.76,30.55-1.78C174.26,66.14,173,66.08,171.68,66Z"/><path class="cls-2" d="M376.34,62.53c-.25-2.86-.54-5.72-.85-8.58-.61-5.71-1.28-11.41-1.62-17.14-.17-2.85-.21-5.71-.5-8.55s-.71-5.64-1-8.47a35.74,35.74,0,0,1-.28-4.27,20.89,20.89,0,0,0,0-3,3.21,3.21,0,0,0-.61-1.67,21.8,21.8,0,0,1-4,.09c-1.92-.14-4.64-.68-5.44,1.64a29.55,29.55,0,0,0-.82,5.22.18.18,0,0,1-.34,0c-.29-1.58.09-3.24,0-4.83,0-.63-.05-1.82-.75-2.12a5,5,0,0,0-2.81.16,18.26,18.26,0,0,1-2.54.45,29.18,29.18,0,0,0-3.24,0c-.37.06-.77.17-1.16.21l-.21.12c-.75.5-.43,2-.64,2.78-.58,2.19-.45,4.43-.73,6.67-.22,1.71-.52,3.42-.76,5.13-.62,14.1-1.23,31.46-1.26,31.22-1.12-8-1.89-16.12-2.62-24.2a56.14,56.14,0,0,1-1.56-7.59,28.4,28.4,0,0,1-.1-3.45,6.54,6.54,0,0,0-.52-3.5,2.51,2.51,0,0,0-.94-1c-1.69-.77-4.18.83-5.65,1.48-.72.31-1.44.58-2.17.84l-.06,0a22.13,22.13,0,0,1-2.64.89c-.64.21-1.92.57-2.11,1.38a5.93,5.93,0,0,0,.1,1.78,19.74,19.74,0,0,1,.06,2.31,16.32,16.32,0,0,1-.73,4.91c-.05.15-.3.19-.33,0a33.25,33.25,0,0,1-.63-5.34c0-1,.44-2.87-.23-3.76a1.5,1.5,0,0,0-.47-.4,101.54,101.54,0,0,1-15.59,1c-.48,0-1,.07-1.45.09a12.1,12.1,0,0,0-3.12.29c-2.25.68-1.47,4.34-1.36,6.11a78.05,78.05,0,0,1-.32,9.3c0,.19-.31.25-.34.05-.45-2.86-.82-5.72-1-8.6-.07-1.09-.2-2.17-.28-3.25a6.64,6.64,0,0,0-.53-3c-.66-.94-2-.88-3-.8a23,23,0,0,1-3.32,0,32.65,32.65,0,0,1-3.26-.42c-4.43-.08-8.87-.14-13.31-.06A2.35,2.35,0,0,0,278,23.83v0c-.71,6.78-1.43,18.66-1.53,18.34-.89-3-1.41-6.06-2.19-9.06-.29-.78-.61-1.54-.93-2.31s-.74-1.63-1.71-1.67c-.26,0-.53,0-.79,0-5.23,1.53-10.84,1-16.26,1.08-1.35,0-2.7.05-4,.2-.18,0-.69,0-1.14.07a1.78,1.78,0,0,0-.52.81c-.09.3-.18.61-.25.92,0,1.74.05,3.47,0,5.2,0,3.18-.18,6.92-2.36,9.51-5.3,6.31-15.59,1.91-22.57,2.66a69.87,69.87,0,0,0-15.77,4.1c-5.22,1.86-10.47,3.54-15.81,5.07-10.21,2.93-76,14.12-93.86,16.71,10.92,0,119.16-4.53,130.9-4.6,11.19-.07,22.32-1.66,33.52-1.21,5.4.22,26.67,5,32.05,6.19a98.62,98.62,0,0,0,32.86,1.76c5.42-.63,10.85-1.5,16.32-1.7a81,81,0,0,1,16.15,1.46c5.45.89,10.92,1.74,16.45,2.11h0V65.18C376.47,64.3,376.41,63.42,376.34,62.53Z"/><path class="cls-4" d="M150.22,67.22a91.37,91.37,0,0,0,17-2c1.38-.32,2.75-.7,4.15-.9a23.17,23.17,0,0,1,3.63-.16,38.93,38.93,0,0,0,8.33-.84c5.25-1.11,10.33-2.94,15.62-3.89,4.92-.87,9.89.23,14.85.2-3.92-1.31-8.09-1.51-12.1-2.5-.18,0-.15-.28,0-.34a15.59,15.59,0,0,0,3.52-2.08c-4.32,1.48-8.66,2.85-13.06,4.11C187,60.26,168,63.79,148,67.28,148.75,67.27,149.49,67.25,150.22,67.22Z"/><path class="cls-4" d="M251.75,47c-.17-2.19-.09-4.39-.32-6.58-.11-1-.24-1.94-.4-2.9,0,1,0,1.91-.07,2.87,0,1.24-.08,2.49-.14,3.73a25.91,25.91,0,0,0-.18,3.29c.16,2.12,1.45,3.77,2.55,5.49a34.17,34.17,0,0,1,2.13,4.39,20.56,20.56,0,0,0-1.72-5.72C252.84,50,251.88,48.67,251.75,47Z"/><path class="cls-4" d="M278.12,49.43c-.21-2.37-.34-4.75-.34-7.14s.2-4.66.17-7a33,33,0,0,1,.25-5.62c.19-1.26.52-2.86,1.66-3.6-.5-.89-1.9-2-.9-3a1.86,1.86,0,0,1,.26-.23,2.2,2.2,0,0,0-1.25,1v0c-.5,4.77-1,12-1.29,15.85C277,43,277.45,46.22,278.12,49.43Z"/><path class="cls-4" d="M304.36,45.82c.53-2.49,1-5,1.27-7.54.18-1.46.34-2.92.47-4.38a17.72,17.72,0,0,0,.1-3.85c-.22-1.75-1.12-4.25,0-5.85a4.14,4.14,0,0,1,1-1,5.8,5.8,0,0,0-1,.2c-2.25.68-1.47,4.34-1.36,6.11a78.05,78.05,0,0,1-.32,9.3.2.2,0,0,1-.17.17C304.27,41.28,304.27,43.55,304.36,45.82Z"/><path class="cls-4" d="M314.47,32.47c.07,1.23.38,2.41.56,3.62a32,32,0,0,1,.22,3.52c.07,2.72.3,5.41.12,8.13-.12,1.95-.37,3.9-.67,5.83a20.35,20.35,0,0,0,1.9-5.8,40.86,40.86,0,0,0-.18-7.74c-.24-2.64-.69-5.28-.87-7.93a9.34,9.34,0,0,1,.78-4.2C315.34,29.3,314.37,30.85,314.47,32.47Z"/><path class="cls-4" d="M347.88,35.7a53.15,53.15,0,0,0,.8-5.62c.11-1.76.13-3.52.34-5.27s.72-3.34,1-5a22.71,22.71,0,0,0,.46-4.8c0-1-.1-2.15.64-2.88a4.5,4.5,0,0,1,.83-.64l-.34,0c-.37.06-.77.17-1.16.21l-.21.12c-.75.5-.43,2-.64,2.78-.58,2.19-.45,4.43-.73,6.67-.22,1.71-.52,3.42-.76,5.13-.15,3.3-.29,6.77-.43,10.16C347.78,36.29,347.83,36,347.88,35.7Z"/><path class="cls-4" d="M350.68,42.07c0,1.09,0,2.19.05,3.28a95.86,95.86,0,0,0,1.74-11.16c.15-2.58-.1-5.17-.06-7.76,0-1.89.33-3.77.39-5.66-.48,4.7-1,9.39-1.33,14.09C351.29,37.27,350.69,39.65,350.68,42.07Z"/><path class="cls-4" d="M366.94,30.25c1.08-4.16,0-8.34-.49-12.55C366.32,21.88,366.8,26.06,366.94,30.25Z"/><path class="cls-4" d="M361.75,14.32c0,4.38-.33,8.75-.24,13.12.07-1.32.17-2.63.31-3.94s.29-2.5.5-3.74a18.86,18.86,0,0,0,.53-4c-.08-1.57-.46-3.5,1-4.59a4,4,0,0,1,.48-.32,2.49,2.49,0,0,0-2.18,1.72,9.31,9.31,0,0,0-.39,1.64S361.75,14.3,361.75,14.32Z"/><path class="cls-4" d="M288.28,36.71c.08,3.06-.36,6.1-.45,9.15a45.91,45.91,0,0,0,.3-18C288.1,30.78,288.21,33.74,288.28,36.71Z"/><path class="cls-4" d="M256.55,38.86c0,4,.55,8,.83,12a25.89,25.89,0,0,0,.37-7.23A49.31,49.31,0,0,0,256.55,38.86Z"/><path class="cls-3" d="M376.34,62.53c-.25-2.86-.54-5.72-.85-8.58-.61-5.71-1.28-11.41-1.62-17.14-.17-2.85-.21-5.71-.5-8.55s-.71-5.64-1-8.47a35.74,35.74,0,0,1-.28-4.27,20.89,20.89,0,0,0,0-3,3.21,3.21,0,0,0-.61-1.67,21.8,21.8,0,0,1-4,.09,13.11,13.11,0,0,0-3.43-.05,9,9,0,0,0,1.6.34,18,18,0,0,0,3.44.14.19.19,0,0,1,.17.13,9,9,0,0,1,.32,2.06c.12-.35.25-.7.4-1,.07-.16.34-.08.33.09a35.74,35.74,0,0,0,0,6.12c.17,1.78.74,3.59.56,5.39-.34,3.48-2.29,6.48-3.25,9.78a.18.18,0,0,1-.29.08c-1.48-1.7-1.33-4.26-1.39-6.37-.09-2.78-.49-5.54-.67-8.32-.26,1.52-.47,3.05-.74,4.57-.35,2.06-.84,4.08-1.1,6.16-.24,1.85-.46,3.7-.61,5.56a26.73,26.73,0,0,1-.77,5.11.17.17,0,0,1-.34,0c-.16-7.79-1.23-15.62-.88-23.41-.13-1.4.16-2.86.09-4.26,0-.63-.05-1.82-.75-2.12a5,5,0,0,0-2.81.16,18.26,18.26,0,0,1-2.54.45c-.95,0-1.85-.1-2.79,0A3.54,3.54,0,0,1,353.49,13c.49,1.13.23,2.45.27,3.65,0,.82.06,1.64.12,2.45a49.6,49.6,0,0,1,.94-6.3.17.17,0,0,1,.33,0,57.31,57.31,0,0,1,.62,9.62c0,3.23,0,6.49-.19,9.71a57.47,57.47,0,0,1-1.45,9.13c-.67,3.29-.78,6.6-1.15,9.93,0,.18-.3.26-.34,0-.89-4.49-.66-9.09-1.14-13.63-.76,2.61-.27,5.47-1.08,8.09a83.78,83.78,0,0,1-3,9.19.17.17,0,0,1-.31,0c0-.08,0-.15-.05-.23-.07,2-.12,3.12-.13,3-1.12-8-1.89-16.12-2.62-24.2a56.14,56.14,0,0,1-1.56-7.59,28.4,28.4,0,0,1-.1-3.45,6.54,6.54,0,0,0-.52-3.5,2.51,2.51,0,0,0-.94-1c-1.69-.77-4.18.83-5.65,1.48-.72.31-1.44.58-2.17.84l-.06,0-.08,0a3.62,3.62,0,0,0-.68,3.18.17.17,0,0,1,0,.17c-.75.62-1.91,1.19-2.15,2.21a11.78,11.78,0,0,0,.14,4.73,84.49,84.49,0,0,1,1.39,9,24,24,0,0,1-1.14,8.82c-.86,2.91-1.93,5.75-2.61,8.72a.17.17,0,0,1-.34-.05c0-2.81-.18-5.64,0-8.44s1-5.34,1-8.06a72.83,72.83,0,0,0-.86-9c-.07.12-.29.14-.32,0a33.25,33.25,0,0,1-.63-5.34c0-1,.44-2.87-.23-3.76a1.5,1.5,0,0,0-.47-.4,95.86,95.86,0,0,1-14.77,1,4.17,4.17,0,0,0-.36.81,2.8,2.8,0,0,1-.9,1.51c-.7.6-1.92.82-2.18,1.82a11.12,11.12,0,0,0-.07,3.31c.09,2.57-.42,5.14-.2,7.73.19,2.34.75,4.72-.27,6.95s-2.87,4.4-3.37,6.88a27.93,27.93,0,0,0-.32,3.87c-.06,1.2-.2,2.41-.35,3.6a57.33,57.33,0,0,1-3.38,14,.18.18,0,0,1-.35,0c-.11-3.51.54-6.86.87-10.34.32-3.3.12-6.63,1-9.88s2.27-6.13,2.47-9.4c.15-2.42-.31-4.84-.3-7.25-.29-2.11-.53-4.23-.67-6.35-.07-1.09-.2-2.17-.28-3.25a6.64,6.64,0,0,0-.53-3c-.66-.94-2-.88-3-.8a23,23,0,0,1-3.32,0c-1.09-.09-2.17-.22-3.24-.41-4.45-.09-8.89-.15-13.34-.07l-.17.06.62.06a10.33,10.33,0,0,1,3,.44c.93.37,1,1.59.95,2.46-.06,1.09-.4,2.27-.42,3.39.26-1.08.46-2.19.77-3.26a.17.17,0,0,1,.34.05c.12,3.13-.28,6.24-.07,9.38.19,2.82.27,5.5-.84,8.16-.51,1.24-1.14,2.45-1.55,3.74a18.11,18.11,0,0,0-.67,4.58,46,46,0,0,1-1,8.92.18.18,0,0,1-.34,0c-.86-2.14-.88-4.46-1.31-6.7-.52-2.77-1.19-5.52-1.79-8.27a34.2,34.2,0,0,1-.63-3.8c-.85-2.9-1.36-5.9-2.13-8.83-.29-.78-.61-1.54-.93-2.31s-.74-1.63-1.71-1.67c-.26,0-.53,0-.79,0-5.23,1.53-10.84,1-16.26,1.08-1.35,0-2.7.05-4,.2-.18,0-.69,0-1.14.07a1.78,1.78,0,0,0-.52.81c-.09.3-.18.61-.25.92,0,1.74.05,3.47,0,5.2,0,3.18-.18,6.92-2.36,9.51-5.3,6.31-15.59,1.91-22.57,2.66a52.24,52.24,0,0,0-9.2,1.93c6.33-.43,13-1.38,18.65,1.94.16.09.07.31-.09.33l-2.84.31a5.9,5.9,0,0,1,2.41.59,3.89,3.89,0,0,1,1.92,2.34c1.25,3.32,4.87,5.07,7,7.74.1.13,0,.35-.17.29-3.34-1-6.95.09-10.3.43A36.72,36.72,0,0,1,219.67,65a15.3,15.3,0,0,1-4.93-1.88c-1.47-.9-2.84-1.7-4.62-1.5a31.34,31.34,0,0,0-5,1.21,39.32,39.32,0,0,1-4.93.94c-5.37.77-10.62,2.16-15.94,3.22a51.08,51.08,0,0,1-7.77,1.14,58,58,0,0,1-8.23-.31c-2.71-.26-5.42-.59-8.14-.71s-5.52,0-8.27.09c-1.3,0-2.59.09-3.89.11-19.91,3.48-40.73,6.91-49.64,8.2,10.92,0,119.16-4.53,130.9-4.6,11.19-.07,22.32-1.66,33.52-1.21,5.4.22,26.67,5,32.05,6.19a98.62,98.62,0,0,0,32.86,1.76c5.42-.63,10.85-1.5,16.32-1.7a81,81,0,0,1,16.15,1.46c5.45.89,10.92,1.74,16.45,2.11h0V65.18C376.47,64.3,376.41,63.42,376.34,62.53Zm-113.66-13c0,.16-.25.27-.33.09a38.89,38.89,0,0,1-1.64-6.12c0,2,.06,4,.23,6s.59,4.15-.08,6.1-1.77,4-2.46,6.12c-.37,1.14-.36,2.72-1.47,3.45a.17.17,0,0,1-.25-.1,26.37,26.37,0,0,0-3-8.27c-1.25-2.1-3-3.88-3.93-6.15-1.15.86-2.2,1.87-3.68,2a.18.18,0,0,1-.15-.27,21.32,21.32,0,0,1,1.67-2.32c-1.39.74-2.78,1.62-4.39,1.53-.13,0-.25-.2-.12-.3,2.57-2,5.4-3.89,6-7.39s.12-7.16.48-10.73c-.06-.64-.11-1.29-.12-1.94a.18.18,0,0,1,.18-.18c1.54,0,3,.49,4.54.59a22,22,0,0,0,3.79-.43,2.5,2.5,0,0,1,2.33.64,2.72,2.72,0,0,1,.44,1.39A12.73,12.73,0,0,1,261,32a.17.17,0,0,1,.33,0,21.35,21.35,0,0,1,.5,3.91c.19,1.59.64,3.13.87,4.71C263.17,43.6,262.8,46.59,262.68,49.58Zm3.39,2A18.8,18.8,0,0,1,263.32,56c-.1.13-.29,0-.29-.13,0-2.49.82-4.9,1-7.38a51.34,51.34,0,0,0,0-5.82,28,28,0,0,1-.19-7.25c0-.16.23-.25.32-.09,1.85,3.29,2,7.46,2.42,11.14A10.37,10.37,0,0,1,266.07,51.62Zm24.65-7.1c-.61,1.53-1.34,3-2,4.53s-.8,3.1-1.28,4.64a.17.17,0,0,1-.34,0c0-2.54.05-5.08.13-7.62s0-5.07,0-7.62a36.39,36.39,0,0,1,.28-4c-.4-3.74-.86-7.76,1.06-11a.18.18,0,0,1,.24-.06c1.56.92,2,3.11,2.23,4.77.33,2.23.43,4.51.63,6.75A20.44,20.44,0,0,1,290.72,44.52Zm4.08,1.14a.17.17,0,0,1-.34,0c0-5-.85-10-.12-15a25,25,0,0,1,0-4.82.18.18,0,0,1,.32,0c1.4,2.87,1.27,6.16,1.68,9.26C296.77,38.68,295.75,42.19,294.8,45.66Zm3.76-9.16a21.36,21.36,0,0,1-.21-5.53,42.92,42.92,0,0,1-.05-5.15c0-.17.3-.16.34,0,.75,3.45,2.5,7.47.24,10.72C298.8,36.65,298.59,36.66,298.56,36.5Zm19.58-7.95a9.9,9.9,0,0,0-1.3,5.43,132.14,132.14,0,0,0,.55,14.62,9.24,9.24,0,0,1-.7,5c-.8,1.73-1.8,3.34-2.48,5.14a46.05,46.05,0,0,0-2.36,12.15c0,.22-.36.23-.35,0,.2-3.76-.46-7.64.34-11.35.41-1.9,1.62-3.53,1.94-5.44.35-2.15.29-4.27.45-6.43.34-4.38.75-8.72-.07-13.07-.3-1.62-.53-3.29.33-4.79a7.77,7.77,0,0,1,.71-1c.18-.54.36-1.08.55-1.61a5.11,5.11,0,0,1,1-2,3.65,3.65,0,0,1,2.32-.51c1.05,0,2.11.07,3.16,0a.17.17,0,0,1,.09.32A10.06,10.06,0,0,0,318.14,28.55Zm6.48.22c-.75,2.36-2,4.72-2.07,7.24-.07,2.78,1.16,5.39,1.49,8.13a18.34,18.34,0,0,1-.74,6.94A18.35,18.35,0,0,1,321,56.9a.17.17,0,0,1-.32-.13,62.65,62.65,0,0,0,.76-8.2,67.74,67.74,0,0,0,.14-7.4c-.14-2-.78-3.89-.79-5.87a6.4,6.4,0,0,1,0-.88,3.51,3.51,0,0,1,0-1.82c.53-1.74,2.19-2.86,3.48-4A.18.18,0,0,1,324.62,28.77Z"/><path class="cls-3" d="M122.57,72.65c4.32-1.11,8.69-2,13-3.17l.4-.12c-15.81,2.71-30.57,5.11-37.7,6.14,2.12,0,7.93-.18,16-.45C117,74.28,119.78,73.37,122.57,72.65Z"/><path class="cls-3" d="M255.56,68.8c-1.87-1.66-3.67-3.61-5.93-4.72a19.25,19.25,0,0,1-3-1.51,3.41,3.41,0,0,1-1.46-1.7c-.31-1.35,1-2.37,1.55-3.53a11.21,11.21,0,0,0-2.8,2.27c-1.11,1.38,0,3.22,0,4.79a.18.18,0,0,1-.27.15c-2.41-1.75-5-3.37-6.89-5.75a31.39,31.39,0,0,0-2.45-3.36,3.79,3.79,0,0,0-2.35-1,3.06,3.06,0,0,1,.67.28,3.89,3.89,0,0,1,1.92,2.34c1.25,3.32,4.87,5.07,7,7.74.1.13,0,.35-.17.29-3.34-1-6.95.09-10.3.43A36.72,36.72,0,0,1,219.67,65a15.3,15.3,0,0,1-4.93-1.88l-.41-.25,0,0a8.44,8.44,0,0,0,2,2.12,10,10,0,0,0,2.94,1.11,51.21,51.21,0,0,0,6.54.67c2.29.2,4.58.43,6.87.52a47.13,47.13,0,0,1,6.83.28,25.55,25.55,0,0,1,5.82,2l1.17.53c3.34-.21,6.68-.39,10-.44Z"/><path class="cls-3" d="M249.94,51.18a4.76,4.76,0,0,0,.51,2.91c.71,1.16,1.61,2.24,2.4,3.35s1.94,2.41,2.75,3.71a23.34,23.34,0,0,0-1.95-4.27C252.48,54.93,250.93,53.23,249.94,51.18Z"/><path class="cls-3" d="M267,63.25A56.07,56.07,0,0,0,265.68,70c3.69.53,9.28,1.63,14.66,2.75,0-2.68,0-5.37-.07-8a51,51,0,0,0-.71-5.78c-.36-1.61-.46-3.28-.77-4.9-.52-2.77-1.19-5.52-1.79-8.27a34.2,34.2,0,0,1-.63-3.8c-.85-2.9-1.36-5.9-2.13-8.83-.29-.78-.61-1.54-.93-2.31s-.74-1.63-1.71-1.67c-.26,0-.53,0-.79,0a26.71,26.71,0,0,1-4.33.84l0,0a2.14,2.14,0,0,1,.43,1.6,12.4,12.4,0,0,0,.4,3.14c.52,2,.78,4,1.26,6-.11-3.15-.31-6.3-.47-9.45,0-.17.26-.26.33-.09,1.05,2.48,3.13,4.54,3.74,7.21a22.54,22.54,0,0,1,.22,4.72c0,1.72.06,3.44.15,5.15s.25,3.63.41,5.44a34.69,34.69,0,0,1,.25,5c-.2,3.25-1.89,6.17-2.05,9.43,0,.19-.3.25-.34,0-.88-4.84.88-11.29-2.79-15.21.05,1.73.52,3.47.32,5.19A38.26,38.26,0,0,1,267,63.25Z"/><path class="cls-3" d="M286.17,50.2c.2,2.13.5,4.26.52,6.4l.12-1c.08-.7.22-1.4.34-2.11,0-2.48.05-5,.13-7.44s0-5.07,0-7.62a36.39,36.39,0,0,1,.28-4,26.45,26.45,0,0,1-.06-8c-1.51,3.14-1,6.93-1,10.38C286.51,41.26,285.77,45.7,286.17,50.2Z"/><path class="cls-3" d="M329,67.17c-.28-3.34-.86-6.63-1.05-10a.18.18,0,0,1-.17-.17c0-2.81-.18-5.64,0-8.44s1-5.34,1-8.06a72.83,72.83,0,0,0-.86-9c-.07.12-.29.14-.32,0a33.25,33.25,0,0,1-.63-5.34c0-1,.44-2.87-.23-3.76a1.5,1.5,0,0,0-.47-.4c-.75.12-1.51.22-2.26.32.63.82.56,2.14,1,3.18a.18.18,0,0,1-.08.2c-2.15,1.62-4.05,3.79-3.93,6.47a8,8,0,0,1,2.45-2.87,20.71,20.71,0,0,1,1.36-1.59.18.18,0,0,1,.29.08c.47,1.41,1.43,2.71,1.62,4.21.23,1.79-.47,3.51-.81,5.23-.4,2,.07,3.91.33,5.89.22,1.65.5,3.31.61,5a12.62,12.62,0,0,1-.37,4.7c-.5,1.55-.87,3.08-1.23,4.67a15.23,15.23,0,0,1-.69,2.3,15.85,15.85,0,0,1-1.13,1.9,31.53,31.53,0,0,0-2,5.1.17.17,0,0,1-.33,0c-.68-1.62-.7-3.4-1.18-5.07a3.42,3.42,0,0,0-1.25-2.09,3.75,3.75,0,0,0-2.48-.44,4.2,4.2,0,0,1,2,3.18c.16,1.89-.17,3.82-.11,5.72a76.43,76.43,0,0,1,.18,8c-.05.7-.06,1.41-.07,2.12q4.69-.07,9.44-.61l1.81-.22C329.37,74,329.26,70.58,329,67.17Z"/><path class="cls-3" d="M332.64,24.55C335.52,31.4,337,38.66,338.08,46c.53,3.52,1.27,7,2,10.48a48.42,48.42,0,0,0,2.23,8.3c-1.32-8.12-2.21-16.32-4-24.35-.88-3.83-1.26-7.91-2.68-11.59a18.15,18.15,0,0,0-2.13-4.3,1.21,1.21,0,0,0-1.34-.55,5.88,5.88,0,0,0-1.49,1.31,8,8,0,0,0,1.82-.81A.18.18,0,0,1,332.64,24.55Z"/><path class="cls-3" d="M336.87,18.92a7.32,7.32,0,0,1,1.18,2.9c.21.71.4,1.43.6,2.15,0-1.3.05-2.61-.07-3.92a.18.18,0,0,1,.33-.09c1.18,2.38,2.41,4.7,1.85,7.44a5.48,5.48,0,0,0-.17,2.54,13.25,13.25,0,0,0,.79,2,16.24,16.24,0,0,1,1.23,3.72c.66,3.15,1.05,6.37,1.89,9.49.38,1.44.9,2.85,1.37,4.28-.61-5.33-1.12-10.67-1.6-16a56.14,56.14,0,0,1-1.56-7.59,28.4,28.4,0,0,1-.1-3.45,6.54,6.54,0,0,0-.52-3.5,2.51,2.51,0,0,0-.94-1c-1.27-.58-3,.18-4.4.87Z"/><path class="cls-3" d="M365.67,67.39c-.09-5.42-.78-10.8-1.13-16.21s-.49-10.92-.54-16.36A101,101,0,0,1,364.74,23c0,.29-.09.57-.14.86-.35,2.06-.84,4.08-1.1,6.16-.24,1.85-.46,3.7-.61,5.56a27.39,27.39,0,0,1-.75,5c.16,1,.31,2,.39,3a98.09,98.09,0,0,1-.3,14c-.3,4.73-.47,9.48-.41,14.22,0,1.92.34,3.89.46,5.86l3.44.53Q365.75,72.83,365.67,67.39Z"/><path class="cls-3" d="M376.34,62.53c-.25-2.86-.54-5.72-.85-8.58-.61-5.71-1.28-11.41-1.62-17.14-.17-2.85-.21-5.71-.5-8.55s-.71-5.64-1-8.47a35.74,35.74,0,0,1-.28-4.27,20.89,20.89,0,0,0,0-3,3.59,3.59,0,0,0-.39-1.33c-.07.79-.18,1.57-.27,2.36a16.11,16.11,0,0,0,.21,4.49c.87,5.28.76,10.76.84,16.1a29,29,0,0,1-.91,7.42,33.66,33.66,0,0,0-1,8.06c0,5.59,0,11.18,0,16.77,0,2.86,0,5.72.11,8.57.06,1.33.13,2.66.17,4q2.78.33,5.56.53h0V65.18C376.47,64.3,376.41,63.42,376.34,62.53Z"/><path class="cls-3" d="M353.93,42.36a13.75,13.75,0,0,0,.86-2.78c.23-1.36.36-2.73.69-4.06a36.8,36.8,0,0,0,.76-3.76,32.32,32.32,0,0,0-.5-12.32c0,1,0,2,0,3,0,3.23,0,6.49-.19,9.71a57.47,57.47,0,0,1-1.45,9.13C354.06,41.61,354,42,353.93,42.36Z"/><path class="cls-3" d="M307.72,77.89c1.15.11,2.3.18,3.45.24.19-3.36.1-6.75.35-10.11a35.59,35.59,0,0,1,.32-8.45c.41-1.9,1.62-3.53,1.94-5.44.35-2.15.29-4.27.45-6.43.34-4.38.75-8.72-.07-13.07-.3-1.62-.53-3.29.33-4.79a7.77,7.77,0,0,1,.71-1,1.42,1.42,0,0,0,.07-.22,12.12,12.12,0,0,0-1.6,2.9c-.78,2.11-.26,4.44-.1,6.62a41.73,41.73,0,0,1,.05,7.33c-.2,2.09-.1,4.36-1.06,6.28-.51,1-1.2,1.91-1.75,2.89a8.43,8.43,0,0,0-1.07,3.66c-.17,2.27.06,4.53-.16,6.79C309.15,69.38,308,73.58,307.72,77.89Z"/><path class="cls-3" d="M304.82,53.4A17.22,17.22,0,0,1,306,48,13.25,13.25,0,0,0,304.17,52a27.93,27.93,0,0,0-.32,3.87c-.06,1.2-.2,2.41-.35,3.6a59.23,59.23,0,0,1-3.1,13.28c-.3,1.34-.6,2.68-.88,4,1,.16,1.91.32,2.87.45q.33-2.79.69-5.6c.2-1.44.37-2.89.69-4.31s.75-3,1-4.44C305.34,59.71,304.76,56.61,304.82,53.4Z"/><path class="cls-3" d="M300.83,26.47c.37,2.27.92,4.52,1.26,6.8.3,2.13.48,4.26.74,6.4a20.09,20.09,0,0,1,0,6.61c-.42,2-1,4.08-1.42,6.12a24.12,24.12,0,0,0-.75,3.45,9.23,9.23,0,0,0,.27,2.82,26.63,26.63,0,0,1,.7-5.39c.81-3.13,2.27-6.13,2.47-9.4.15-2.42-.31-4.84-.3-7.25-.29-2.11-.53-4.23-.67-6.35-.07-1.09-.2-2.17-.28-3.25a6.64,6.64,0,0,0-.53-3,2.68,2.68,0,0,0-2.48-.83C300.66,24,300.64,25.28,300.83,26.47Z"/><path class="cls-3" d="M300,33.37s0,.07,0,.11c0,2.12-.32,4.23-.41,6.35-.14,3.48,0,7,.13,10.45.39-3.23.95-6.44,1.12-9.7a26.11,26.11,0,0,0-.83-8.06A8,8,0,0,1,300,33.37Z"/><path class="cls-3" d="M291.59,67.24a37.85,37.85,0,0,1-1.34,7.64l3.12.7c.48-3.26.9-6.52,1.19-9.79.2-2.28.38-4.56.41-6.85a60.11,60.11,0,0,1,.25-6.71c.28-2.2,1-4.32,1.22-6.52s.7-4.48.83-6.74a26.6,26.6,0,0,0-1.66-10c.38,2,.42,4.07.68,6.08.45,3.39-.41,6.67-1.29,9.91,0,.7,0,1.39-.06,2.09a55.34,55.34,0,0,1-1.72,9.89A79.83,79.83,0,0,0,291.59,67.24Z"/><path class="cls-3" d="M175.21,71.13a.2.2,0,0,1,.06-.25,20,20,0,0,1,6.12-1.74,50.18,50.18,0,0,0,7.22-2c2.25-.78,4.47-1.59,6.65-2.52-3.69.74-7.36,1.64-11,2.37a51.08,51.08,0,0,1-7.77,1.14,58,58,0,0,1-8.23-.31c-2.71-.26-5.42-.59-8.14-.71-2.28-.11-4.56,0-6.84,0a49.83,49.83,0,0,1,6.79.75c3.75.78,7,2.76,10.57,4.15.76.3,1.54.56,2.32.82l3.16-.12A12.75,12.75,0,0,0,175.21,71.13Z"/><path class="cls-3" d="M358.64,19a51,51,0,0,0,.35,5.92c.25,1.88.52,3.76.65,5.65.43,6,.9,12,1.35,18,.13-2.75.46-5.49.78-8.23-.18-7.7-1.21-15.42-.87-23.12-.13-1.4.16-2.86.09-4.26,0-.63-.05-1.82-.75-2.12a5,5,0,0,0-2.81.16l-.8.17A20.92,20.92,0,0,1,358.64,19Z"/></g></g></g></svg>