<svg xmlns="http://www.w3.org/2000/svg" xmlns:xlink="http://www.w3.org/1999/xlink" viewBox="0 0 376.54 114.89"><defs><style>.cls-1{fill:none;}.cls-2{isolation:isolate;}.cls-3{clip-path:url(#clip-path);}.cls-4{fill:#dbb39d;}.cls-24,.cls-5{fill:#c1794c;}.cls-13,.cls-23,.cls-5{opacity:0.5;}.cls-11,.cls-13,.cls-14,.cls-15,.cls-23,.cls-25,.cls-26,.cls-27,.cls-5,.cls-8{mix-blend-mode:multiply;}.cls-6{fill:#c29676;}.cls-7{fill:#7e6759;}.cls-16,.cls-19,.cls-20,.cls-21,.cls-22,.cls-7{mix-blend-mode:screen;}.cls-8{fill:#91624c;}.cls-26,.cls-8{opacity:0.6;}.cls-11,.cls-9{fill:#645b5d;}.cls-10{fill:#fff;}.cls-12,.cls-13,.cls-14,.cls-15,.cls-16,.cls-26,.cls-27{fill:#cd9a7b;}.cls-14{opacity:0.8;}.cls-15,.cls-25{opacity:0.7;}.cls-17{fill:#7b7c37;}.cls-18{fill:#8f903f;}.cls-19{fill:#6fb03e;}.cls-19,.cls-27{opacity:0.4;}.cls-20{fill:#baf17c;}.cls-21{fill:#da8a7d;}.cls-22{fill:#c58b70;}</style><clipPath id="clip-path" transform="translate(0 -57.34)"><rect class="cls-1" width="376.54" height="172.23"/></clipPath></defs><g class="cls-2"><g id="Layer_2" data-name="Layer 2"><g id="Layer_1-2" data-name="Layer 1"><g class="cls-3"><rect class="cls-4" y="39.12" width="376.54" height="75.77"/><path class="cls-5" d="M0,96.46v75.77H376.54V96.46Zm217.21,8.76c3.58-1.1,7.49-.83,11.18-1.41s7.43-1.57,11.18-2.2a59.2,59.2,0,0,1,11.2-1,50.18,50.18,0,0,1,9,.49l1.32.14c3.73.4,8.21.56,11.12,3.14a.16.16,0,0,1-.11.28,45.73,45.73,0,0,0-13,.73c-3.93.71-7.79,1.76-11.77,2.18-8.16.86-16.35,0-24.52-.29a.16.16,0,0,1,0-.32,22.65,22.65,0,0,1,3.45-.78c-3-.26-6-.18-9-.65C217,105.51,217.06,105.27,217.21,105.22ZM6.9,103.36c3.82-.59,7.66-1,11.52-1.3,5.52-.43,11.07-.78,16.61-1s11.29,0,16.93.24l10.37.49a131.66,131.66,0,0,1,30.85,1.42.17.17,0,0,1,0,.32,81.16,81.16,0,0,1-11,1.11c-4,.22-7.91.59-11.85,1.17l-4.89.75c4.93-.18,9.91-.54,14.79.13,3.13.43,6.23,1.1,9.35,1.6,2.63.43,5.42.34,7.93,1.31.13,0,.18.29,0,.31a42,42,0,0,1-5.26.35c-1.93.06-3.83.24-5.74.4-4,.34-7.93.66-11.9.85-7.89.38-15.8.81-23.71.59-.2,0-.21-.25,0-.32a61.66,61.66,0,0,0,10.24-4.53c-2.45.38-4.89.77-7.34,1.14-5.29.79-10.64,1.59-16,1.91a45.91,45.91,0,0,1-15.53-1.53c-5.18-1.5-10.28-3.24-15.33-5.08C6.76,103.63,6.72,103.39,6.9,103.36Zm37.91,46.4a68.83,68.83,0,0,1-19.23,2.31c-3.52,0-7-.29-10.54-.6-1.64-.15-3.28-.36-4.93-.4a21.37,21.37,0,0,1-4.23-.33.16.16,0,0,1,0-.3,29.14,29.14,0,0,1,8.63-3.26,20.25,20.25,0,0,1-12.21-8.31.16.16,0,0,1,.1-.24A17.44,17.44,0,0,1,6,138.3c-1.07-.5-2.23-.78-3.34-1.21-.14-.05-.19-.29,0-.31,8.5-1.27,15.6,3.42,23.27,6.07l2,.48a45.93,45.93,0,0,1,4.81,1.43,17.91,17.91,0,0,0,5.08,1.29.17.17,0,1,1,0,.33,74.48,74.48,0,0,0-8.77.75c1.09.12,2.18.25,3.26.4,4.17.6,8.21,1.74,12.44,1.91A.16.16,0,0,1,44.81,149.76Zm12-13.76c-3.71-.29-8,.16-11.41-1.54a.17.17,0,0,1,0-.29,15.8,15.8,0,0,1,4.4-1.39l3.11-.66c-4.23-.15-8.46-.37-12.68-.46-5.55-.11-11.12-.18-16.67-.12-2.69,0-5.37.08-8.06.1-2.2,0-4.45.44-6.63,0a.16.16,0,0,1-.07-.27c2.53-2.16,5.18-4.4,8.33-5.69a24.18,24.18,0,0,1,4.68-1.28,45.43,45.43,0,0,1-16.39-5.22.17.17,0,0,1,0-.3c5.95-2,12.13-1.56,18.16-.13,3.43.82,6.8,1.86,10.2,2.8,3.57.55,7.13,1.17,10.69,1.81a.16.16,0,0,1,0,.31A72.31,72.31,0,0,1,31.41,125a41.31,41.31,0,0,0,8.11,1.53c9.43.87,18.8-.65,27.93-2.79,5.28-1.24,10.53-2.64,15.89-3.5,4.34-.69,9.17-1.43,13.48-.27a.17.17,0,0,1,0,.32l-6,1.65a11.13,11.13,0,0,1,4.94.11.16.16,0,0,1,0,.3c-1.79.84-3.19,2.28-4.93,3.23a42,42,0,0,1-5.73,2.56c-.91.33-1.83.65-2.76,1,2.88.09,5.77.45,8.63.73a33.73,33.73,0,0,1,5.49.86,6.43,6.43,0,0,1,3.57,1.92.16.16,0,0,1-.1.24A20.69,20.69,0,0,1,94,134c-2.23.19-4.42.42-6.64.75-5,.74-10,1.43-15,1.71A114.13,114.13,0,0,1,56.77,136ZM131,146.59c-4.39.86-9,.35-13.43.33A97.29,97.29,0,0,1,102.5,146c-5.1-.8-10.07-2.18-15.07-3.4C85,142,82.51,141.43,80,141s-5-.84-7.48-1.39a.16.16,0,0,1,0-.31c9.42-1.65,19.24-2.94,28.67-.66a65.93,65.93,0,0,1,8.36,1.38c4.52,1.06,8.81,2.89,13.33,3.94,1.56.37,3.16.51,4.72.85a6.57,6.57,0,0,1,3.45,1.52A.16.16,0,0,1,131,146.59Zm163.53-38.22c-1.09,2.6-4.23,3.76-6.8,4.54-2.77.84-5.75,1.22-8.46,2.24,2,.35,4.12.06,6.17.33.17,0,.15.28,0,.32-5,1.37-10,3.06-15.19,3.65a56.72,56.72,0,0,1-7.93.29c-2-.06-4-.26-6-.39a29.76,29.76,0,0,0-5.84,1c-2.76.8-5.42,2-8.28,2.49-2.67.42-5.37.36-8.06.52a19.86,19.86,0,0,0-6.89,1.53,61.37,61.37,0,0,1,6.2.93.16.16,0,0,1-.05.32c-6.24.35-12.37,1.7-18.61,2.1a67.48,67.48,0,0,1-18.11-1.23.16.16,0,0,1,0-.3,26.91,26.91,0,0,1,4.93-2.11c-1-.18-2.06-.17-3.08-.32-.17,0-.15-.28,0-.32a49.66,49.66,0,0,1,6.63-1.14,16.53,16.53,0,0,0-4.13-1.74c-1.6-.49-3.18-1.06-4.79-1.5a27.72,27.72,0,0,0-11.4-.44c-3.86.57-7.66,1.43-11.44,2.36-1.87.46-3.72.94-5.57,1.45a24.61,24.61,0,0,1-5.25,1c-.14,0-.24-.19-.12-.28a48.36,48.36,0,0,1,22.7-9.18,59.33,59.33,0,0,1,13.25-.43c4.73.38,9.41,1.13,14.14,1.59a.16.16,0,0,1,0,.32,33.38,33.38,0,0,0-4.09,1.84c2.83-.43,5.63-1,8.46-1.43a69.88,69.88,0,0,1,16-.19,29.31,29.31,0,0,1,6.72,1.11,3.64,3.64,0,0,1,1.2.57q.36-.14.72-.3c3.55-1.55,7.09-3.32,10.92-4.16s7.61-.65,11.4-.66A40.62,40.62,0,0,0,275,111.67c-3.17-.32-6.36.27-9.54.1a.17.17,0,0,1-.09-.31,31.63,31.63,0,0,1,12.32-4.07l1.22-.28a24.33,24.33,0,0,1,5.84-.44c3.18.12,6.83.11,9.75,1.51A.18.18,0,0,1,294.53,108.37Z" transform="translate(0 -57.34)"/><path class="cls-5" d="M13,116c4.35-.47,8.46,1.24,12.61,2.23,3.3.79,6.68,1.17,10,1.79-2.1-.82-4.14-1.78-6.19-2.67a37.82,37.82,0,0,0-5.91-2.2A49.05,49.05,0,0,0,17,114c-5.64-.66-11.34-.55-17-.73v5.43c1-.15,1.93-.35,2.79-.53C6.17,117.42,9.52,116.36,13,116Z" transform="translate(0 -57.34)"/><path class="cls-5" d="M75.64,116.58c12.08-.48,23.61-4.65,35.54-6.23C99.08,110.43,87.17,113,75.64,116.58Z" transform="translate(0 -57.34)"/><path class="cls-5" d="M262.35,98.5c6.68,1.31,13.49,2.73,20.33,2.14,2.9-.25,5.77-.7,8.65-1.13a69.8,69.8,0,0,1,8-.72c5.58-.17,11.16-.08,16.74-.05,11.19,0,22.37.33,33.52,1.27,9,.76,17.93,1.94,26.91,2.74V96.46H250.32C254.35,96.94,258.36,97.73,262.35,98.5Z" transform="translate(0 -57.34)"/><path class="cls-5" d="M275.58,126.38l-.37.05-18.1,1.8c-11.14,1.11-22.36,2-33.4,3.89-5.05.87-10.45,1.9-15.58,1.11-4.94-.76-9.82-.09-14.73.52l1.21.15c5.38.61,10.79.9,16.2,1.08,2.62.09,5.25.25,7.87.17a60.61,60.61,0,0,0,8.06-.8c5.17-.82,10.27-2,15.45-2.76a51.54,51.54,0,0,1,7.44-.56c2.68,0,5.35.33,8,.59,10.64,1,21.4,2.35,32,.61,5.4-.88,10.67-2.41,16-3.59a83.68,83.68,0,0,1,12.77-2C304.2,125.65,289.88,126.18,275.58,126.38Z" transform="translate(0 -57.34)"/><path class="cls-5" d="M368.79,154.16a72.46,72.46,0,0,0-9.38,1.41,46.73,46.73,0,0,1-5.88.94c7.58,1.09,15.23,1.57,22.83,2.58l.18,0v-5A66.8,66.8,0,0,0,368.79,154.16Z" transform="translate(0 -57.34)"/><path class="cls-5" d="M281.06,103.63c-4.93.24-9.45,2.15-13.83,4.29,5.68-.63,11.19-2.32,16.87-2.94,1.79-.2,3.59-.29,5.39-.35A34.77,34.77,0,0,0,281.06,103.63Z" transform="translate(0 -57.34)"/><path class="cls-5" d="M171.76,102.83c-10.68.24-21.41-.35-32,1.17,5.64-.2,11.29.73,16.94.75a58.06,58.06,0,0,0,11-1.21C169.05,103.29,170.4,103,171.76,102.83Z" transform="translate(0 -57.34)"/><path class="cls-5" d="M24.94,99a233.65,233.65,0,0,1,29.7.69c9,.68,18,1.09,27,1.19,8.86.11,17.71,1,26.56.63s17.33-1.74,26-2.27c9.08-.54,18.17-.4,27.26-.21s18.13.3,27.2,0,18.17-.89,27.25-1.41c9.43-.53,18.87-.79,28.31-1.15H0v2.05C8.31,98.47,16.62,99.46,24.94,99Z" transform="translate(0 -57.34)"/><path class="cls-5" d="M150.63,170a24.18,24.18,0,0,1-3.36,2.23H271.73a8.35,8.35,0,0,0,1.28-3.88,11.55,11.55,0,0,0-3.48-8.43,24.06,24.06,0,0,0-9.23-6,62.67,62.67,0,0,0-6.89-1.9c-2.72-.67-5.44-1.34-8.16-2-10.85-2.59-21.75-5-32.66-7.39-10.65-2.31-21.3-4.66-32-6.86a72.87,72.87,0,0,1-13.87-3.82,18.67,18.67,0,0,1-5.84-3.56,5.53,5.53,0,0,1-1.94-3.64c0-3.32,3.82-5.48,6.52-6.71a123.17,123.17,0,0,1,14.63-5.4c5-1.58,10-3.36,15.13-4.72a136.59,136.59,0,0,1,15.16-3.08c10.63-1.59,21.36-2.35,32-3.9,8.45-1.23,16.86-2.74,25.21-4.47H239.86c-5.15.87-10.32,1.72-15.49,2.47q-12.47,1.81-25,2.6c-5.54.35-11.1.62-16.64,1s-11.11,1-16.64,1.69c-11,1.38-21.81,3.3-32.69,5.16-9.46,1.63-19.45,3.28-27.8,8.12-3.27,1.9-6.29,4.66-6,8.63s3.07,6.8,6.51,8.67A73.16,73.16,0,0,0,117,139.13c4.09,1.46,8.19,2.93,12.22,4.55,7.74,3.13,15.53,6.89,21.5,12.68,2.05,2,4,4.64,3.74,7.6A9.19,9.19,0,0,1,150.63,170Z" transform="translate(0 -57.34)"/><path class="cls-5" d="M32.75,154.4c-.69.06-1.38.15-2.06.25-1.57.25-3.12.55-4.67.85,1.38-.15,2.76-.31,4.13-.55A24.08,24.08,0,0,0,32.75,154.4Z" transform="translate(0 -57.34)"/><path class="cls-6" d="M221.66,107.31c-1-3.33-4.77-4.36-7.83-4.44a21.7,21.7,0,0,0-10.06,2.69,15.18,15.18,0,0,0-3.29,2.27c-.24.22-1,1.42-.33,1.62a17.11,17.11,0,0,0,4.47.22,34.84,34.84,0,0,1,5.49.53,9.53,9.53,0,0,0,2.06-.2c.77-.09,1.54-.17,2.3-.3a36,36,0,0,1,5.64-.92c.48,0,1.08-.14,1.24-.66A.82.82,0,0,0,221.66,107.31Z" transform="translate(0 -57.34)"/><path class="cls-7" d="M201.42,107.35a15.25,15.25,0,0,1,2-1.17,47.73,47.73,0,0,1,4.45-2,15.92,15.92,0,0,1,4.81-1.08c1,0,1.91-.07,2.86-.12a15.93,15.93,0,0,0-1.66-.14,21.7,21.7,0,0,0-10.06,2.69,15.18,15.18,0,0,0-3.29,2.27,2.62,2.62,0,0,0-.51.8C200.5,108.26,200.89,107.73,201.42,107.35Z" transform="translate(0 -57.34)"/><path class="cls-8" d="M221.66,107.31c-.78-2.68-3.39-3.87-6-4.27a14.23,14.23,0,0,0-1.22,2,4.33,4.33,0,0,1-1.07,1.62c-1.27.92-3.28,1-4.78,1.23-2.28.41-4.54.8-6.81,1.24-.75.15-1.44.39-1.93.06a.36.36,0,0,0,.28.3,17.11,17.11,0,0,0,4.47.22,34.84,34.84,0,0,1,5.49.53,9.53,9.53,0,0,0,2.06-.2c.77-.09,1.54-.17,2.3-.3a36,36,0,0,1,5.64-.92c.48,0,1.08-.14,1.24-.66A.82.82,0,0,0,221.66,107.31Z" transform="translate(0 -57.34)"/><path class="cls-8" d="M221.66,107.31c-.78-2.68-3.39-3.87-6-4.27a14.23,14.23,0,0,0-1.22,2,10.18,10.18,0,0,1-.6,1.12c.18,1.2.38,2.39.55,3.59h.06a36,36,0,0,1,5.64-.92c.48,0,1.08-.14,1.24-.66A.82.82,0,0,0,221.66,107.31Z" transform="translate(0 -57.34)"/><path class="cls-8" d="M215.84,108.11c-.64-.62-1.28-1.24-2-1.81.18,1.14.37,2.27.53,3.41h.06c.85-.15,1.7-.34,2.55-.52C216.63,108.81,216.22,108.47,215.84,108.11Z" transform="translate(0 -57.34)"/><path class="cls-6" d="M229.64,112.41c.9-.27,2.2-.82,1.55-1.67-.07-.09-.16-.17-.23-.26l-.24-.22a15.45,15.45,0,0,0-4.3-2.51,12.81,12.81,0,0,0-3.9-.49,7.16,7.16,0,0,0-4.43,2.44,2.42,2.42,0,0,0-.63,1.76c0,.62,1,.51,1.37.51,2.58,0,5.16.32,7.74.38C227.58,112.37,228.61,112.42,229.64,112.41Z" transform="translate(0 -57.34)"/><path class="cls-7" d="M218.79,109.51a6.09,6.09,0,0,1,2.46-1.55,24.87,24.87,0,0,1,5.39-.11l-.22-.1a12.81,12.81,0,0,0-3.9-.49,7.16,7.16,0,0,0-4.43,2.44,3.43,3.43,0,0,0-.5.85A8,8,0,0,1,218.79,109.51Z" transform="translate(0 -57.34)"/><path class="cls-8" d="M231.19,110.74c-.07-.09-.16-.17-.23-.26l-.24-.22a14.84,14.84,0,0,0-3.9-2.33,11.1,11.1,0,0,1,1.16.77.27.27,0,0,1-.06.42,14.14,14.14,0,0,1-3.84,1.53,31.48,31.48,0,0,1-4.12.18c-.48,0-2,.35-2.38,0a.1.1,0,0,1,0-.05,2.07,2.07,0,0,0-.08.72c0,.62,1,.51,1.37.51,2.58,0,5.16.32,7.74.38,1,0,2,.07,3.07.06C230.54,112.14,231.84,111.59,231.19,110.74Z" transform="translate(0 -57.34)"/><path class="cls-8" d="M231.19,110.74c-.07-.09-.16-.17-.23-.26l-.24-.22a14.84,14.84,0,0,0-3.9-2.33,11.1,11.1,0,0,1,1.16.77.27.27,0,0,1-.06.42l0,0a13.57,13.57,0,0,0,1.48,2.19c.24.31.5.61.75.92C230.92,111.94,231.73,111.45,231.19,110.74Z" transform="translate(0 -57.34)"/><path class="cls-8" d="M224.62,110.54h-.05c0,.27,0,.54,0,.81v.9c.44,0,.88,0,1.32.06C225.47,111.75,225.05,111.14,224.62,110.54Z" transform="translate(0 -57.34)"/><path class="cls-6" d="M194.5,121.82a25.61,25.61,0,0,0-2.68-2.32l-1.41-.46a10.73,10.73,0,0,0-4.65-.13c-3.54.44-6.67,2.07-10,3.11a24.74,24.74,0,0,1-2.67.6c-.52.32-1,.66-1.55,1s-1.12.72-1.63,1.13a3,3,0,0,0,1.11.91,4.46,4.46,0,0,1,.89.14,10.35,10.35,0,0,0,2.72.21c1.51,0,3,.07,4.49,0a34.88,34.88,0,0,0,5.18-.91c1.87-.42,3.35.19,5.15.55a10.32,10.32,0,0,0,4.54-.48,6.23,6.23,0,0,0,2.59-1.35C195.86,123.11,195.15,122.47,194.5,121.82Z" transform="translate(0 -57.34)"/><path class="cls-7" d="M175.4,122.3a13,13,0,0,0,2.94-.75c1.7-.63,3.38-1.4,5.12-1.91a19.93,19.93,0,0,1,6.61-.69,11.36,11.36,0,0,0-4.31,0c-3.54.44-6.67,2.07-10,3.11-.44.13-.89.24-1.35.34A7,7,0,0,0,175.4,122.3Z" transform="translate(0 -57.34)"/><path class="cls-8" d="M194.5,121.82a24.76,24.76,0,0,0-2.45-2.13,36.57,36.57,0,0,0-4.51,2c-1.4.64-2.75,1.67-4.28,2a11.83,11.83,0,0,1-4.7-.19c-1.78-.32-3.55-.69-5.35-.89l-.16,0c-.52.32-1,.66-1.55,1s-1.12.72-1.63,1.13a3,3,0,0,0,1.11.91,4.46,4.46,0,0,1,.89.14,10.35,10.35,0,0,0,2.72.21c1.51,0,3,.07,4.49,0a34.88,34.88,0,0,0,5.18-.91c1.87-.42,3.35.19,5.15.55a10.32,10.32,0,0,0,4.54-.48,6.23,6.23,0,0,0,2.59-1.35C195.86,123.11,195.15,122.47,194.5,121.82Z" transform="translate(0 -57.34)"/><path class="cls-8" d="M172.74,122.82c-.42.26-.83.53-1.24.8s-1.12.72-1.63,1.13a3,3,0,0,0,1.11.91l.6.08A25,25,0,0,0,172.74,122.82Z" transform="translate(0 -57.34)"/><path class="cls-8" d="M188.09,124.07c-.36-.72-.69-1.46-1.11-2.14a15.92,15.92,0,0,1-3.72,1.74,8.2,8.2,0,0,1-2.66.11c-.18.28-.36.56-.53.85-.28.45-.57.88-.84,1.33a35.82,35.82,0,0,0,5-.9c1.71-.38,3.09.09,4.68.44C188.64,125,188.35,124.56,188.09,124.07Z" transform="translate(0 -57.34)"/><path class="cls-8" d="M192.91,123.22c.19.68.4,1.35.63,2l.41-.11a6.23,6.23,0,0,0,2.59-1.35c-.68-.67-1.39-1.31-2-2a25.39,25.39,0,0,0-2.42-2.11A18.29,18.29,0,0,0,192.91,123.22Z" transform="translate(0 -57.34)"/><path class="cls-6" d="M267.19,107.2a3.16,3.16,0,0,0-1.84-1.94,10.22,10.22,0,0,0-1.35-.9,4,4,0,0,0-3.74-.23,9,9,0,0,0-3.21,2.34,21,21,0,0,1-2.05,1.87,1.4,1.4,0,0,0-.58.86c-.59,2,5.77,1.4,6.36,1.4a8.27,8.27,0,0,0,3.74-1.25,7.44,7.44,0,0,0,1.6-1.09c.33-.3.65-.21.94-.61A.62.62,0,0,0,267.19,107.2Z" transform="translate(0 -57.34)"/><path class="cls-7" d="M256.74,107.48c.63-.63,1.12-1.37,1.75-2a8.68,8.68,0,0,1,2-1.43l-.24.07a9,9,0,0,0-3.21,2.34,21,21,0,0,1-2.05,1.87,1.4,1.4,0,0,0-.52.69A9.83,9.83,0,0,0,256.74,107.48Z" transform="translate(0 -57.34)"/><path class="cls-8" d="M267.19,107.2a3.16,3.16,0,0,0-1.84-1.94,10.22,10.22,0,0,0-1.35-.9,3.55,3.55,0,0,0-2.38-.55,19,19,0,0,0-.76,2.71c-.15.74-.2,1.71-.82,2.23a4.59,4.59,0,0,1-2.32.57,12,12,0,0,1-3.32.24h0c.22,1.58,5.83,1,6.39,1a8.27,8.27,0,0,0,3.74-1.25,7.44,7.44,0,0,0,1.6-1.09c.33-.3.65-.21.94-.61A.62.62,0,0,0,267.19,107.2Z" transform="translate(0 -57.34)"/><path class="cls-8" d="M261.43,104.37a21.49,21.49,0,0,0-.57,2.15,9.73,9.73,0,0,1-.35,1.54c-.11.86-.23,1.72-.36,2.57l.63,0a6.79,6.79,0,0,0,2.8-.76C262.83,108,262.13,106.19,261.43,104.37Z" transform="translate(0 -57.34)"/><path class="cls-8" d="M267,107.71l.05-.06a.62.62,0,0,0,.13-.45,3.16,3.16,0,0,0-1.84-1.94,10.22,10.22,0,0,0-1.35-.9,3.53,3.53,0,0,0-2.19-.56A12.8,12.8,0,0,1,267,107.71Z" transform="translate(0 -57.34)"/><path class="cls-6" d="M109.64,101.83c-.71-2.45-3.51-3.21-5.76-3.27a16.09,16.09,0,0,0-7.41,2,11.22,11.22,0,0,0-2.42,1.67c-.18.17-.76,1.05-.25,1.2a13,13,0,0,0,3.3.16,25,25,0,0,1,4,.39,7,7,0,0,0,1.51-.15c.57-.07,1.14-.12,1.7-.22a26.6,26.6,0,0,1,4.15-.68c.35,0,.8-.1.91-.48A.62.62,0,0,0,109.64,101.83Z" transform="translate(0 -57.34)"/><path class="cls-7" d="M94.73,101.86a10.53,10.53,0,0,1,1.44-.86,33,33,0,0,1,3.28-1.45,12,12,0,0,1,3.54-.8c.71,0,1.41,0,2.11-.09-.41,0-.83-.09-1.22-.1a16.09,16.09,0,0,0-7.41,2,11.22,11.22,0,0,0-2.42,1.67,1.93,1.93,0,0,0-.38.59C94.06,102.53,94.35,102.14,94.73,101.86Z" transform="translate(0 -57.34)"/><path class="cls-8" d="M109.64,101.83c-.57-2-2.5-2.85-4.4-3.15a10.54,10.54,0,0,0-.9,1.45,3.22,3.22,0,0,1-.79,1.19c-.93.68-2.41.71-3.52.91-1.67.3-3.34.59-5,.91-.55.11-1.07.29-1.42,0a.26.26,0,0,0,.2.23,13,13,0,0,0,3.3.16,25,25,0,0,1,4,.39,7,7,0,0,0,1.51-.15c.57-.07,1.14-.12,1.7-.22a26.6,26.6,0,0,1,4.15-.68c.35,0,.8-.1.91-.48A.62.62,0,0,0,109.64,101.83Z" transform="translate(0 -57.34)"/><path class="cls-8" d="M109.64,101.83c-.57-2-2.5-2.85-4.4-3.15a10.54,10.54,0,0,0-.9,1.45,8.45,8.45,0,0,1-.45.83c.14.88.29,1.76.42,2.63h0a26.6,26.6,0,0,1,4.15-.68c.35,0,.8-.1.91-.48A.62.62,0,0,0,109.64,101.83Z" transform="translate(0 -57.34)"/><path class="cls-8" d="M105.35,102.42c-.47-.46-.93-.91-1.44-1.33.13.83.27,1.67.4,2.5h0c.63-.11,1.25-.25,1.87-.38C105.94,102.94,105.63,102.68,105.35,102.42Z" transform="translate(0 -57.34)"/><path class="cls-6" d="M115.52,105.59c.66-.21,1.62-.61,1.14-1.23l-.17-.19-.18-.16a11,11,0,0,0-3.16-1.85,9.91,9.91,0,0,0-2.88-.37,5.33,5.33,0,0,0-3.26,1.8,1.77,1.77,0,0,0-.46,1.29c0,.46.75.38,1,.38,1.9,0,3.79.24,5.69.28C114,105.56,114.76,105.59,115.52,105.59Z" transform="translate(0 -57.34)"/><path class="cls-7" d="M107.53,103.45a4.49,4.49,0,0,1,1.81-1.14,18.14,18.14,0,0,1,4-.08l-.16-.07a9.91,9.91,0,0,0-2.88-.37,5.33,5.33,0,0,0-3.26,1.8,2.41,2.41,0,0,0-.37.63A6,6,0,0,1,107.53,103.45Z" transform="translate(0 -57.34)"/><path class="cls-8" d="M116.66,104.36l-.17-.19-.18-.16a11,11,0,0,0-2.87-1.73,8.47,8.47,0,0,1,.85.58.19.19,0,0,1,0,.3,11,11,0,0,1-2.84,1.13,23.63,23.63,0,0,1-3,.13c-.36,0-1.47.26-1.76,0,0,0,0,0,0,0a1.46,1.46,0,0,0-.06.52c0,.46.75.38,1,.38,1.9,0,3.79.24,5.69.28.75,0,1.51,0,2.27,0C116.18,105.38,117.14,105,116.66,104.36Z" transform="translate(0 -57.34)"/><path class="cls-8" d="M116.66,104.36l-.17-.19-.18-.16a11,11,0,0,0-2.87-1.73,8.47,8.47,0,0,1,.85.58.19.19,0,0,1,0,.3s0,0,0,0a10.35,10.35,0,0,0,1.09,1.61l.55.68C116.46,105.24,117.06,104.88,116.66,104.36Z" transform="translate(0 -57.34)"/><path class="cls-8" d="M111.82,104.21h0c0,.19,0,.39,0,.59s0,.44,0,.67l1,0C112.44,105.1,112.14,104.65,111.82,104.21Z" transform="translate(0 -57.34)"/><path class="cls-6" d="M89.64,112.51a18.61,18.61,0,0,0-2-1.7l-1-.34a7.93,7.93,0,0,0-3.43-.1c-2.6.33-4.9,1.53-7.39,2.29a18,18,0,0,1-2,.44c-.39.24-.77.49-1.15.74s-.82.53-1.2.83a2.17,2.17,0,0,0,.82.67,4.77,4.77,0,0,1,.66.1,7.45,7.45,0,0,0,2,.16c1.11,0,2.2.05,3.31,0a24.71,24.71,0,0,0,3.81-.67c1.38-.31,2.47.14,3.79.4a7.64,7.64,0,0,0,3.35-.35,4.59,4.59,0,0,0,1.9-1C90.64,113.47,90.12,113,89.64,112.51Z" transform="translate(0 -57.34)"/><path class="cls-7" d="M75.58,112.87a9.54,9.54,0,0,0,2.16-.56c1.25-.46,2.49-1,3.77-1.4a14.77,14.77,0,0,1,4.87-.51,8.5,8.5,0,0,0-3.18,0c-2.6.33-4.9,1.53-7.39,2.29-.32.1-.65.18-1,.25A6.56,6.56,0,0,0,75.58,112.87Z" transform="translate(0 -57.34)"/><path class="cls-8" d="M89.64,112.51a19,19,0,0,0-1.8-1.56,27.62,27.62,0,0,0-3.33,1.44,16.39,16.39,0,0,1-3.14,1.49,8.65,8.65,0,0,1-3.47-.15c-1.31-.23-2.61-.5-3.93-.65l-.12,0c-.39.24-.77.49-1.15.74s-.82.53-1.2.83a2.17,2.17,0,0,0,.82.67,4.77,4.77,0,0,1,.66.1,7.45,7.45,0,0,0,2,.16c1.11,0,2.2.05,3.31,0a24.71,24.71,0,0,0,3.81-.67c1.38-.31,2.47.14,3.79.4a7.64,7.64,0,0,0,3.35-.35,4.59,4.59,0,0,0,1.9-1C90.64,113.47,90.12,113,89.64,112.51Z" transform="translate(0 -57.34)"/><path class="cls-8" d="M73.62,113.25l-.92.59c-.4.27-.82.53-1.2.83a2.17,2.17,0,0,0,.82.67l.45.06A19.58,19.58,0,0,0,73.62,113.25Z" transform="translate(0 -57.34)"/><path class="cls-8" d="M84.92,114.17c-.26-.53-.51-1.07-.82-1.57a12.11,12.11,0,0,1-2.73,1.28,6.15,6.15,0,0,1-2,.08l-.4.62-.61,1a25.84,25.84,0,0,0,3.7-.66,7.3,7.3,0,0,1,3.45.33C85.33,114.88,85.11,114.53,84.92,114.17Z" transform="translate(0 -57.34)"/><path class="cls-8" d="M88.47,113.55c.14.49.3,1,.46,1.48l.31-.08a4.59,4.59,0,0,0,1.9-1c-.5-.49-1-1-1.5-1.45A18.64,18.64,0,0,0,87.86,111,13.55,13.55,0,0,0,88.47,113.55Z" transform="translate(0 -57.34)"/><path class="cls-6" d="M143.17,101.75a2.35,2.35,0,0,0-1.36-1.43,7.41,7.41,0,0,0-1-.66,2.92,2.92,0,0,0-2.75-.17,6.63,6.63,0,0,0-2.37,1.72,15,15,0,0,1-1.51,1.38,1.05,1.05,0,0,0-.43.64c-.43,1.48,4.25,1,4.69,1a6.22,6.22,0,0,0,2.75-.91,5.91,5.91,0,0,0,1.18-.81c.24-.22.48-.15.69-.45A.47.47,0,0,0,143.17,101.75Z" transform="translate(0 -57.34)"/><path class="cls-7" d="M135.47,102c.46-.46.83-1,1.29-1.46a6.59,6.59,0,0,1,1.48-1.06l-.17.06a6.63,6.63,0,0,0-2.37,1.72,15,15,0,0,1-1.51,1.38,1.07,1.07,0,0,0-.38.5A6.7,6.7,0,0,0,135.47,102Z" transform="translate(0 -57.34)"/><path class="cls-8" d="M143.17,101.75a2.35,2.35,0,0,0-1.36-1.43,7.41,7.41,0,0,0-1-.66,2.63,2.63,0,0,0-1.75-.41,12.76,12.76,0,0,0-.56,2c-.12.54-.15,1.25-.61,1.64a3.31,3.31,0,0,1-1.71.42,8.74,8.74,0,0,1-2.44.18h0c.17,1.16,4.3.76,4.71.76a6.22,6.22,0,0,0,2.75-.91,5.91,5.91,0,0,0,1.18-.81c.24-.22.48-.15.69-.45A.47.47,0,0,0,143.17,101.75Z" transform="translate(0 -57.34)"/><path class="cls-8" d="M138.92,99.66c-.17.53-.3,1.09-.41,1.59a8,8,0,0,1-.26,1.13c-.08.63-.17,1.27-.27,1.9l.47,0a4.93,4.93,0,0,0,2.06-.56C140,102.36,139.45,101,138.92,99.66Z" transform="translate(0 -57.34)"/><path class="cls-8" d="M143,102.13l0,0a.47.47,0,0,0,.1-.33,2.35,2.35,0,0,0-1.36-1.43,7.41,7.41,0,0,0-1-.66,2.62,2.62,0,0,0-1.61-.42A9.42,9.42,0,0,1,143,102.13Z" transform="translate(0 -57.34)"/><path class="cls-9" d="M216.55,98.33s-118.25,10-114.94,24.89,86.09,31.4,46.83,49h117.3s20.81-11.87-39.26-24.51-97.37-22.18-52.5-36c33.17-10.2,73.45-14.63,73.45-14.63Z" transform="translate(0 -57.34)"/><path class="cls-10" d="M217.1,170.5c-.45.55-.91,1.08-1.39,1.6h4c.85-1.47,2.21-3.54.47-5.91-2.9-3.95-30.87-13.77-51.78-20.83s-37.22-17.83-39.26-21.2,1.79-8.32,21.59-13.45,49.36-8.83,49.36-8.83l25-3.48-3.47.39s-115,10.32-90.82,28.82C160.43,150.15,225.46,160.41,217.1,170.5Z" transform="translate(0 -57.34)"/><path class="cls-11" d="M114.73,115a117,117,0,0,1,16-3c4.44-.58,8.86-1.22,13.33-1.4a36.61,36.61,0,0,1,7.69.3c1.61.27,3.65.73,4.66,2.15,1.29,1.81-.11,4.22-.89,5.93-.69,1.51-1.62,3.22-1.4,4.94.29,2.18,2.18,3.78,3.89,5a33.7,33.7,0,0,0,11.41,4.74c-19.67-6.84-22.49-13.61,4.57-21.94,33.17-10.2,73.45-14.63,73.45-14.63l-30.88,1.23s-102,8.59-113.87,21.77A44.12,44.12,0,0,1,114.73,115Z" transform="translate(0 -57.34)"/><path class="cls-5" d="M349.11,149.07c-1.9.79-4.13,1.61-5.33,3.38,7-.41,14.05-1.6,21.09-1.06,3.81.3,7.77,1,11.67,1V127a29.57,29.57,0,0,1-5.47.7c-2.57.13-5.14.26-7.71.37-5.29.22-10.58.36-15.87.47-11,.22-22.09,0-33.12.42-5.47.19-10.94.52-16.38,1.14s-11,1.8-16.54,2.25-11.07.52-16.6.81a131.63,131.63,0,0,0-16.67,2c-10.52,1.89-20.87,4.55-31.32,6.8,7,2.53,14.69,2.48,22,3.13,7.67.68,15.32,1.58,22.9,2.94a.17.17,0,0,1,0,.31c-1.05.53-2.08,1.12-3.1,1.7a13.59,13.59,0,0,0,5.91.66c2.1-.11,4.19-.41,6.29-.57,5.19-.41,10.48-1.11,15.66-.4.15,0,.16.24,0,.31a3.55,3.55,0,0,0-1.48,1.42c-.2.42,1,.67,1.32.76a19.71,19.71,0,0,0,3.28.68c2.12.24,4.24.28,6.36.35,2.51.08,5,.23,7.49.08,2.66-.16,5.3-.5,7.93-.9a51.58,51.58,0,0,1,7.33-1,45.12,45.12,0,0,1,6.66.57c4.51.64,9.18,1.47,13.64.2-2.63-.94-5.45-1.28-8-2.38-.18-.08-.06-.31.08-.32a154,154,0,0,1,17.83-.85A.17.17,0,0,1,349.11,149.07Z" transform="translate(0 -57.34)"/><path class="cls-12" d="M308.77,144.67a15.11,15.11,0,0,0,1.63.2l1.63,0c.69,0,1.39,0,2.09-.1a26.14,26.14,0,0,1,4.76-.15c3.27.39,6.55.75,9.84,1,2.7.19,5.41.31,8.12.3s5.53-.23,8.3-.25c5.55,0,11.08.37,16.62.43,2.74,0,5.47-.14,8.2-.12,2.2,0,4.39.11,6.58.23V57.34c-6,.69-12,1.32-18,1.74-5,.36-10,.6-15,.65-3.2,0-6.5-.43-9.69-.17s-4.59,2.27-5.5,5.09a34.81,34.81,0,0,0-1.44,6,32.07,32.07,0,0,1-1.21,6.23c-2.76,7.79-9.63,13.42-15.93,18.31a80,80,0,0,0-10,9.81c-3.09,3.37-6.62,6.66-10.85,8.53s-8.8,2.92-13.22,4.27a30.67,30.67,0,0,0-11.08,6.21,42.49,42.49,0,0,1-5.22,4.25,32.3,32.3,0,0,1-5.81,2.86c-4.52,1.66-9.25,2.51-13.89,3.76-6.17,1.67-12.18,4-18.27,5.93,8.38,1.21,16.81,2.14,25.23,2.94,20.6,2,41.26.66,61.9,1A.18.18,0,0,1,308.77,144.67Z" transform="translate(0 -57.34)"/><path class="cls-13" d="M358.52,59.08c-5,.36-10,.6-15,.65-3.2,0-6.5-.43-9.69-.17s-4.59,2.27-5.5,5.09a34.81,34.81,0,0,0-1.44,6,32.07,32.07,0,0,1-1.21,6.23c-2.76,7.79-9.63,13.42-15.93,18.31a80,80,0,0,0-10,9.81c-3.09,3.37-6.62,6.66-10.85,8.53s-8.8,2.92-13.22,4.27a30.67,30.67,0,0,0-11.08,6.21,42.49,42.49,0,0,1-5.22,4.25,32.3,32.3,0,0,1-5.81,2.86c-4.52,1.66-9.25,2.51-13.89,3.76-6.17,1.67-12.18,4-18.27,5.93,8.38,1.21,16.81,2.14,25.23,2.94,20.6,2,41.26.66,61.9,1a.18.18,0,0,1,.21-.16,15.11,15.11,0,0,0,1.63.2l1.63,0c.69,0,1.39,0,2.09-.1a26.14,26.14,0,0,1,4.76-.15c3.27.39,6.55.75,9.84,1,2.7.19,5.41.31,8.12.3s5.53-.23,8.3-.25c5.55,0,11.08.37,16.62.43,2.74,0,5.47-.14,8.2-.12,2.2,0,4.39.11,6.58.23V57.34C370.54,58,364.54,58.66,358.52,59.08Zm-14,8.72c-.11,1.64-.21,3.26-.25,4.9-.11,3.9.06,7.81-.13,11.7-.32,6.66-3.31,12.43-7.11,17.76a.17.17,0,0,1-.31-.08c0-4.68.68-9.33.94-14-1.8,6.17-4.17,12.15-6.05,18.3-1.09,3.55-2.18,7.18-4.6,10.07-1.34,1.6-3,2.86-4.46,4.34s-2.75,2.93-4.21,4.32a19.59,19.59,0,0,1-4.47,3.37,15.28,15.28,0,0,1-5.4,1.39c-4.42.51-9.15,1-13.33-.85a.17.17,0,0,1-.06-.23c4.61-6.94,11.71-11.3,17.82-16.75a32.24,32.24,0,0,0,7.12-9.57c1.1-2.14,2.09-4.33,3.12-6.51-2,3-4.33,5.82-6.37,8.8-2.27,3.31-4.49,7.1-8.36,8.73A28.7,28.7,0,0,1,301.3,115a21.47,21.47,0,0,0-3.82.82c-1.2.41-2.37.92-3.56,1.35a43,43,0,0,1-7.27,2.16,20.47,20.47,0,0,0-6.9,2.23,64.08,64.08,0,0,0-5.89,4.19,32.89,32.89,0,0,1-6.25,3.73,55.89,55.89,0,0,1-13.88,3.68c-.15,0-.32-.17-.17-.28a17.92,17.92,0,0,1,5.42-2.63,18.1,18.1,0,0,0,6-3.14c1.49-1.28,2.83-2.75,4.4-3.94a27.31,27.31,0,0,1,5.5-3.22,48.58,48.58,0,0,1,6-2.16,42.33,42.33,0,0,0,6.45-2,33.68,33.68,0,0,0,5.11-3.33,63.87,63.87,0,0,0,5.41-4.31c3.65-3.33,7.06-6.91,10.89-10.06a132.93,132.93,0,0,0,10.51-8.88,31.44,31.44,0,0,0,4.65-5.64A35,35,0,0,0,327,76.92c1.3-3.66,2.22-7.44,3.33-11.16.14-1.21.32-2.41.57-3.59a.18.18,0,0,1,.21-.12,35,35,0,0,0,6.14-.16,8.79,8.79,0,0,1,3.35.2,1.33,1.33,0,0,1,.89,1c.19.83.23,1.7.37,2.54a8.82,8.82,0,0,0,1.76-2,.17.17,0,0,1,.29,0A7.94,7.94,0,0,1,344.47,67.8Z" transform="translate(0 -57.34)"/><path class="cls-14" d="M358.52,59.08c-2.67.19-5.34.35-8,.46a10.38,10.38,0,0,0-.58,2.73,26.2,26.2,0,0,0,.1,3.86,38.06,38.06,0,0,1-.57,7.68,42.54,42.54,0,0,0-.09,7.9c.16,2.55-.08,5-.17,7.56-.16,4.58.23,9.58-1.44,14-1.42,3.71-4.25,6.35-7.11,9a34.69,34.69,0,0,0-4.11,4.2,41.17,41.17,0,0,0-3.3,5.49,18.11,18.11,0,0,1-3.47,4.8,16.5,16.5,0,0,1-5.09,3c-2.1.84-4.27,1.48-6.43,2.11a61.79,61.79,0,0,1-6.48,1.82c-2.47.43-5,.47-7.46,1a26.23,26.23,0,0,0-6.89,2.84c-4.6,2.44-9.28,4.72-13.78,7.34l-.21.12c8.38-.08,16.76-.2,25.14,0a.18.18,0,0,1,.21-.16,15.11,15.11,0,0,0,1.63.2l1.63,0c.69,0,1.39,0,2.09-.1a26.14,26.14,0,0,1,4.76-.15c3.27.39,6.55.75,9.84,1,2.7.19,5.41.31,8.12.3s5.53-.23,8.3-.25c5.55,0,11.08.37,16.62.43,2.74,0,5.47-.14,8.2-.12,2.2,0,4.39.11,6.58.23V57.34C370.54,58,364.54,58.66,358.52,59.08Z" transform="translate(0 -57.34)"/><path class="cls-15" d="M372,98.11c0,.16,0,.32,0,.48.08-.65.16-1.29.25-1.94A8.56,8.56,0,0,0,372,98.11Z" transform="translate(0 -57.34)"/><path class="cls-15" d="M309.53,136.65a37.38,37.38,0,0,0-11.87,3.71c-1.11.53-2.19,1.1-3.33,1.58s-2.55.76-3.81,1.21a16.82,16.82,0,0,0-3.23,1.69l8.16-.07a45,45,0,0,1,6.1-4.73A33,33,0,0,1,309.53,136.65Z" transform="translate(0 -57.34)"/><path class="cls-15" d="M328.85,143.29a4.85,4.85,0,0,1,1.11-1.87,6.23,6.23,0,0,1,2.34-1,7.49,7.49,0,0,0,3.22-1.38c1-.93,1.31-2.33,1.85-3.53a37.64,37.64,0,0,1,3.58-5.91c-.62.6-1.24,1.21-1.81,1.86a24.71,24.71,0,0,0-2.44,3.48,26.92,26.92,0,0,1-2.24,3.16,5.73,5.73,0,0,1-2.24,1.88c-2.31.9-4.89.41-7.21,1.25a12.52,12.52,0,0,0-4.91,3.6c2.59.3,5.19.57,7.8.77C328.19,144.77,328.55,144,328.85,143.29Z" transform="translate(0 -57.34)"/><path class="cls-15" d="M358.52,59.08c-2.67.19-5.34.35-8,.46a10.38,10.38,0,0,0-.58,2.73,18.58,18.58,0,0,0,0,2.11,6,6,0,0,1,.2-1.59c.48-1.69,2-2.35,3.63-2.34a30.12,30.12,0,0,0,3.15,0c1.07-.11,2.13-.29,3.2-.31a.19.19,0,0,1,.17.13c1,3,.79,6.35,1,9.51.12,2,.2,3.88.21,5.84a29.81,29.81,0,0,0,.3,4.53c.06-3,.11-6,.15-9,0-1.73,0-3.46,0-5.2a16.22,16.22,0,0,1,.17-3.88c.36-1.4,1.4-1.46,2.66-1.45a11.86,11.86,0,0,0,3.6-.5,23,23,0,0,1,3.91-1,.16.16,0,0,1,.16.12,42.4,42.4,0,0,1,.82,10.19c0,2-.22,4.1-.14,6.14a49.06,49.06,0,0,0,.86,6,30.38,30.38,0,0,1,.22,5.8,17.45,17.45,0,0,1-.75,5.48c-.21.6-.43,1.19-.64,1.77-.13,1.14-.3,2.29-.44,3.43-.66,5.36.28,10.76-.28,16.12a18.4,18.4,0,0,1-1.59,6.25,27.31,27.31,0,0,1-3.24,4.8,19.8,19.8,0,0,0-3.35,6.11,54.6,54.6,0,0,1-2.06,6.18c-.54,1.13-1.21,2.18-1.79,3.28a19.19,19.19,0,0,0-1.43,3.56c-.16.54-.3,1.07-.44,1.61,1.18,0,2.37.07,3.56.08,2.74,0,5.47-.14,8.2-.12,2.2,0,4.39.11,6.58.23V57.34C370.54,58,364.54,58.66,358.52,59.08Z" transform="translate(0 -57.34)"/><path class="cls-12" d="M364.07,144.83c.26-1.21.4-2.43.62-3.65.39-2.2,1.44-4.19,2.11-6.31a26.3,26.3,0,0,1,2.75-6.26c1.23-2,2.73-3.79,3.86-5.81a15.82,15.82,0,0,0,1.88-6.56c.34-4.51-.51-9-.8-13.48a29.5,29.5,0,0,1,.16-6.3c.09-.58.21-1.15.34-1.72-.23.43-.46.87-.66,1.31a12.77,12.77,0,0,0-.93,4.57c-.17,3-.06,6,0,9,.08,4.44-.05,8.94-2.29,12.91a45,45,0,0,1-4.09,6.06,16.67,16.67,0,0,0-3.2,6c-1.08,3.84-1.88,7.71-3.25,11.47l1.2,0c.65,0,1.3,0,2,0A10.15,10.15,0,0,0,364.07,144.83Z" transform="translate(0 -57.34)"/><path class="cls-12" d="M349.83,78c.2-1.95.35-3.9.43-5.86A65,65,0,0,0,349.94,62a1.79,1.79,0,0,0,0,.23,26.2,26.2,0,0,0,.1,3.86,38.06,38.06,0,0,1-.57,7.68,42.54,42.54,0,0,0-.09,7.9c.16,2.55-.08,5-.17,7.56-.16,4.58.23,9.58-1.44,14-1.42,3.71-4.25,6.35-7.11,9a34.69,34.69,0,0,0-4.11,4.2,41.17,41.17,0,0,0-3.3,5.49,18.11,18.11,0,0,1-3.47,4.8,16.5,16.5,0,0,1-5.09,3c-2.1.84-4.27,1.48-6.43,2.11l-.05,0c1.09-.08,2.19-.19,3.27-.35a17.81,17.81,0,0,0,5.44-1.35,18.63,18.63,0,0,0,5.24-4,37,37,0,0,1,5.24-9.52c2.34-2.88,5.54-4.85,7.95-7.64a38.92,38.92,0,0,0,4.74-7.77A109,109,0,0,0,349.83,84,29.35,29.35,0,0,1,349.83,78Z" transform="translate(0 -57.34)"/><path class="cls-15" d="M362,86.83a35.35,35.35,0,0,0-1.81-7.22,42.66,42.66,0,0,0-1.55-4.22c-.57-1.28-1.29-3-2.57-3.75-1.6-.92-2.28.8-2.78,2-.56,1.4-1.1,2.79-1.71,4.17-.69,1.59-1.34,3.21-1.9,4.86,1.73-2.39,3.09-5.07,5.18-7.2a.17.17,0,0,1,.24,0,15.52,15.52,0,0,1,3.49,12.77,25.08,25.08,0,0,1-2.21,6.8c-1,2.14-2.29,4.39-2.52,6.8s.49,4.61.75,6.94a38.9,38.9,0,0,1,.08,7.78c-.13,1.52-.2,3.32-1.05,4.64A9,9,0,0,1,350,124c-1.72.87-3.91,1.71-5,3.39a10.45,10.45,0,0,0-1.21,3.38,14,14,0,0,1-1.12,3c-.63,1.26-1.31,2.49-2,3.72l.3-.45a41.12,41.12,0,0,1,4.14-5.15,39,39,0,0,1,5.06-4.28,23.2,23.2,0,0,0,3.62-2.93,8.34,8.34,0,0,0,1.83-3.79c1.06-4.58.55-9.34,1-14a24.3,24.3,0,0,1,1.54-6.56c.87-2.17,2-4.21,2.87-6.39A14.85,14.85,0,0,0,362,86.83Z" transform="translate(0 -57.34)"/><path class="cls-15" d="M363,105.93c.07-.81.16-1.62.2-2.44-1.33,3.61-2.93,7.15-3.56,11-.45,2.66-.31,5.35-.66,8-.28,2.13-1.36,4.27-1.16,6.44a13,13,0,0,0,2.87-4.55,41.76,41.76,0,0,0,2.27-6.32,19.25,19.25,0,0,0,.3-7.45A23.38,23.38,0,0,1,363,105.93Z" transform="translate(0 -57.34)"/><path class="cls-15" d="M364.16,87.43a21,21,0,0,0,1.9-7.58,23.17,23.17,0,0,0-.55-5.51A92.33,92.33,0,0,0,364.16,87.43Z" transform="translate(0 -57.34)"/><path class="cls-13" d="M293.92,117.13a43,43,0,0,1-7.27,2.16,20.47,20.47,0,0,0-6.9,2.23,64.08,64.08,0,0,0-5.89,4.19,32.89,32.89,0,0,1-6.25,3.73,43.35,43.35,0,0,1-7.43,2.44l2.73.29c2.33.25,4.9.73,7.21.1,3.88-1.06,6.89-4.16,10.09-6.43a121.07,121.07,0,0,1,17.24-10C296.26,116.2,295.1,116.7,293.92,117.13Z" transform="translate(0 -57.34)"/><path class="cls-13" d="M306.86,117c-1.79.94-3.63,1.78-5.46,2.65-3.67,1.73-7.49,3.6-10.26,6.65-1.57,1.72-2.78,3.76-4.55,5.3a19.1,19.1,0,0,1-5.67,3c-4.61,1.85-8.83,4.54-13.19,6.91a34.39,34.39,0,0,0,5-1.36c2-.56,4-1.08,5.94-1.64a26.33,26.33,0,0,0,10.07-4.79c1.47-1.24,2.8-2.61,4.3-3.81.85-.67,1.72-1.31,2.58-2C298.7,123.64,302.75,120.31,306.86,117Z" transform="translate(0 -57.34)"/><path class="cls-15" d="M268.67,144.88q3.16,0,6.33,0a7.31,7.31,0,0,0-2.75-.48A31.79,31.79,0,0,0,268.67,144.88Z" transform="translate(0 -57.34)"/><path class="cls-15" d="M259.74,143.58a35.14,35.14,0,0,0-3.9-1.2,26.29,26.29,0,0,0-8.09-.89.16.16,0,0,1-.14-.25,24.18,24.18,0,0,1,7-6,26.62,26.62,0,0,0-5.49,2.14c-1.73.94-3.41,2.18-5.34,2.68-4.11,1.08-8.29-1.07-12.44-.54-.2,0-.21-.27,0-.33a97.59,97.59,0,0,0,13-5.47c-1.56.37-3.12.74-4.67,1.16-6.17,1.67-12.18,4-18.27,5.93,8.38,1.21,16.81,2.14,25.23,2.94,5.34.51,10.69.8,16,1C261.7,144.43,260.75,143.94,259.74,143.58Z" transform="translate(0 -57.34)"/><path class="cls-16" d="M323.32,98.62c-3.78,6.28-7.55,12.59-12.43,18.09C318.19,113.76,320.69,105.71,323.32,98.62Z" transform="translate(0 -57.34)"/><path class="cls-16" d="M334.94,121.65c-1.12,2.48-1.79,5.41-3.83,7.34-3.33,3.18-8.18,3.67-12.13,5.78,2.74.22,5.49-1,8-1.93,1.19-.46,2.41-.88,3.6-1.35a5.81,5.81,0,0,0,2.8-1.91,9.76,9.76,0,0,0,1.6-4.17,17,17,0,0,1,.78-4,21.82,21.82,0,0,1,3.55-5.19A16,16,0,0,0,334.94,121.65Z" transform="translate(0 -57.34)"/><path class="cls-16" d="M329.55,74.1A51.56,51.56,0,0,1,324,85.79a29.85,29.85,0,0,1-4.13,4.91A44.16,44.16,0,0,1,314.11,95a77,77,0,0,0-6.52,4.65,43.12,43.12,0,0,0-5,5.22,61.93,61.93,0,0,1-9.68,8.55c2.12-1.22,4.07-2.72,6.09-4.11,1.73-1.2,3.74-2.17,5.09-3.84a26.86,26.86,0,0,1,2-2.62,16,16,0,0,1,2.33-1.84c2.06-1.37,4.05-2.8,6-4.31a48.88,48.88,0,0,1,5.6-3.76,23.29,23.29,0,0,0,5.05-3.31c1.6-1.55,2.42-3.77,3.19-5.82a36.81,36.81,0,0,0,1.14-3.51c.33-1.27,0-2.47,0-3.75A20.63,20.63,0,0,1,329.55,74.1Z" transform="translate(0 -57.34)"/><path class="cls-17" d="M358.39,140.77a3.77,3.77,0,0,0-1.26.18.89.89,0,0,0,.34-.68c-.05-.44-.45-.42-.85-.28.53-.47,1-1.07.7-1.42a.51.51,0,0,0-.55,0,2.3,2.3,0,0,0,.05-1.34c-.21-.54-1.09-.43-1.5-.35a3.46,3.46,0,0,0-1.12.47c.26-.41.44-.87.19-1.1s-.84,0-1.19.36a.52.52,0,0,0-.14-.48c-.35-.32-.91.35-1.22.78,0-.74-.28-1.82-1.2-1.12a2.09,2.09,0,0,0-.7,1.14,1.84,1.84,0,0,0-.16-.45c-.41-.6-1.11.19-1.44.91,0-.21-.16-.36-.39-.26s-.47.69-.45,1.13c-.42-.39-1.27-1.05-1.44-.33a.69.69,0,0,0,0,.44,1.15,1.15,0,0,0-.27-.14.73.73,0,0,0-1,.32,1.48,1.48,0,0,0,.37,1.33c-.27,0-.54.12-.55.46a1.16,1.16,0,0,0,.12.47,1.63,1.63,0,0,0-1,.23c-1,.61-.53,1.64.31,2a.59.59,0,0,0-.17.41c0,.27.2.43.46.52-.68.24-1.32.77-.75,1.42.38.43,1,.25,1.57-.1a2.05,2.05,0,0,0-.15,1.06.72.72,0,0,0,.91.56,1,1,0,0,0,.47-.25.93.93,0,0,0,0,.33c.11.59.8-.07,1.15-.46a1,1,0,0,0,0,.17c0,.14.06.37.24.38a.81.81,0,0,0,.35.09,4.59,4.59,0,0,0,1.69-.43c.68-.25,6.58-2.06,6.81-2.17,1.24-.58-.09-1.09-.2-1.19,1.09,0,2.45-.5,2.69-1.57A.78.78,0,0,0,358.39,140.77Z" transform="translate(0 -57.34)"/><path class="cls-18" d="M356.85,141.45a.54.54,0,0,0-.46-.13.66.66,0,0,0,.05-.28c0-.38-.43-.57-.75-.61a1.45,1.45,0,0,0-.36,0,1.83,1.83,0,0,0,.5-1.18c0-.75-.68-1-1.29-.84a2.45,2.45,0,0,0-.87.56c0-.15.18-.87-.22-.78a1,1,0,0,0-.51.3,1.15,1.15,0,0,0-.23-.83c-.43-.5-1.2.08-1.47.44a.61.61,0,0,0-.07.1.73.73,0,0,0-.53-.43c-.37-.06-.56.17-.66.49-.12-.32-.45-1-.87-.82a1.31,1.31,0,0,0-.54,1.59.32.32,0,0,0-.37.15.54.54,0,0,0-.1.23,1,1,0,0,0-.34-.34c-.23-.13-.51-.19-.67.07l0,.09c-.33-.53-.86-1.05-1.14-.57s.16,1.53.75,1.88a.46.46,0,0,0-.36.35.77.77,0,0,0,.09.6.63.63,0,0,0-.3.05.24.24,0,0,0-.09.08,2.11,2.11,0,0,0-.4-.26.77.77,0,0,0-1.1.61c-.15.65.53,1.21,1,1.44a1.34,1.34,0,0,0,.52.14.66.66,0,0,0-.26.51c0,.3.52.31.71.3a.71.71,0,0,0,.25-.06c-.35.53-.68,1.16-.11,1.65.35.31.83-.1,1-.35a1.37,1.37,0,0,0,.19-.3.72.72,0,0,0,.58.53c.13,0,.22-.07.29-.21a.65.65,0,0,0,.2.43c.49.38.94,0,1.33-.38a3.08,3.08,0,0,0,.71-1.07,2.55,2.55,0,0,0,2.46.09,3,3,0,0,0,1.76-2,2.08,2.08,0,0,0,1.48-.5C356.9,142,357.05,141.67,356.85,141.45Z" transform="translate(0 -57.34)"/><path class="cls-19" d="M354.85,141c.19-.33.29-.69,0-.93s-.51,0-.7.36a1.78,1.78,0,0,0-.06-.51c-.06-.18-.22-.43-.44-.24a1.29,1.29,0,0,0-.39,1.12l-.22,0a1,1,0,0,0-.81.24,1.44,1.44,0,0,0,.17-.93.67.67,0,0,0-.8-.39,1.25,1.25,0,0,0-.43.22,2,2,0,0,0,0-.35c0-.24-.17-.85-.5-.86a.85.85,0,0,0-.7.59.73.73,0,0,0-.73-.07,1.15,1.15,0,0,0-.59.87,1.49,1.49,0,0,0,0,.42l-.1.07,0-.18a.91.91,0,0,0-.25-.46.49.49,0,0,0-.44-.13.77.77,0,0,0-.38.44c-.25-.55-.66-1.17-1-.72s.09.85.48,1.22h0a.43.43,0,0,0-.3.37.73.73,0,0,0,.22.48.64.64,0,0,0-.26.28.48.48,0,0,0,0,.18,2,2,0,0,0-.57-.17c-.37-.06-.82,0-.85.42s.53.71.88.78a1.33,1.33,0,0,0,.49,0,.67.67,0,0,0-.18.41c0,.3.2.4.47.33l.06,0a.79.79,0,0,0,.11,1.09c.42.34.95-.26,1.19-.54l.15-.22c0,.15.11.23.27.13a1,1,0,0,0,.32-.29,1.87,1.87,0,0,0,.08.32.78.78,0,0,0,1.08.47,1.49,1.49,0,0,0,.75-1.12,1.52,1.52,0,0,0,.69.47,1,1,0,0,0,1.12-.54,1.89,1.89,0,0,0,.13-1.13,1.17,1.17,0,0,0,.26,0,.67.67,0,0,0,.21.85c.41.26.93-.15,1.21-.42a1.51,1.51,0,0,0,.37-.7,1,1,0,0,0,.38-.07c.34-.13.83-.41.75-.86S355.31,140.73,354.85,141Z" transform="translate(0 -57.34)"/><path class="cls-20" d="M346.48,143.77s0,0,0,0S346.5,143.76,346.48,143.77Z" transform="translate(0 -57.34)"/><path class="cls-19" d="M352.34,138.21c-.25-.34-.67.12-.8.33a.73.73,0,0,0-.13.49.23.23,0,0,0,.14.28.48.48,0,0,0,.5-.15C352.25,139,352.54,138.49,352.34,138.21Z" transform="translate(0 -57.34)"/><path class="cls-19" d="M352.64,138.89l0,0h-.05a.26.26,0,0,0-.12.15s0,.14.06.12a.14.14,0,0,0,.11-.09A.15.15,0,0,0,352.64,138.89Z" transform="translate(0 -57.34)"/><path class="cls-19" d="M347.42,142.18a.52.52,0,0,0-.65-.05.37.37,0,0,0-.3.32c-.08.4.54.58.84.54S347.65,142.39,347.42,142.18Z" transform="translate(0 -57.34)"/><path class="cls-19" d="M345.36,144.14c-.16-.22-.49-.12-.71,0a1,1,0,0,0-.38.25.41.41,0,0,0-.16.19.25.25,0,0,0,0,.19.16.16,0,0,0,0,.08c.23.4.88.08,1.1-.18C345.35,144.52,345.47,144.29,345.36,144.14Z" transform="translate(0 -57.34)"/><path class="cls-19" d="M345.67,145.06a.19.19,0,0,0,0,.08c0,.1.1.09.16.05a.23.23,0,0,0,.07-.25C345.82,144.81,345.71,145,345.67,145.06Z" transform="translate(0 -57.34)"/><path class="cls-19" d="M355.29,138.74c-.37-.19-.91.23-1,.61,0,.14,0,.31.18.33a.83.83,0,0,0,.47-.05.86.86,0,0,0,.43-.39C355.45,139.08,355.47,138.83,355.29,138.74Z" transform="translate(0 -57.34)"/><path class="cls-17" d="M343.25,159a3.85,3.85,0,0,0-1.27.08.9.9,0,0,0,.4-.65c0-.44-.42-.45-.84-.34.57-.43,1.13-1,.82-1.36a.52.52,0,0,0-.55-.1,2.21,2.21,0,0,0,.15-1.33c-.17-.55-1-.51-1.47-.46a3.39,3.39,0,0,0-1.15.38c.3-.39.51-.83.28-1.08s-.84-.09-1.22.27a.49.49,0,0,0-.1-.49c-.33-.35-.93.27-1.27.68.05-.74-.15-1.84-1.12-1.21a2.23,2.23,0,0,0-.79,1.09,1.19,1.19,0,0,0-.12-.46c-.36-.64-1.11.1-1.5.79,0-.21-.13-.37-.37-.29s-.52.66-.53,1.09c-.39-.42-1.19-1.14-1.42-.44a.74.74,0,0,0,0,.44l-.26-.16a.73.73,0,0,0-1,.25,1.48,1.48,0,0,0,.27,1.36c-.28,0-.56.08-.59.41a1.15,1.15,0,0,0,.09.48,1.64,1.64,0,0,0-1,.15c-1.08.54-.66,1.6.15,2a.62.62,0,0,0-.2.39c0,.28.17.45.43.56-.71.19-1.38.67-.86,1.36.34.46,1,.33,1.56,0a2.14,2.14,0,0,0-.22,1.05.71.71,0,0,0,.86.62,1.16,1.16,0,0,0,.49-.21.75.75,0,0,0,0,.33c0,.6.8,0,1.17-.37a.92.92,0,0,0,0,.16c0,.14,0,.38.2.4a1,1,0,0,0,.34.12,4.29,4.29,0,0,0,1.72-.31c.7-.18,6.72-1.54,7-1.63,1.28-.48,0-1.1-.1-1.21,1.08.1,2.47-.31,2.79-1.35A.78.78,0,0,0,343.25,159Z" transform="translate(0 -57.34)"/><path class="cls-18" d="M341.66,159.6a.55.55,0,0,0-.44-.17.77.77,0,0,0,.07-.27c0-.38-.39-.6-.7-.66a1.51,1.51,0,0,0-.37,0,1.88,1.88,0,0,0,.6-1.14c.08-.74-.6-1-1.23-.93a2.31,2.31,0,0,0-.91.49c.05-.15.25-.86-.16-.79a1,1,0,0,0-.53.26,1.16,1.16,0,0,0-.16-.86c-.39-.52-1.21,0-1.51.33a.86.86,0,0,0-.07.1.68.68,0,0,0-.49-.47c-.36-.1-.58.13-.7.44-.1-.33-.37-1-.8-.89a1.32,1.32,0,0,0-.67,1.54c-.11,0-.24,0-.38.12a.57.57,0,0,0-.11.22,1,1,0,0,0-.32-.36c-.22-.15-.49-.23-.66,0a.19.19,0,0,0,0,.09c-.29-.56-.78-1.11-1.1-.66s0,1.54.6,1.94a.44.44,0,0,0-.38.32.73.73,0,0,0,0,.6.63.63,0,0,0-.3,0l-.1.07a2.06,2.06,0,0,0-.37-.29.77.77,0,0,0-1.15.53c-.2.63.44,1.24.92,1.51a1.64,1.64,0,0,0,.51.18.68.68,0,0,0-.3.49c0,.29.49.34.69.35a.73.73,0,0,0,.25,0c-.39.5-.76,1.1-.23,1.64.32.33.83,0,1.07-.27a1.12,1.12,0,0,0,.21-.29.7.7,0,0,0,.54.57c.13,0,.22-.05.3-.18a.68.68,0,0,0,.17.44c.47.42.94.06,1.36-.27a3.19,3.19,0,0,0,.79-1,2.55,2.55,0,0,0,2.45.28c.68-.22,1.78-1,1.9-1.88a2.08,2.08,0,0,0,1.51-.38C341.67,160.16,341.85,159.83,341.66,159.6Z" transform="translate(0 -57.34)"/><path class="cls-19" d="M339.71,159c.22-.31.34-.67.07-.93s-.52,0-.73.3a1.39,1.39,0,0,0,0-.5c0-.19-.18-.45-.42-.28a1.34,1.34,0,0,0-.47,1.09l-.21-.07a1,1,0,0,0-.83.18,1.45,1.45,0,0,0,.24-.92.67.67,0,0,0-.77-.44,1.12,1.12,0,0,0-.45.18,2,2,0,0,0,.06-.35c0-.23-.1-.86-.43-.89a.87.87,0,0,0-.75.53.69.69,0,0,0-.72-.12,1.11,1.11,0,0,0-.65.82,1.46,1.46,0,0,0,0,.42.24.24,0,0,0-.11.06c0-.06,0-.12,0-.18a.87.87,0,0,0-.21-.48.5.5,0,0,0-.43-.16.76.76,0,0,0-.41.4c-.21-.56-.57-1.21-.91-.79s0,.86.38,1.26h0a.44.44,0,0,0-.33.34.8.8,0,0,0,.19.5.67.67,0,0,0-.29.26.49.49,0,0,0-.06.17,2.25,2.25,0,0,0-.55-.21c-.37-.09-.82-.1-.88.35s.47.75.81.86a2,2,0,0,0,.5.06.59.59,0,0,0-.22.4c0,.29.17.4.44.36h.06a.78.78,0,0,0,0,1.09c.4.37,1-.19,1.23-.45.06-.07.11-.14.17-.2,0,.14.08.23.25.15a1,1,0,0,0,.34-.27,1.65,1.65,0,0,0,.06.32.79.79,0,0,0,1,.56,1.51,1.51,0,0,0,.83-1.07,1.47,1.47,0,0,0,.66.52.93.93,0,0,0,1.15-.44,1.89,1.89,0,0,0,.22-1.12,1.22,1.22,0,0,0,.26.06.65.65,0,0,0,.14.86c.39.29.94-.08,1.24-.32a1.65,1.65,0,0,0,.43-.67,1,1,0,0,0,.38,0c.35-.11.86-.35.81-.8S340.18,158.77,339.71,159Z" transform="translate(0 -57.34)"/><path class="cls-20" d="M331.15,161.12s0,0,0,0S331.16,161.12,331.15,161.12Z" transform="translate(0 -57.34)"/><path class="cls-19" d="M337.42,156c-.22-.37-.68.06-.83.26a.71.71,0,0,0-.16.48.25.25,0,0,0,.12.3.51.51,0,0,0,.51-.12C337.27,156.77,337.6,156.32,337.42,156Z" transform="translate(0 -57.34)"/><path class="cls-19" d="M337.66,156.72v0s0,0,0,0a.29.29,0,0,0-.13.14c0,.05,0,.14,0,.13a.15.15,0,0,0,.11-.08A.17.17,0,0,0,337.66,156.72Z" transform="translate(0 -57.34)"/><path class="cls-19" d="M332.2,159.6a.53.53,0,0,0-.64-.09.36.36,0,0,0-.32.29c-.12.4.49.62.79.6S332.42,159.83,332.2,159.6Z" transform="translate(0 -57.34)"/><path class="cls-19" d="M330,161.4c-.14-.23-.48-.16-.7-.09a1,1,0,0,0-.4.22.39.39,0,0,0-.18.18.31.31,0,0,0,0,.19.16.16,0,0,0,.05.08c.19.41.86.15,1.11-.09S330.1,161.56,330,161.4Z" transform="translate(0 -57.34)"/><path class="cls-19" d="M330.24,162.34l0,.08c0,.1.09.1.16.06a.23.23,0,0,0,.09-.24C330.41,162.11,330.28,162.26,330.24,162.34Z" transform="translate(0 -57.34)"/><path class="cls-19" d="M340.32,156.78c-.36-.22-.93.16-1,.53,0,.14,0,.31.15.35a.83.83,0,0,0,.47,0,.75.75,0,0,0,.45-.35C340.45,157.13,340.49,156.89,340.32,156.78Z" transform="translate(0 -57.34)"/><path class="cls-17" d="M305,142.3a3.61,3.61,0,0,0-1.25-.21c.28-.15.49-.33.53-.55.08-.43-.3-.53-.73-.52.65-.29,1.32-.71,1.1-1.14-.08-.16-.27-.22-.51-.22a2.11,2.11,0,0,0,.45-1.26c0-.57-.9-.74-1.32-.78a3.25,3.25,0,0,0-1.2.11c.37-.32.68-.69.51-1s-.79-.27-1.24,0a.5.5,0,0,0,0-.5c-.24-.41-1,.06-1.39.38.21-.72.28-1.83-.81-1.44a2.16,2.16,0,0,0-1,.88,1.42,1.42,0,0,0,0-.48c-.21-.7-1.11-.16-1.65.44,0-.22,0-.39-.29-.37s-.66.52-.77.94c-.29-.5-.89-1.38-1.28-.75a.76.76,0,0,0-.09.43,2.28,2.28,0,0,0-.22-.22.74.74,0,0,0-1,0,1.51,1.51,0,0,0-.05,1.39c-.27-.07-.56-.05-.67.27a1.06,1.06,0,0,0,0,.48,1.64,1.64,0,0,0-1-.08c-1.17.27-1,1.4-.31,2a.54.54,0,0,0,0,1c-.73,0-1.5.34-1.15,1.13.23.53.9.55,1.52.37a2.21,2.21,0,0,0-.46,1,.72.72,0,0,0,.7.8,1,1,0,0,0,.52-.1.82.82,0,0,0-.11.32c-.09.59.78.17,1.23-.1a.64.64,0,0,0-.06.16c0,.13-.06.37.11.43a.87.87,0,0,0,.3.2,4.47,4.47,0,0,0,1.75.09c.73,0,6.89,0,7.14,0,1.37-.18.26-1.07.18-1.2,1,.34,2.49.26,3-.68A.78.78,0,0,0,305,142.3Z" transform="translate(0 -57.34)"/><path class="cls-18" d="M303.28,142.48a.59.59,0,0,0-.4-.27A.51.51,0,0,0,303,142c.1-.37-.23-.68-.53-.81a2,2,0,0,0-.35-.09,1.82,1.82,0,0,0,.84-1c.26-.71-.34-1.17-1-1.19a2.27,2.27,0,0,0-1,.27c.09-.13.44-.78,0-.81a1,1,0,0,0-.58.13,1.14,1.14,0,0,0,0-.87c-.26-.6-1.17-.28-1.54,0l-.1.08a.67.67,0,0,0-.36-.57.57.57,0,0,0-.78.27c0-.34-.12-1.1-.58-1a1.31,1.31,0,0,0-1,1.35.33.33,0,0,0-.4,0,.58.58,0,0,0-.16.19,1.12,1.12,0,0,0-.23-.43c-.18-.19-.42-.33-.65-.13l-.06.08c-.15-.61-.5-1.26-.92-.89s-.31,1.51.15,2a.44.44,0,0,0-.45.23.74.74,0,0,0-.1.59.73.73,0,0,0-.3,0l-.11,0a2.11,2.11,0,0,0-.3-.37.77.77,0,0,0-1.24.25c-.34.57.14,1.31.56,1.69a1.51,1.51,0,0,0,.45.29.68.68,0,0,0-.41.4c-.08.29.4.45.6.5a.67.67,0,0,0,.25,0c-.5.4-1,.9-.61,1.55.24.39.83.15,1.11,0a1.18,1.18,0,0,0,.27-.23.7.7,0,0,0,.39.68c.12.06.23,0,.34-.11a.61.61,0,0,0,.07.47c.35.51.9.28,1.37.05a3.28,3.28,0,0,0,1-.81,2.56,2.56,0,0,0,2.32.83,3,3,0,0,0,2.28-1.4,2,2,0,0,0,1.56,0C303.15,143,303.41,142.75,303.28,142.48Z" transform="translate(0 -57.34)"/><path class="cls-19" d="M301.52,141.41c.29-.25.49-.57.29-.89s-.51-.11-.78.13a1.64,1.64,0,0,0,.09-.5c0-.19-.07-.47-.34-.36a1.32,1.32,0,0,0-.71,1l-.2-.11a1,1,0,0,0-.84,0,1.41,1.41,0,0,0,.44-.84c0-.33-.35-.6-.64-.6a1.27,1.27,0,0,0-.48.07,3.09,3.09,0,0,0,.14-.32c.07-.23.1-.87-.22-1a.86.86,0,0,0-.85.35.71.71,0,0,0-.67-.29,1.13,1.13,0,0,0-.82.65,1.33,1.33,0,0,0-.12.4l-.12,0,0-.18a1,1,0,0,0-.1-.52c-.05-.1-.25-.27-.38-.25a.8.8,0,0,0-.5.3c-.07-.6-.27-1.31-.7-1s-.17.84.08,1.31h0a.45.45,0,0,0-.4.26.41.41,0,0,1-.27.71.86.86,0,0,0-.1.16,2.17,2.17,0,0,0-.48-.34c-.34-.17-.78-.28-.94.15s.28.83.59,1a1.76,1.76,0,0,0,.47.18.57.57,0,0,0-.3.33c-.1.29.07.44.34.46h.06a.8.8,0,0,0-.22,1.07c.3.45,1,0,1.3-.16l.21-.16c0,.15,0,.25.22.21a1.06,1.06,0,0,0,.39-.18,1.13,1.13,0,0,0,0,.32.79.79,0,0,0,.89.78,1.53,1.53,0,0,0,1-.84,1.61,1.61,0,0,0,.51.65,1,1,0,0,0,1.23-.17,1.91,1.91,0,0,0,.47-1,1.34,1.34,0,0,0,.24.12.66.66,0,0,0-.06.87c.31.37.93.14,1.28,0a1.59,1.59,0,0,0,.57-.56,1,1,0,0,0,.38,0c.36,0,.92-.14,1-.59S302,141.33,301.52,141.41Z" transform="translate(0 -57.34)"/><path class="cls-20" d="M292.69,141.56s0,0,0,0S292.71,141.56,292.69,141.56Z" transform="translate(0 -57.34)"/><path class="cls-19" d="M300,138c-.13-.4-.68-.09-.87.07a.76.76,0,0,0-.27.43.26.26,0,0,0,.05.32.49.49,0,0,0,.52,0C299.65,138.72,300.08,138.36,300,138Z" transform="translate(0 -57.34)"/><path class="cls-19" d="M300,138.77s0,0,0,0,0,0,0,0a.19.19,0,0,0-.16.1s-.06.13,0,.14a.17.17,0,0,0,.12-.06S300.05,138.81,300,138.77Z" transform="translate(0 -57.34)"/><path class="cls-19" d="M294.07,140.32a.52.52,0,0,0-.6-.23.36.36,0,0,0-.39.2c-.2.37.34.73.63.77S294.23,140.6,294.07,140.32Z" transform="translate(0 -57.34)"/><path class="cls-19" d="M291.51,141.57c-.08-.25-.43-.26-.66-.25a1.16,1.16,0,0,0-.44.12.49.49,0,0,0-.22.14.31.31,0,0,0-.07.18.46.46,0,0,0,0,.09c.1.45.82.34,1.11.16C291.39,141.93,291.56,141.75,291.51,141.57Z" transform="translate(0 -57.34)"/><path class="cls-19" d="M291.53,142.55s0,0,0,.06.07.12.13.1a.24.24,0,0,0,.15-.22C291.74,142.35,291.59,142.48,291.53,142.55Z" transform="translate(0 -57.34)"/><path class="cls-19" d="M302.62,139.43c-.3-.3-.94-.06-1.12.28-.07.13-.09.3.07.37a.75.75,0,0,0,.46.09.73.73,0,0,0,.52-.24C302.67,139.8,302.76,139.57,302.62,139.43Z" transform="translate(0 -57.34)"/><path class="cls-6" d="M296.37,143.44c-1.48-5.15-7.35-6.75-12.08-6.86-5.24-.12-10.91,1.73-15.51,4.15a23.47,23.47,0,0,0-5.08,3.51c-.38.34-1.6,2.19-.51,2.51,2.06.62,4.75.33,6.9.34a53.38,53.38,0,0,1,8.46.81,14.17,14.17,0,0,0,3.18-.3c1.19-.14,2.38-.27,3.55-.47,2.9-.5,5.74-1.39,8.71-1.42.73,0,1.66-.21,1.9-1A1.3,1.3,0,0,0,296.37,143.44Z" transform="translate(0 -57.34)"/><path class="cls-7" d="M265.14,143.5a23.31,23.31,0,0,1,3-1.81,73.87,73.87,0,0,1,6.87-3,24.67,24.67,0,0,1,7.42-1.67c1.48-.08,2.95-.11,4.42-.19a23,23,0,0,0-2.57-.21c-5.24-.12-10.91,1.73-15.51,4.15a23.47,23.47,0,0,0-5.08,3.51,4.06,4.06,0,0,0-.8,1.24C263.72,144.91,264.33,144.09,265.14,143.5Z" transform="translate(0 -57.34)"/><path class="cls-8" d="M296.37,143.44c-1.19-4.14-5.23-6-9.23-6.61a23.94,23.94,0,0,0-1.88,3,6.62,6.62,0,0,1-1.65,2.5c-2,1.42-5.06,1.5-7.37,1.91-3.51.62-7,1.23-10.51,1.92-1.15.22-2.22.6-3,.08a.55.55,0,0,0,.43.47c2.06.62,4.75.33,6.9.34a53.38,53.38,0,0,1,8.46.81,14.17,14.17,0,0,0,3.18-.3c1.19-.14,2.38-.27,3.55-.47,2.9-.5,5.74-1.39,8.71-1.42.73,0,1.66-.21,1.9-1A1.3,1.3,0,0,0,296.37,143.44Z" transform="translate(0 -57.34)"/><path class="cls-8" d="M296.37,143.44c-1.19-4.14-5.23-6-9.23-6.61a23.94,23.94,0,0,0-1.88,3,15.55,15.55,0,0,1-.93,1.74c.29,1.84.59,3.69.86,5.53h.09c2.9-.5,5.74-1.39,8.71-1.42.73,0,1.66-.21,1.9-1A1.3,1.3,0,0,0,296.37,143.44Z" transform="translate(0 -57.34)"/><path class="cls-8" d="M287.39,144.67c-1-.95-2-1.91-3-2.79.28,1.76.57,3.51.82,5.26h.09c1.32-.23,2.62-.53,3.93-.8C288.61,145.76,288,145.23,287.39,144.67Z" transform="translate(0 -57.34)"/><path class="cls-6" d="M308.68,151.33c1.4-.43,3.4-1.28,2.39-2.58-.11-.14-.23-.27-.35-.41l-.37-.33a23.27,23.27,0,0,0-6.63-3.89,20.61,20.61,0,0,0-6-.77,11.13,11.13,0,0,0-6.83,3.78,3.74,3.74,0,0,0-1,2.72c0,1,1.58.79,2.12.79,4,0,7.95.5,11.93.59C305.5,151.26,307.09,151.33,308.68,151.33Z" transform="translate(0 -57.34)"/><path class="cls-7" d="M291.94,146.83c1.13-.86,2.32-2.15,3.8-2.38a38.51,38.51,0,0,1,8.32-.18l-.34-.15a20.61,20.61,0,0,0-6-.77,11.13,11.13,0,0,0-6.83,3.78,5.08,5.08,0,0,0-.78,1.32A13.09,13.09,0,0,1,291.94,146.83Z" transform="translate(0 -57.34)"/><path class="cls-8" d="M311.07,148.75c-.11-.14-.23-.27-.35-.41l-.37-.33a23,23,0,0,0-6-3.62,16.44,16.44,0,0,1,1.79,1.2.4.4,0,0,1-.08.64c-2.05.91-3.69,2-5.94,2.37a46.54,46.54,0,0,1-6.36.27c-.74,0-3.07.55-3.67,0a.47.47,0,0,0-.06-.09,3.57,3.57,0,0,0-.12,1.11c0,1,1.58.79,2.12.79,4,0,7.95.5,11.93.59,1.56,0,3.15.1,4.74.1C310.08,150.9,312.08,150.05,311.07,148.75Z" transform="translate(0 -57.34)"/><path class="cls-8" d="M311.07,148.75c-.11-.14-.23-.27-.35-.41l-.37-.33a23,23,0,0,0-6-3.62,16.44,16.44,0,0,1,1.79,1.2.4.4,0,0,1-.08.64l-.06,0a21.93,21.93,0,0,0,2.28,3.4c.39.47.78.93,1.16,1.42C310.67,150.6,311.91,149.83,311.07,148.75Z" transform="translate(0 -57.34)"/><path class="cls-8" d="M300.94,148.43l-.08,0c0,.41,0,.83,0,1.24s0,.94,0,1.41c.68,0,1.36.06,2,.08C302.25,150.29,301.6,149.36,300.94,148.43Z" transform="translate(0 -57.34)"/><path class="cls-6" d="M361.92,162.72a38.85,38.85,0,0,0-4.12-3.58l-2.19-.72a16.51,16.51,0,0,0-7.17-.19c-5.46.67-10.29,3.2-15.49,4.8a38.41,38.41,0,0,1-4.11.93c-.81.5-1.61,1-2.4,1.55s-1.72,1.1-2.52,1.74a4.58,4.58,0,0,0,1.73,1.41,7.7,7.7,0,0,1,1.36.21,16,16,0,0,0,4.21.33c2.32,0,4.6.12,6.92-.06a55.43,55.43,0,0,0,8-1.4c2.89-.65,5.17.28,7.94.84,2.32.46,4.78-.16,7-.74a9.67,9.67,0,0,0,4-2.09C364,164.72,362.94,163.73,361.92,162.72Z" transform="translate(0 -57.34)"/><path class="cls-7" d="M332.46,163.47A19.24,19.24,0,0,0,337,162.3c2.63-1,5.23-2.15,7.91-3a30.6,30.6,0,0,1,10.19-1.07,17.7,17.7,0,0,0-6.65-.05c-5.46.67-10.29,3.2-15.49,4.8-.67.2-1.36.38-2.07.53C331.4,163.55,331.93,163.53,332.46,163.47Z" transform="translate(0 -57.34)"/><path class="cls-8" d="M361.92,162.72a37.84,37.84,0,0,0-3.76-3.29,55.35,55.35,0,0,0-7,3c-2.16,1-4.24,2.59-6.6,3.12a18.29,18.29,0,0,1-7.25-.31c-2.75-.49-5.48-1.05-8.26-1.37l-.24.05c-.81.5-1.61,1-2.4,1.55s-1.72,1.1-2.52,1.74a4.58,4.58,0,0,0,1.73,1.41,7.7,7.7,0,0,1,1.36.21,16,16,0,0,0,4.21.33c2.32,0,4.6.12,6.92-.06a55.43,55.43,0,0,0,8-1.4c2.89-.65,5.17.28,7.94.84,2.32.46,4.78-.16,7-.74a9.67,9.67,0,0,0,4-2.09C364,164.72,362.94,163.73,361.92,162.72Z" transform="translate(0 -57.34)"/><path class="cls-8" d="M328.36,164.27c-.65.41-1.29.81-1.92,1.24-.84.57-1.72,1.1-2.52,1.74a4.58,4.58,0,0,0,1.73,1.41c.31,0,.62.07.92.12A41.85,41.85,0,0,0,328.36,164.27Z" transform="translate(0 -57.34)"/><path class="cls-8" d="M352.05,166.19c-.56-1.1-1.08-2.24-1.73-3.29-1.86,1-3.69,2.23-5.73,2.69a12.61,12.61,0,0,1-4.11.16l-.82,1.32c-.42.69-.87,1.36-1.29,2.05a58.38,58.38,0,0,0,7.76-1.38c2.63-.59,4.77.12,7.22.68A24.9,24.9,0,0,1,352.05,166.19Z" transform="translate(0 -57.34)"/><path class="cls-8" d="M359.47,164.89c.3,1,.63,2.08,1,3.12l.64-.17a9.67,9.67,0,0,0,4-2.09c-1.05-1-2.14-2-3.16-3a37.2,37.2,0,0,0-3.73-3.26A28.78,28.78,0,0,0,359.47,164.89Z" transform="translate(0 -57.34)"/><path class="cls-6" d="M366.63,143.27a4.89,4.89,0,0,0-2.86-3,16,16,0,0,0-2.07-1.4c-2-1.22-3.71-1-5.77-.35a13.9,13.9,0,0,0-5,3.62,35.46,35.46,0,0,1-3.15,2.9,2.13,2.13,0,0,0-.9,1.33c-.92,3.11,8.9,2.16,9.82,2.16a12.81,12.81,0,0,0,5.76-1.93,11.6,11.6,0,0,0,2.46-1.69c.52-.46,1-.33,1.46-.95A1,1,0,0,0,366.63,143.27Z" transform="translate(0 -57.34)"/><path class="cls-7" d="M350.5,143.7c1-1,1.73-2.11,2.7-3.07a13.11,13.11,0,0,1,3.11-2.22l-.38.11a13.9,13.9,0,0,0-5,3.62,35.46,35.46,0,0,1-3.15,2.9,2,2,0,0,0-.8,1.05A14.51,14.51,0,0,0,350.5,143.7Z" transform="translate(0 -57.34)"/><path class="cls-8" d="M366.63,143.27a4.89,4.89,0,0,0-2.86-3,16,16,0,0,0-2.07-1.4A5.49,5.49,0,0,0,358,138a26.59,26.59,0,0,0-1.18,4.19c-.24,1.14-.31,2.63-1.27,3.44s-2.48.76-3.58.88a18.11,18.11,0,0,1-5.13.38h0c.35,2.45,9,1.62,9.87,1.62a12.81,12.81,0,0,0,5.76-1.93,11.6,11.6,0,0,0,2.46-1.69c.52-.46,1-.33,1.46-.95A1,1,0,0,0,366.63,143.27Z" transform="translate(0 -57.34)"/><path class="cls-8" d="M357.73,138.89a32.16,32.16,0,0,0-.87,3.33,16.25,16.25,0,0,1-.54,2.38c-.18,1.33-.36,2.65-.57,4l1-.05a10.39,10.39,0,0,0,4.31-1.19C359.9,144.54,358.82,141.71,357.73,138.89Z" transform="translate(0 -57.34)"/><path class="cls-8" d="M366.34,144.06l.08-.1a1,1,0,0,0,.21-.69,4.89,4.89,0,0,0-2.86-3,16,16,0,0,0-2.07-1.4,5.45,5.45,0,0,0-3.37-.86A19.76,19.76,0,0,1,366.34,144.06Z" transform="translate(0 -57.34)"/><path class="cls-17" d="M285.53,159.1a3.39,3.39,0,0,0-1.25-.21,1,1,0,0,0,.53-.55c.08-.43-.3-.54-.73-.53.65-.28,1.32-.7,1.1-1.13-.08-.17-.27-.23-.51-.22a2.23,2.23,0,0,0,.45-1.26c0-.58-.9-.74-1.32-.79a3.53,3.53,0,0,0-1.21.11c.38-.31.69-.69.52-1s-.79-.27-1.24,0a.5.5,0,0,0,0-.5c-.24-.41-1,0-1.4.37.22-.71.29-1.82-.81-1.43a2.08,2.08,0,0,0-1,.88,1.42,1.42,0,0,0,0-.48c-.21-.7-1.11-.16-1.65.43,0-.21,0-.39-.3-.37s-.65.52-.76.94c-.29-.49-.89-1.38-1.28-.75a.77.77,0,0,0-.09.44,2.28,2.28,0,0,0-.22-.22.73.73,0,0,0-1,0,1.46,1.46,0,0,0-.05,1.38c-.27-.06-.56-.05-.67.27a1.1,1.1,0,0,0,0,.49,1.58,1.58,0,0,0-1-.09c-1.17.28-1,1.41-.31,2a.62.62,0,0,0-.29.34c-.09.26.06.47.29.64-.73,0-1.5.34-1.15,1.12.23.53.9.55,1.52.38a2.18,2.18,0,0,0-.46,1,.72.72,0,0,0,.7.81,1.14,1.14,0,0,0,.52-.1,1,1,0,0,0-.12.31c-.08.6.79.18,1.23-.09a1,1,0,0,0-.05.16c0,.13-.07.37.11.43a1,1,0,0,0,.3.2,4.63,4.63,0,0,0,1.74.09c.73,0,6.9,0,7.15,0,1.37-.18.25-1.08.18-1.2,1,.34,2.48.26,3-.68A.77.77,0,0,0,285.53,159.1Z" transform="translate(0 -57.34)"/><path class="cls-18" d="M283.85,159.28a.52.52,0,0,0-.39-.27.66.66,0,0,0,.13-.25c.09-.36-.24-.67-.53-.8a1.06,1.06,0,0,0-.35-.09,2,2,0,0,0,.84-1c.25-.7-.34-1.16-1-1.19a2.43,2.43,0,0,0-1,.28c.09-.14.44-.78,0-.81a.94.94,0,0,0-.58.13,1.15,1.15,0,0,0,0-.87c-.26-.6-1.17-.28-1.54,0l-.1.07a.68.68,0,0,0-.37-.57.58.58,0,0,0-.78.27c0-.34-.11-1.1-.57-1.05-.63.07-1,.73-1,1.36-.1-.08-.23-.08-.4,0a.73.73,0,0,0-.17.18,1,1,0,0,0-.22-.42c-.18-.19-.42-.33-.65-.13l-.06.07c-.15-.6-.5-1.25-.92-.89s-.31,1.51.14,2a.44.44,0,0,0-.44.22.71.71,0,0,0-.1.59.73.73,0,0,0-.3,0l-.12,0a2,2,0,0,0-.29-.36.77.77,0,0,0-1.24.25c-.34.57.14,1.3.55,1.68a1.32,1.32,0,0,0,.46.29.69.69,0,0,0-.41.41c-.08.28.4.45.59.5a1.1,1.1,0,0,0,.26,0c-.5.4-1,.9-.61,1.54.24.4.82.15,1.11,0a1.49,1.49,0,0,0,.27-.23.71.71,0,0,0,.39.68c.12.06.23,0,.34-.12a.68.68,0,0,0,.06.48c.36.51.9.27,1.38,0a3,3,0,0,0,1-.81,2.57,2.57,0,0,0,2.32.84,3,3,0,0,0,2.28-1.41,2,2,0,0,0,1.56,0C283.73,159.82,284,159.55,283.85,159.28Z" transform="translate(0 -57.34)"/><path class="cls-19" d="M282.1,158.21c.28-.26.49-.58.28-.89s-.5-.11-.78.13a1.44,1.44,0,0,0,.1-.5c0-.2-.07-.48-.34-.37a1.36,1.36,0,0,0-.72,1l-.19-.12a1,1,0,0,0-.84,0,1.36,1.36,0,0,0,.44-.83c0-.33-.35-.6-.65-.61a1.49,1.49,0,0,0-.47.07,2.37,2.37,0,0,0,.14-.32c.07-.22.09-.86-.22-1a.88.88,0,0,0-.85.35.69.69,0,0,0-.67-.28,1.15,1.15,0,0,0-.83.64,1.38,1.38,0,0,0-.11.41l-.13,0,0-.17a.93.93,0,0,0-.09-.52c-.05-.11-.26-.28-.38-.25a.74.74,0,0,0-.5.29c-.07-.59-.27-1.31-.7-1s-.17.84.08,1.3h0a.45.45,0,0,0-.4.26.73.73,0,0,0,.07.53.67.67,0,0,0-.34.19.56.56,0,0,0-.1.15,1.91,1.91,0,0,0-.49-.33c-.33-.17-.77-.28-.93.14s.28.84.59,1a1.5,1.5,0,0,0,.46.17.65.65,0,0,0-.29.34c-.11.28.07.44.34.46h.06a.79.79,0,0,0-.23,1.07c.31.46,1,.05,1.3-.16a1.7,1.7,0,0,0,.22-.15c0,.15,0,.24.21.2a.93.93,0,0,0,.39-.18,1.82,1.82,0,0,0,0,.33.78.78,0,0,0,.88.78,1.53,1.53,0,0,0,1.06-.85,1.42,1.42,0,0,0,.51.65.94.94,0,0,0,1.23-.16,1.91,1.91,0,0,0,.47-1.05l.24.13a.64.64,0,0,0-.06.86c.31.38.93.14,1.28,0a1.64,1.64,0,0,0,.57-.55,1.2,1.2,0,0,0,.38.05c.36,0,.92-.15,1-.6S282.6,158.13,282.1,158.21Z" transform="translate(0 -57.34)"/><path class="cls-20" d="M273.27,158.35s0,0,0,0S273.29,158.35,273.27,158.35Z" transform="translate(0 -57.34)"/><path class="cls-19" d="M280.55,154.83c-.13-.4-.68-.09-.87.07a.71.71,0,0,0-.27.43.24.24,0,0,0,0,.31.51.51,0,0,0,.52,0C280.23,155.52,280.65,155.15,280.55,154.83Z" transform="translate(0 -57.34)"/><path class="cls-19" d="M280.62,155.56v0l-.05,0a.25.25,0,0,0-.15.1c0,.05-.07.14,0,.14a.14.14,0,0,0,.12-.06S280.63,155.61,280.62,155.56Z" transform="translate(0 -57.34)"/><path class="cls-19" d="M274.64,157.12a.53.53,0,0,0-.6-.24.37.37,0,0,0-.38.21c-.2.36.34.72.63.77S274.8,157.39,274.64,157.12Z" transform="translate(0 -57.34)"/><path class="cls-19" d="M272.09,158.37c-.08-.26-.44-.27-.66-.25a1.16,1.16,0,0,0-.45.12.43.43,0,0,0-.21.14.31.31,0,0,0-.07.17.29.29,0,0,0,0,.1c.1.44.81.34,1.1.16S272.14,158.54,272.09,158.37Z" transform="translate(0 -57.34)"/><path class="cls-19" d="M272.11,159.34a.18.18,0,0,0-.05.07c0,.09.07.11.13.1a.25.25,0,0,0,.15-.22C272.32,159.15,272.16,159.27,272.11,159.34Z" transform="translate(0 -57.34)"/><path class="cls-19" d="M283.19,156.22c-.29-.29-.94-.06-1.11.28-.07.14-.09.31.06.38a.85.85,0,0,0,.46.09.75.75,0,0,0,.53-.24C283.24,156.6,283.34,156.37,283.19,156.22Z" transform="translate(0 -57.34)"/><path class="cls-6" d="M301.86,158.48a28,28,0,0,0-6.43-3.09,40,40,0,0,0-7.87-1.64c-1.08.3-2.16.61-3.22,1a45.82,45.82,0,0,0-8.11,3.82c-1.79,1-3.65,2-5.35,3.16,1.56,1.78,3.26,3.43,5,5.05a102,102,0,0,0,11.38,2.05c2.68.33,5.37.56,8.07.63l1.05,0,1.43-1.25c.31-.43.62-.85.92-1.28q2.23-3.16,4.18-6.51l.52-.89Z" transform="translate(0 -57.34)"/><path class="cls-8" d="M301.86,158.48a28,28,0,0,0-6.43-3.09,38.83,38.83,0,0,0-6.64-1.48l.09.06c1.29,1.09,2.36,2.39,3.54,3.6.46.47,1.55,1.36,1.16,2.14-.18.36-.78.59-1.12.75s-.91.4-1.35.65a31.22,31.22,0,0,1-5,2.54,9.12,9.12,0,0,1-4.78.18c-1.9-.37-3.79-.87-5.69-1.25-1.5-.3-3-.37-4.55-.64,1.5,1.69,3.12,3.27,4.77,4.81a102,102,0,0,0,11.38,2.05c2.68.33,5.37.56,8.07.63l1.05,0,1.43-1.25c.31-.43.62-.85.92-1.28q2.23-3.16,4.18-6.51l.52-.89Z" transform="translate(0 -57.34)"/><path class="cls-8" d="M277.29,166.77c-1.48-1.06-3.24-2-4.7-3.23,1.06,1.1,2.16,2.17,3.28,3.21.69.17,1.39.32,2.08.47Z" transform="translate(0 -57.34)"/><path class="cls-8" d="M301.86,158.48a28,28,0,0,0-6.43-3.09,36.38,36.38,0,0,0-4.68-1.17c1.05.86,2.24,1.58,3.31,2.37.88.66,1.7,1.39,2.53,2.1a18.22,18.22,0,0,1,2.38,2.88.16.16,0,0,1-.16.26,16.72,16.72,0,0,1-3.15-1.48c-.58-.27-1.19-.52-1.79-.78.43.41.86.81,1.3,1.2.71.61,1.83,1.07,2.35,1.86s-1.74,5.33-1.82,5.3c-2-.69-3.78-1.81-5.78-2.48-1.37-.47-2.75-.9-4.07-1.46.56.34,1.15.65,1.73,1,1.11.63,2.14,1.37,3.25,2,1.47.82,2.95,1.67,4.46,2.46h0l1.05,0,1.43-1.25c.31-.43.62-.85.92-1.28q2.23-3.16,4.18-6.51l.52-.89Z" transform="translate(0 -57.34)"/><path class="cls-21" d="M272.36,162.34c1.73.79,3.68.7,5.56.88a12.25,12.25,0,0,0-1.34-.42,26,26,0,0,1-4.17-1.14.16.16,0,0,1,0-.28c1.94-.87,3.78-1.93,5.64-2.94s3.57-1.72,5.34-2.62c.84-.42,1.68-.88,2.56-1.22a4.08,4.08,0,0,1,1.93-.44c1.2.19,1.9,1.25,2.89,1.84a8.76,8.76,0,0,0-2.4-2.15l-.81-.1c-1.08.3-2.16.61-3.22,1a45.82,45.82,0,0,0-8.11,3.82c-1.79,1-3.65,2-5.35,3.16.79.9,1.62,1.77,2.46,2.61-.39-.58-.8-1.17-1.2-1.75C272,162.42,272.23,162.28,272.36,162.34Z" transform="translate(0 -57.34)"/><path class="cls-6" d="M319.29,161.86a17.57,17.57,0,0,0-3.52-2.73,24.51,24.51,0,0,0-4.6-2c-.7,0-1.4.09-2.1.16a28.5,28.5,0,0,0-5.46,1.28c-1.23.38-2.5.73-3.69,1.22a40.85,40.85,0,0,0,2.38,3.75,61.67,61.67,0,0,0,6.68,2.75c1.6.55,3.22,1.05,4.86,1.45l.63.15,1-.58.73-.66q1.78-1.65,3.42-3.43c.14-.16.29-.32.44-.47C319.84,162.42,319.57,162.14,319.29,161.86Z" transform="translate(0 -57.34)"/><path class="cls-8" d="M319.29,161.86a17.57,17.57,0,0,0-3.52-2.73,24.22,24.22,0,0,0-3.87-1.79l.05.06c.64.83,1.12,1.77,1.69,2.66.22.35.77,1,.42,1.46-.16.2-.55.26-.78.32s-.61.12-.91.21a19.27,19.27,0,0,1-3.39.9,5.66,5.66,0,0,1-3-.52c-1.12-.47-2.2-1-3.31-1.51-.88-.38-1.82-.63-2.7-1,.69,1.23,1.47,2.41,2.28,3.57a61.67,61.67,0,0,0,6.68,2.75c1.6.55,3.22,1.05,4.86,1.45l.63.15,1-.58.73-.66q1.78-1.65,3.42-3.43c.14-.16.29-.32.44-.47C319.84,162.42,319.57,162.14,319.29,161.86Z" transform="translate(0 -57.34)"/><path class="cls-8" d="M303.16,163.69c-.76-.83-1.71-1.65-2.44-2.59.5.82,1,1.61,1.58,2.4l1.2.56Z" transform="translate(0 -57.34)"/><path class="cls-8" d="M319.29,161.86a17.57,17.57,0,0,0-3.52-2.73,21.92,21.92,0,0,0-2.71-1.33c.53.66,1.16,1.25,1.71,1.88s.86,1.07,1.27,1.62a11.59,11.59,0,0,1,1.07,2.07c0,.09,0,.19-.13.14a10.42,10.42,0,0,1-1.73-1.32c-.32-.24-.66-.48-1-.71.21.3.42.61.64.9.34.47,1,.89,1.18,1.45s-1.77,3-1.81,3c-1.13-.69-2.07-1.6-3.21-2.28-.77-.46-1.56-.91-2.29-1.43.29.29.61.55.93.83.59.53,1.12,1.12,1.72,1.65.79.7,1.58,1.41,2.39,2.09h0l.63.15,1-.58.73-.66q1.78-1.65,3.42-3.43c.14-.16.29-.32.44-.47C319.84,162.42,319.57,162.14,319.29,161.86Z" transform="translate(0 -57.34)"/><path class="cls-22" d="M300.73,160.34a10.76,10.76,0,0,0,3.29,1.27,8.31,8.31,0,0,0-.76-.44,16,16,0,0,1-2.4-1.24.1.1,0,0,1,0-.17c1.31-.28,2.57-.68,3.85-1.06s2.4-.58,3.6-.89a15.48,15.48,0,0,1,1.73-.41,2.48,2.48,0,0,1,1.24,0c.71.27,1,1,1.53,1.5a5.85,5.85,0,0,0-1.19-1.63l-.48-.16c-.7,0-1.4.09-2.1.16a28.5,28.5,0,0,0-5.46,1.28c-1.23.38-2.5.73-3.69,1.22.36.66.75,1.3,1.15,1.93-.16-.42-.33-.83-.5-1.24C300.53,160.34,300.66,160.29,300.73,160.34Z" transform="translate(0 -57.34)"/><path class="cls-6" d="M311.63,170.22c1.4-.43,3.41-1.28,2.4-2.58-.11-.14-.24-.27-.36-.41l-.36-.34a23.67,23.67,0,0,0-6.64-3.88,20.57,20.57,0,0,0-6-.77,11.11,11.11,0,0,0-6.83,3.78,3.78,3.78,0,0,0-1,2.71c.05,1,1.58.79,2.13.79,4,0,7.94.51,11.93.6C308.46,170.15,310.05,170.22,311.63,170.22Z" transform="translate(0 -57.34)"/><path class="cls-7" d="M294.89,165.72c1.14-.86,2.32-2.15,3.8-2.38a38,38,0,0,1,8.33-.18l-.35-.15a20.57,20.57,0,0,0-6-.77,11.11,11.11,0,0,0-6.83,3.78,4.77,4.77,0,0,0-.78,1.32A13.67,13.67,0,0,1,294.89,165.72Z" transform="translate(0 -57.34)"/><path class="cls-8" d="M314,167.64c-.11-.14-.24-.27-.36-.41l-.36-.34a22.78,22.78,0,0,0-6-3.61,15.64,15.64,0,0,1,1.8,1.2.41.41,0,0,1-.09.64c-2,.91-3.68,2-5.93,2.37a46.54,46.54,0,0,1-6.36.27c-.74,0-3.08.55-3.67,0a.24.24,0,0,1-.06-.08,3.5,3.5,0,0,0-.13,1.1c.05,1,1.58.79,2.13.79,4,0,7.94.51,11.93.6,1.56,0,3.15.1,4.73.1C313,169.79,315,168.94,314,167.64Z" transform="translate(0 -57.34)"/><path class="cls-8" d="M314,167.64c-.11-.14-.24-.27-.36-.41l-.36-.34a22.78,22.78,0,0,0-6-3.61,15.64,15.64,0,0,1,1.8,1.2.41.41,0,0,1-.09.64l-.06,0a21.43,21.43,0,0,0,2.29,3.39c.38.47.78.94,1.15,1.42C313.62,169.49,314.86,168.72,314,167.64Z" transform="translate(0 -57.34)"/><path class="cls-8" d="M303.89,167.32l-.07,0c0,.41,0,.83,0,1.24V170q1,.06,2,.09C305.2,169.18,304.55,168.24,303.89,167.32Z" transform="translate(0 -57.34)"/><path class="cls-5" d="M332.48,151.33c-4-.32-7.9-1.31-11.89-1.53a26.3,26.3,0,0,0-6.57.42c-2.16.42-4.58,1.47-6.77,1.32-.05,0-.14.14-.06.15,1.86.34,3.68-.42,5.51-.73a34.89,34.89,0,0,1,6.45-.62c4.46.07,8.78,1.25,13.27,1.12C332.47,151.46,332.54,151.33,332.48,151.33Z" transform="translate(0 -57.34)"/><path class="cls-5" d="M372.7,149.61c-3.9-.3-7.85-.76-11.75-.8s-7.85,1-11.67,1.83c-.06,0-.14.16-.06.14,1.95-.26,3.89-.59,5.84-.82,1.74-.2,3.51-.26,5.24-.49a29,29,0,0,1,5.65.32,51,51,0,0,0,6.66,0C372.68,149.78,372.79,149.61,372.7,149.61Z" transform="translate(0 -57.34)"/><g class="cls-23"><path class="cls-24" d="M242.83,112.6c-4-.36-8-1.08-12.05-.75s-8.12,1.22-12.24,1.26c0,0-.1.1,0,.11,3.87.28,7.68-.33,11.51-.78,4.23-.5,8.48.2,12.71.38C242.81,112.83,242.94,112.61,242.83,112.6Z" transform="translate(0 -57.34)"/><path class="cls-24" d="M267.49,110.75c-4.76-.12-9.5-.66-14.23,0,0,0-.13.12,0,.12,4.69.09,9.53.36,14.22.09C267.51,110.93,267.61,110.75,267.49,110.75Z" transform="translate(0 -57.34)"/><path class="cls-24" d="M288,104.07c-6.69-.3-13.66-.27-19.84,2.76-.09,0-.17.3,0,.24a65.17,65.17,0,0,1,9.17-2.33c3.51-.68,7.08-.48,10.64-.58C288,104.16,288.07,104.07,288,104.07Z" transform="translate(0 -57.34)"/><path class="cls-24" d="M202.44,127.3a46.84,46.84,0,0,1-8.35-.86c-2.34-.5-4.56-1.38-6.93-1.79-2-.35-4.26.45-6.2.92-.69.17-8.19,2-8.2,1.76,0,0-.09,0-.09,0v.09a0,0,0,0,0,0,0,27.19,27.19,0,0,0,6.31-1c2.61-.59,5.66-1.66,8.34-1.2,2.39.41,4.65,1.35,7,1.81a35.17,35.17,0,0,0,8,.35S202.51,127.3,202.44,127.3Z" transform="translate(0 -57.34)"/><path class="cls-24" d="M224.58,130.74c-2.16,0-4.3.42-6.47.41a42.26,42.26,0,0,1-7.52-.94,18.67,18.67,0,0,0-6.78.36c-1.21.22-2.41.46-3.64.65a12.66,12.66,0,0,1-3.81.45s-.1.07-.05.09c1.77.52,4.36-.24,6.15-.49,2.94-.42,5.41-1,8.39-.42a51.1,51.1,0,0,0,6.52.78,39.2,39.2,0,0,0,7.16-.76C224.58,130.86,224.66,130.74,224.58,130.74Z" transform="translate(0 -57.34)"/><path class="cls-24" d="M265.08,119.22a10.82,10.82,0,0,1-2.54-.06c-1.27,0-2.55,0-3.82-.13a46.93,46.93,0,0,0-5.93.15,15.79,15.79,0,0,0-4.92,1.69,34.06,34.06,0,0,1-7.14,1.77h-.1c-3-.39-5.8.29-8.76.63-.07,0-.17.18-.06.17a55,55,0,0,1,9.52-.05,49.86,49.86,0,0,0,10.07.46s.08-.09,0-.09a64.75,64.75,0,0,1-9.9-1,43.26,43.26,0,0,0,5.22-1c2.12-.54,4-1.79,6.25-1.93s4.46-.18,6.73-.17c1.26,0,2.53-.06,3.79-.11a3.4,3.4,0,0,0,1.56-.25S265.15,119.2,265.08,119.22Z" transform="translate(0 -57.34)"/></g><g class="cls-25"><path class="cls-12" d="M52.55,169.32c-4,0-8-.13-12-.16-4.33,0-8.56-.73-12.87-1.17-3.35-.35-6.7-1-10.08-.77A119.06,119.06,0,0,0,5.43,168.7s0,0,0,0c3.79-.41,7.64-.77,11.45-.92a81.48,81.48,0,0,1,11.77.88,84.36,84.36,0,0,0,11.1.93q6.39-.13,12.78-.2S52.61,169.32,52.55,169.32Z" transform="translate(0 -57.34)"/><path class="cls-12" d="M33.31,120.28c-1-.29-2-.67-3-1a21.63,21.63,0,0,0-3.19-.61c-2.32-.53-4.58-1.4-6.9-2a23.25,23.25,0,0,0-7.69-.74c-1.22.1-2.41.34-3.62.43-.65,0-2.45.8-2.9.39,0,0-.15.07-.1.12.27.28.39.15.83.08,1.26-.22,2.55-.33,3.82-.48a21.56,21.56,0,0,1,8.72.62c2.37.67,4.75,1.3,7.11,2,1,.31,2.08.27,3.11.53,1.24.31,2.43.69,3.7.88C33.28,120.52,33.43,120.32,33.31,120.28Z" transform="translate(0 -57.34)"/><path class="cls-12" d="M122.78,142.85c-5.53-.92-10.72-2.9-16.2-4-2.75-.54-5.36-1.25-8.17-1.58-1.24-.14-2.51-.19-3.76-.28A23.61,23.61,0,0,1,90,136.7c-.07,0-.17.11-.09.14a8.33,8.33,0,0,0,2.68.45c1.48.06,2.92.35,4.39.39,3.21.09,6.21,1.08,9.31,1.75,5.49,1.17,10.7,3.44,16.39,3.71C122.76,143.15,122.93,142.88,122.78,142.85Z" transform="translate(0 -57.34)"/><path class="cls-12" d="M22.91,140.73c-3.66-.7-7-2.47-10.53-3.58a35.88,35.88,0,0,0-5-1.13,16.18,16.18,0,0,0-2.31-.11c-1,0-2.41.15-3.27-.3,0,0,0,0,0,0,.92.67,2.61.61,3.7.67a40.41,40.41,0,0,1,6.05,1.27c3.84.83,7.17,3.34,11.22,3.42C22.89,141,23.06,140.76,22.91,140.73Z" transform="translate(0 -57.34)"/><path class="cls-12" d="M141.88,166.57c-5.27.09-10.57-.9-15.82-1.35a48.88,48.88,0,0,0-7-.33,29.79,29.79,0,0,0-3.5.73c-.63.11-1.43.68-2.07.56-.07,0-.18.12-.09.15a2.6,2.6,0,0,0,1.23-.18,30.8,30.8,0,0,1,3.17-.68c2.82-.4,5.62.16,8.41.42s5.44.45,8.12.92a19.76,19.76,0,0,0,7.43.09C141.92,166.87,142.09,166.57,141.88,166.57Z" transform="translate(0 -57.34)"/></g><path class="cls-5" d="M121.29,163a.17.17,0,0,1,0-.33,80.51,80.51,0,0,0,9.31-1.15,49.08,49.08,0,0,1-5.25-.73.17.17,0,0,1,0-.32c5-1.47,10.19-1.85,15.33-2.48-4.1-2-8.57-3-12.9-4.42-4.63-1.49-9.26-3.17-14.09-3.88s-9.58.19-14.42.85a36.3,36.3,0,0,1-6.67.43c-2.27-.11-4.5-.62-6.76-.92a113.57,113.57,0,0,0-16.79-1,64.86,64.86,0,0,0-8.36.44,46.85,46.85,0,0,0-7.1,1.74c-2.31.72-4.61,1.51-7,2.06a35.26,35.26,0,0,1-7.53.85c-1.67,0-3.34.06-5,.17A25.11,25.11,0,0,1,27,155.72a84.6,84.6,0,0,0-10.36,1.77,58.61,58.61,0,0,0-6.08,1.76A31.26,31.26,0,0,0,5,161.68c-.41.25-1.37.83-.78,1.39a5.64,5.64,0,0,0,2.31,1.11,38.14,38.14,0,0,0,6.43,1.29c11,1.33,22,1.19,33.08,1.44,2.79.07,5.58.15,8.37.3a56.43,56.43,0,0,0,8.11.33c2.58-.25,5.09-.94,7.65-1.3a20.5,20.5,0,0,1,6.94.27,53.41,53.41,0,0,0,7.62,1.38c2.73.14,5.45.29,8.19.28,5.55,0,11.09-.29,16.64-.39,11.06-.2,22.12-.12,33.16.44-2.93-2.33-6.89-2.95-10.52-3.39S124.74,164.25,121.29,163Z" transform="translate(0 -57.34)"/><path class="cls-12" d="M114.47,158.26c-3.25-1.66-6.09-3.12-8-6.31s-3.2-6.32-6.14-8.69a42.31,42.31,0,0,1-7.5-7.86,55.22,55.22,0,0,1-6.27-10.1,24,24,0,0,1-1.2-3.42,32.78,32.78,0,0,0-3.1-4.35,11.33,11.33,0,0,1-2.11-3.23,17.62,17.62,0,0,1-.78-5.1c0-1.23,0-2.76-.9-3.71-1.3-1.32-3.42-1.79-5.14-2.31a30.15,30.15,0,0,0-5.5-1.46c-.93-.11-1.61-1.29-1.81-2.1s.06-1.56-.31-2.19a6.24,6.24,0,0,0-2-1.81,27.3,27.3,0,0,0-4.62-2.69,14.5,14.5,0,0,0-2-.66c-1.94,0-3.87,0-5.81-.07a56.52,56.52,0,0,0-8.64.61c-5,1.14-9.89,2.76-15,3.23a6.25,6.25,0,0,0-1.08,2.3c-.11.35-.2.7-.3,1.06a58.59,58.59,0,0,1-.84,9.8c-1.12,6.7-2.49,13.34-3.52,20.07C20.07,141.2,17.12,153,9.27,162.53c4.32,2.13,9.89,1.8,14.57,1.66,3.86-.11,7.7-.31,11.57-.16,5.41.2,10.82.71,16.25.64,10.25-.12,19.89-4.34,30.19-4,9.52.3,19,2.38,28.51,2a51.53,51.53,0,0,0,8.58-1A16,16,0,0,0,114.47,158.26Z" transform="translate(0 -57.34)"/><path class="cls-16" d="M36,99.25c-.53.28-1.24.58-1,1.3A19.76,19.76,0,0,0,36.17,103a12.85,12.85,0,0,1,1.09,5.11,41.58,41.58,0,0,1-.43,6.87,58.87,58.87,0,0,0-.74,7.61,59.66,59.66,0,0,0,.29,7.56c.27,2.53.78,5,1,7.58.26,2.87.35,5.75.36,8.64a90.42,90.42,0,0,0,.78-12.72c-.22-4.65-1.4-9.3-.79-14,.63-4.91,2.27-10.11.64-15-.33-1-.76-1.94-1.06-2.94a1.74,1.74,0,0,1,0-1.23,7.49,7.49,0,0,1,1.58-2,9.93,9.93,0,0,0,1.44-1.82,19.44,19.44,0,0,0-1.67,1A27.55,27.55,0,0,1,36,99.25Z" transform="translate(0 -57.34)"/><path class="cls-16" d="M49.14,103.51c-.31-1.3-.63-2.59-1-3.87,1,7.81,1.16,15.72,2.1,23.54a40.09,40.09,0,0,0,.35-12.93C50.25,108,49.66,105.74,49.14,103.51Z" transform="translate(0 -57.34)"/><path class="cls-16" d="M67.79,123.17c.1,3,0,6,.08,9,.55-3.07,1.33-6.16,1.09-9.29-.19-2.31-.85-4.58-1-6.88A38.39,38.39,0,0,0,67.79,123.17Z" transform="translate(0 -57.34)"/><path class="cls-16" d="M63.75,123.69a9.78,9.78,0,0,1-.52-3.86c.11-1.4.32-2.8.37-4.2a6.7,6.7,0,0,0-.81-4.13A22.38,22.38,0,0,1,60.94,109c.21,1.47.47,2.93.71,4.4A22.14,22.14,0,0,1,62,118a33.67,33.67,0,0,0-.11,4.49c.27,3,1.73,5.66,2.1,8.62.29,2.36.44,4.75.87,7.09-.18-3.12-.14-6.24-.28-9.35A19.62,19.62,0,0,0,63.75,123.69Z" transform="translate(0 -57.34)"/><path class="cls-16" d="M17.43,148.33a19.78,19.78,0,0,0,2.54-3.5,22.65,22.65,0,0,0,1.74-7.22c.27-2.29.5-4.59.89-6.87.85-4.88,2.18-9.67,3-14.55.45-2.51.66-5,1-7.53a25.31,25.31,0,0,0,.21-7.42,7,7,0,0,1-.09-3,9.38,9.38,0,0,1,.68-1.6l.31-.6h-.09a6.25,6.25,0,0,0-1.08,2.3c-.11.35-.2.7-.3,1.06a58.59,58.59,0,0,1-.84,9.8c-1.12,6.7-2.49,13.34-3.52,20.07a94.08,94.08,0,0,1-4.73,19.41Z" transform="translate(0 -57.34)"/><path class="cls-26" d="M114.47,158.26c-3.25-1.66-6.09-3.12-8-6.31s-3.2-6.32-6.14-8.69a42.31,42.31,0,0,1-7.5-7.86,55.22,55.22,0,0,1-6.27-10.1,24,24,0,0,1-1.2-3.42,32.78,32.78,0,0,0-3.1-4.35,11.33,11.33,0,0,1-2.11-3.23,17.62,17.62,0,0,1-.78-5.1c0-1.23,0-2.76-.9-3.71-1.3-1.32-3.42-1.79-5.14-2.31a30.15,30.15,0,0,0-5.5-1.46c-.93-.11-1.61-1.29-1.81-2.1s.06-1.56-.31-2.19a6.24,6.24,0,0,0-2-1.81,27.3,27.3,0,0,0-4.62-2.69,14.5,14.5,0,0,0-2-.66c-1.94,0-3.87,0-5.81-.07a56.52,56.52,0,0,0-8.64.61c-5,1.14-9.89,2.76-15,3.23a6.25,6.25,0,0,0-1.08,2.3c-.11.35-.2.7-.3,1.06,0,.72,0,1.43,0,2.15a13.39,13.39,0,0,1,1.57-2.75.16.16,0,0,1,.25,0,15.15,15.15,0,0,1,2.29,3.77c1.56,3.75,1.57,7.86,1.24,11.84-.18,2.27-.45,4.52-.46,6.8,0,2.56.12,5.11.23,7.66a34.84,34.84,0,0,1-.1,7.22,35.61,35.61,0,0,1-2.13,6.81c-.88,2.27-1.52,4.59-2.32,6.88s-1.74,4.61-2.68,6.89c-.06.15-.32.15-.31,0,.12-2.77.25-5.54.58-8.29-1,3.76-2.23,7.79-5.27,10.26-1.62,1.31-3.74,1.77-5.47,2.9a26.84,26.84,0,0,1-2.83,1.7c4.06,1.43,8.9,1.16,13,1,3.86-.11,7.7-.31,11.57-.16,5.41.2,10.82.71,16.25.64,10.25-.12,19.89-4.34,30.19-4,9.52.3,19,2.38,28.51,2a51.53,51.53,0,0,0,8.58-1A16,16,0,0,0,114.47,158.26Zm-58.71-40a29.52,29.52,0,0,1-5.36,10.25.16.16,0,0,1-.27-.07,57.32,57.32,0,0,1-2.07-11.19c0,3.53,0,7.07-.09,10.61-.08,4.28,0,8.73-.88,12.94A20.38,20.38,0,0,1,45,146.6c-.84,1.45-1.7,2.89-2.5,4.37-1.49,2.75-3.05,6-5.74,7.8-.08,0-.22,0-.23-.09a93,93,0,0,1-.7-13.86c0-2.35,0-4.7,0-7s-.28-4.39-.5-6.58-.42-4.48-.42-6.73.25-4.47.46-6.69c.13-1.45.27-2.89.4-4.33,0-1,0-2.06.07-3.09a19.39,19.39,0,0,0-.66-6.83c-.69-1.9-2.24-3.32-2.88-5.23a.14.14,0,0,1,.07-.18,33.44,33.44,0,0,1,6.93-2.84,13.29,13.29,0,0,1,5.17-.44A2,2,0,0,1,46,96.22a16.1,16.1,0,0,1,.57,2.3,24.83,24.83,0,0,1,0-3.11.15.15,0,0,1,.16-.16c1.51.11,3,.09,4.53.29,1.25.17,2.76.43,3.62,1.45s.83,2.43.87,3.56c0,1.44-.09,2.88,0,4.32C56.17,109.35,57.21,113.83,55.76,118.22ZM75.83,130.1a.16.16,0,0,1-.31,0c-2-5.25-1.57-11.16-4-16.26,0,3.91.61,7.84.09,11.73-.25,1.93-.77,3.84-1.16,5.75s-.77,3.91-1.15,5.87a.16.16,0,0,1-.31,0,16.34,16.34,0,0,0-.87-3,25,25,0,0,0,0,5.93,61.5,61.5,0,0,1,.14,6.22,69.68,69.68,0,0,1-.89,12.16.16.16,0,0,1-.31,0c-.91-4.28-1.66-8.59-2.32-12.91s-1-8.59-1.84-12.82c-.73-3.87-2.2-7.72-2.35-11.68-.09-2.32-.13-4.65-.14-7a58.83,58.83,0,0,1-1.76-17A.16.16,0,0,1,59,97a22.37,22.37,0,0,1,3.6,6,33.14,33.14,0,0,1,2.51,6.81c1.12,5.48-.27,11.27,1.49,16.63,1.12-7.41-1.26-16.13,4.86-21.86a.16.16,0,0,1,.25,0c2.67,3.47,3.62,8,4,12.24A94.22,94.22,0,0,1,75.83,130.1Z" transform="translate(0 -57.34)"/><path class="cls-27" d="M56.19,95.58a19.65,19.65,0,0,0,.6,2.94,38.91,38.91,0,0,1,1.2,5.63c.32,2.42.48,4.84.87,7.25.37,2.24.82,4.47,1.28,6.7.14.71.29,1.42.43,2.13-.07-2-.1-4.06-.11-6.1a59.71,59.71,0,0,1-1.79-16.54l0-3.13a.16.16,0,0,1,.29-.08,46.36,46.36,0,0,0,3,3.73c.84,1.08,1.46,2.34,2.2,3.5a11.41,11.41,0,0,1,1.73,4c.25,1.19.23,2.41.42,3.6,0-4-.68-8-.79-12a7.61,7.61,0,0,0-1.86-1.57,27.3,27.3,0,0,0-4.62-2.69,14.5,14.5,0,0,0-2-.66l-2,0a2.43,2.43,0,0,1,.59.92A11,11,0,0,1,56.19,95.58Z" transform="translate(0 -57.34)"/><path class="cls-27" d="M65.92,99a8.6,8.6,0,0,0,0-1C65.88,98.32,65.9,98.66,65.92,99Z" transform="translate(0 -57.34)"/><path class="cls-27" d="M73.38,120.4c0-.17,0-.34,0-.51l-.15-.72C73.26,119.58,73.32,120,73.38,120.4Z" transform="translate(0 -57.34)"/><path class="cls-26" d="M114.47,158.26c-3.25-1.66-6.09-3.12-8-6.31s-3.2-6.32-6.14-8.69a42.31,42.31,0,0,1-7.5-7.86,55.22,55.22,0,0,1-6.27-10.1,24,24,0,0,1-1.2-3.42,32.78,32.78,0,0,0-3.1-4.35,11.33,11.33,0,0,1-2.11-3.23,17.62,17.62,0,0,1-.78-5.1c0-1.23,0-2.76-.9-3.71a8.89,8.89,0,0,0-3.84-1.93,6.71,6.71,0,0,1,2.23,3.25c.61,2.12.83,4.38,1.23,6.55.47,2.52.93,5,1.26,7.59,0,.15-.23.22-.3.08-.68-1.62-1.51-3.18-2.35-4.73.47,7,3.21,13.36,6.24,19.6-1.14-4.05-3.06-8-3-12.27,0-.15.22-.23.29-.08,2,4,4.8,7.59,6.73,11.65,1.74,3.65,2.25,7.81,4.54,11.22.11.17-.16.31-.28.16-1.82-2.41-3.88-4.64-5.63-7.09-.5,3.42.18,6.88-.1,10.32,0,.14-.22.23-.3.08a63.31,63.31,0,0,0-6-9.33,29.64,29.64,0,0,1-3-4.49,21.82,21.82,0,0,1-1.54-4.44c-.13-.55-.25-1.1-.35-1.66v0c-.16,2.18-.68,4.52-.22,6.69s1.55,3.76,2.37,5.63c1.63,3.69,1.31,7.9,1.41,11.84a36.64,36.64,0,0,0,.79,6.52c1-.05,2.07-.07,3.12,0,9.52.3,19,2.38,28.51,2a51.53,51.53,0,0,0,8.58-1A16,16,0,0,0,114.47,158.26Z" transform="translate(0 -57.34)"/><path class="cls-26" d="M114.47,158.26c-3.25-1.66-6.09-3.12-8-6.31s-3.2-6.32-6.14-8.69a42.31,42.31,0,0,1-7.5-7.86,55.22,55.22,0,0,1-6.27-10.1,24,24,0,0,1-1.2-3.42,32.78,32.78,0,0,0-3.1-4.35,11.33,11.33,0,0,1-2.11-3.23,17.62,17.62,0,0,1-.78-5.1,7.84,7.84,0,0,0-.43-3c.16,1.45.23,2.91.25,4.37,0,1.87-.53,4.21.36,5.94s2.27,2.74,3.37,4.14A16.11,16.11,0,0,1,85,125.18,33.64,33.64,0,0,0,87.53,131c1.14,1.9,2.58,3.64,3.9,5.42a70,70,0,0,1,7.17,11.48.16.16,0,0,1-.27.16,41.2,41.2,0,0,0-5.25-6.3c.41,2.3,2,4.36,1.84,6.74-.06,1-.85,1.59-1.37,2.35-.7,1-.81,2.29-1.51,3.31a.16.16,0,0,1-.24,0c-1.91-1.63-2.65-4.42-3.4-6.71-.45-1.35-.88-2.7-1.36-4,.28,1.36.48,2.75.68,4.12.26,1.83,1.17,4.48-.25,6.06a9.1,9.1,0,0,1-3,2,14.91,14.91,0,0,0-3.85,2,8.38,8.38,0,0,0-1.89,3c1-.05,2-.07,3.07,0,9.52.3,19,2.38,28.51,2a51.53,51.53,0,0,0,8.58-1A16,16,0,0,0,114.47,158.26Z" transform="translate(0 -57.34)"/><path class="cls-27" d="M62.21,146.57c1,5.4,2.45,10.86,2.4,16.37l3.42-.71c-.35-1.21-.73-2.41-1-3.59-.36-1.68-.69-3.34-.9-5-.49-2.65-.94-5.32-1.35-8-.31-2.07-.57-4.15-.83-6.23a92,92,0,0,1-1.88-10.26l0,.4c.05.56.1,1.12.13,1.68,0,.18-.22.2-.29.07-.16,1.63-.35,3.25-.45,4.89A42.82,42.82,0,0,0,62.21,146.57Z" transform="translate(0 -57.34)"/><path class="cls-27" d="M63.28,134.66c-.1-.62-.21-1.25-.33-1.87,0-.23-.09-.45-.14-.68C63,133,63.11,133.81,63.28,134.66Z" transform="translate(0 -57.34)"/><path class="cls-27" d="M47.52,151.23c.28-1.51.76-3,1-4.48a65.75,65.75,0,0,0,.67-7.93c-.56,2.19-1.22,4.36-1.85,6.53-.75,2.57-1.36,5.17-2,7.76-.94,3.72-2.22,7.47-2.85,11.28,1.53.09,3.07.17,4.6.22a78.59,78.59,0,0,1-.07-9.08A41.31,41.31,0,0,1,47.52,151.23Z" transform="translate(0 -57.34)"/><path class="cls-27" d="M53.94,155c0-.48,0-1-.08-1.45A8.76,8.76,0,0,0,53.94,155Z" transform="translate(0 -57.34)"/><path class="cls-27" d="M54.47,132.45A107,107,0,0,0,54,150.26c.4-1.73.94-3.46,1.19-5.18a28.57,28.57,0,0,0-.25-7.15C54.77,136.11,54.57,134.28,54.47,132.45Z" transform="translate(0 -57.34)"/><path class="cls-27" d="M35.79,144.82c0-2.35,0-4.7,0-7s-.28-4.39-.5-6.58-.42-4.48-.42-6.73.25-4.47.46-6.69c.13-1.45.27-2.89.4-4.33,0-1,0-2.06.07-3.09,0-.48,0-1,0-1.49-.54,2.66-1.26,5.28-1.63,8-.66,4.82-.1,9.71-.37,14.56-.15,2.47-.44,4.94-.5,7.42s0,4.92.14,7.38a130.62,130.62,0,0,0,1.71,14.06,19.41,19.41,0,0,0,1-4.56C35.81,152.08,35.78,148.45,35.79,144.82Z" transform="translate(0 -57.34)"/><path class="cls-6" d="M104.33,154a27.87,27.87,0,0,0-6.44-3.09A39.43,39.43,0,0,0,90,149.26c-1.08.3-2.17.61-3.24,1a45.87,45.87,0,0,0-8.11,3.83c-1.8,1-3.66,2-5.37,3.15a70.33,70.33,0,0,0,5,5.06,102.16,102.16,0,0,0,11.39,2.05c2.69.33,5.39.55,8.09.63l1,0,1.44-1.26c.31-.42.62-.85.92-1.28,1.49-2.1,2.89-4.28,4.19-6.51l.52-.88C105.38,154.67,104.86,154.33,104.33,154Z" transform="translate(0 -57.34)"/><path class="cls-8" d="M104.33,154a27.87,27.87,0,0,0-6.44-3.09,38.24,38.24,0,0,0-6.65-1.49l.08.07c1.3,1.09,2.37,2.39,3.55,3.59.47.48,1.56,1.37,1.17,2.14-.19.37-.78.6-1.12.76s-.92.39-1.36.64a32.22,32.22,0,0,1-5,2.55,9,9,0,0,1-4.78.17c-1.92-.36-3.8-.87-5.71-1.25-1.5-.29-3-.36-4.56-.64,1.51,1.69,3.13,3.27,4.79,4.82a102.16,102.16,0,0,0,11.39,2.05c2.69.33,5.39.55,8.09.63l1,0,1.44-1.26c.31-.42.62-.85.92-1.28,1.49-2.1,2.89-4.28,4.19-6.51l.52-.88C105.38,154.67,104.86,154.33,104.33,154Z" transform="translate(0 -57.34)"/><path class="cls-8" d="M79.72,162.27c-1.49-1.05-3.25-2-4.71-3.23,1.06,1.11,2.16,2.17,3.29,3.22l2.07.47Z" transform="translate(0 -57.34)"/><path class="cls-8" d="M104.33,154a27.87,27.87,0,0,0-6.44-3.09,36.53,36.53,0,0,0-4.69-1.17c1,.86,2.24,1.57,3.32,2.37.88.65,1.7,1.38,2.53,2.1a18.77,18.77,0,0,1,2.39,2.87.16.16,0,0,1-.16.27,17.73,17.73,0,0,1-3.15-1.48c-.59-.28-1.2-.53-1.8-.78.43.4.86.81,1.3,1.2.71.61,1.83,1.06,2.35,1.85s-1.74,5.33-1.82,5.3c-2-.69-3.79-1.8-5.79-2.48-1.37-.46-2.76-.89-4.08-1.46.56.35,1.15.65,1.74,1,1.11.63,2.14,1.38,3.25,2,1.47.83,3,1.68,4.47,2.47h0l1,0,1.44-1.26c.31-.42.62-.85.92-1.28,1.49-2.1,2.89-4.28,4.19-6.51l.52-.88C105.38,154.67,104.86,154.33,104.33,154Z" transform="translate(0 -57.34)"/><path class="cls-21" d="M74.77,157.85c1.74.79,3.69.69,5.58.87-.45-.15-.89-.31-1.34-.42a24.82,24.82,0,0,1-4.18-1.14.15.15,0,0,1,0-.27c1.94-.87,3.78-1.93,5.65-2.95s3.57-1.71,5.34-2.61a27.42,27.42,0,0,1,2.57-1.22,4,4,0,0,1,1.94-.45c1.19.2,1.9,1.25,2.89,1.84a8.76,8.76,0,0,0-2.41-2.14l-.8-.1c-1.08.3-2.17.61-3.24,1a45.87,45.87,0,0,0-8.11,3.83c-1.8,1-3.66,2-5.37,3.15.79.9,1.62,1.77,2.47,2.62-.4-.59-.8-1.17-1.21-1.75C74.45,157.92,74.64,157.79,74.77,157.85Z" transform="translate(0 -57.34)"/><path class="cls-6" d="M121.8,157.37a17.68,17.68,0,0,0-3.53-2.74,25.48,25.48,0,0,0-4.6-2c-.71,0-1.41.09-2.11.17a29.45,29.45,0,0,0-5.48,1.27c-1.23.38-2.5.73-3.69,1.22.72,1.3,1.53,2.53,2.38,3.76a67.3,67.3,0,0,0,6.7,2.75c1.6.55,3.22,1,4.86,1.45l.64.14,1-.57.73-.67c1.19-1.09,2.34-2.23,3.43-3.43l.44-.47Z" transform="translate(0 -57.34)"/><path class="cls-8" d="M121.8,157.37a17.68,17.68,0,0,0-3.53-2.74,23.71,23.71,0,0,0-3.87-1.78l0,.05c.65.84,1.13,1.77,1.69,2.66.22.36.77,1.05.43,1.47a1.45,1.45,0,0,1-.79.31c-.3.07-.61.12-.91.22a21,21,0,0,1-3.4.9,5.78,5.78,0,0,1-2.95-.52c-1.12-.48-2.2-1-3.32-1.52-.88-.38-1.82-.62-2.7-1,.69,1.23,1.47,2.41,2.28,3.58a67.3,67.3,0,0,0,6.7,2.75c1.6.55,3.22,1,4.86,1.45l.64.14,1-.57.73-.67c1.19-1.09,2.34-2.23,3.43-3.43l.44-.47Z" transform="translate(0 -57.34)"/><path class="cls-8" d="M105.64,159.2c-.77-.84-1.72-1.66-2.45-2.59.5.81,1,1.61,1.58,2.4l1.21.56C105.87,159.44,105.75,159.32,105.64,159.2Z" transform="translate(0 -57.34)"/><path class="cls-8" d="M121.8,157.37a17.68,17.68,0,0,0-3.53-2.74,23.57,23.57,0,0,0-2.72-1.33c.53.66,1.17,1.26,1.72,1.89s.86,1.07,1.27,1.61a11.29,11.29,0,0,1,1.07,2.07.1.1,0,0,1-.13.15,11,11,0,0,1-1.73-1.32c-.32-.25-.66-.48-1-.72.21.31.41.61.63.91.35.46,1,.89,1.2,1.44s-1.78,3-1.83,3c-1.12-.68-2.07-1.6-3.21-2.28-.77-.46-1.56-.9-2.3-1.42.3.28.62.55.94.83.59.52,1.12,1.12,1.72,1.65.79.69,1.58,1.41,2.4,2.09h0l.64.14,1-.57.73-.67c1.19-1.09,2.34-2.23,3.43-3.43l.44-.47Z" transform="translate(0 -57.34)"/><path class="cls-22" d="M103.2,155.85a10.8,10.8,0,0,0,3.3,1.26c-.25-.15-.5-.3-.77-.43a15.18,15.18,0,0,1-2.4-1.25.1.1,0,0,1,0-.17c1.31-.27,2.58-.68,3.85-1s2.42-.58,3.62-.9a17.37,17.37,0,0,1,1.73-.41,2.64,2.64,0,0,1,1.25,0c.7.28,1,1,1.52,1.51a5.49,5.49,0,0,0-1.18-1.63l-.48-.17c-.71,0-1.41.09-2.11.17a29.45,29.45,0,0,0-5.48,1.27c-1.23.38-2.5.73-3.69,1.22.36.66.75,1.3,1.16,1.93L103,156C103,155.85,103.13,155.79,103.2,155.85Z" transform="translate(0 -57.34)"/><path class="cls-6" d="M114.13,165.72c1.4-.43,3.4-1.27,2.39-2.58a4.36,4.36,0,0,0-.35-.4l-.37-.34a23.43,23.43,0,0,0-6.64-3.88,20,20,0,0,0-6-.77,11.1,11.1,0,0,0-6.84,3.77,3.76,3.76,0,0,0-1,2.72c0,1,1.58.79,2.13.79,4,0,8,.5,11.95.59C110.94,165.66,112.53,165.73,114.13,165.72Z" transform="translate(0 -57.34)"/><path class="cls-7" d="M97.36,161.23c1.13-.86,2.32-2.16,3.8-2.39a38.7,38.7,0,0,1,8.34-.18l-.34-.14a20,20,0,0,0-6-.77,11.1,11.1,0,0,0-6.84,3.77,5.08,5.08,0,0,0-.78,1.32A12,12,0,0,1,97.36,161.23Z" transform="translate(0 -57.34)"/><path class="cls-8" d="M116.52,163.14a4.36,4.36,0,0,0-.35-.4l-.37-.34a23.08,23.08,0,0,0-6-3.62,18,18,0,0,1,1.79,1.2.4.4,0,0,1-.08.64c-2,.91-3.69,2-6,2.37a48.35,48.35,0,0,1-6.37.28c-.74,0-3.08.54-3.68-.05l-.06-.08a3.47,3.47,0,0,0-.12,1.1c0,1,1.58.79,2.13.79,4,0,8,.5,11.95.59,1.56,0,3.15.11,4.75.1C115.53,165.29,117.53,164.45,116.52,163.14Z" transform="translate(0 -57.34)"/><path class="cls-8" d="M116.52,163.14a4.36,4.36,0,0,0-.35-.4l-.37-.34a23.08,23.08,0,0,0-6-3.62,18,18,0,0,1,1.79,1.2.4.4,0,0,1-.08.64l-.06,0a22,22,0,0,0,2.29,3.4c.38.47.78.93,1.15,1.42C116.12,165,117.36,164.23,116.52,163.14Z" transform="translate(0 -57.34)"/><path class="cls-8" d="M106.37,162.82l-.08,0c0,.42,0,.83,0,1.25s0,.93,0,1.4l2,.09C107.68,164.69,107,163.75,106.37,162.82Z" transform="translate(0 -57.34)"/><path class="cls-17" d="M96.25,162.86a2.66,2.66,0,0,0-.92-.16.66.66,0,0,0,.39-.4c.06-.32-.22-.39-.54-.39.48-.21,1-.51.82-.83a.38.38,0,0,0-.38-.16A1.62,1.62,0,0,0,96,160c0-.42-.66-.55-1-.58a2.67,2.67,0,0,0-.89.08c.27-.23.5-.51.38-.73s-.58-.2-.92,0a.36.36,0,0,0,0-.36c-.18-.31-.71,0-1,.27.16-.52.21-1.34-.6-1a1.56,1.56,0,0,0-.74.64,1.24,1.24,0,0,0,0-.35c-.16-.52-.82-.12-1.22.32,0-.16,0-.29-.22-.27s-.48.38-.56.69c-.21-.37-.66-1-.94-.55a.48.48,0,0,0-.07.32.81.81,0,0,0-.16-.16.55.55,0,0,0-.76,0,1.08,1.08,0,0,0,0,1c-.2-.05-.41,0-.49.2a.82.82,0,0,0,0,.36,1.16,1.16,0,0,0-.76-.06c-.86.2-.74,1-.23,1.45a.48.48,0,0,0-.21.25c-.07.19,0,.35.21.47-.54,0-1.1.25-.84.83.16.39.66.41,1.12.28a1.51,1.51,0,0,0-.34.71.52.52,0,0,0,.51.59.66.66,0,0,0,.38-.07.79.79,0,0,0-.08.23c-.06.44.58.13.91-.06a.49.49,0,0,0,0,.11c0,.1,0,.28.08.32a.64.64,0,0,0,.22.14,3.29,3.29,0,0,0,1.29.07c.53,0,5.08,0,5.27,0,1-.13.19-.79.13-.88a2,2,0,0,0,2.24-.5A.58.58,0,0,0,96.25,162.86Z" transform="translate(0 -57.34)"/><path class="cls-18" d="M95,163a.41.41,0,0,0-.29-.19.48.48,0,0,0,.09-.19c.07-.27-.17-.49-.39-.59l-.26-.07a1.35,1.35,0,0,0,.62-.71c.19-.52-.25-.86-.72-.88a1.78,1.78,0,0,0-.74.2c.07-.09.33-.57,0-.59a.73.73,0,0,0-.42.09.89.89,0,0,0,0-.64c-.2-.44-.87-.2-1.14,0l-.07.05a.49.49,0,0,0-.27-.41.42.42,0,0,0-.58.19c0-.25-.08-.81-.43-.77s-.7.53-.73,1c-.07-.06-.17-.06-.29,0a.35.35,0,0,0-.13.14.74.74,0,0,0-.16-.32c-.14-.14-.31-.24-.48-.09s0,0-.05.05c-.11-.44-.37-.92-.67-.65s-.23,1.11.1,1.49a.33.33,0,0,0-.33.16.59.59,0,0,0-.07.44.41.41,0,0,0-.22,0l-.09,0a1.71,1.71,0,0,0-.21-.26.57.57,0,0,0-.92.18c-.25.42.11,1,.41,1.24a1.15,1.15,0,0,0,.33.21.5.5,0,0,0-.29.3c-.06.21.29.33.43.37a.58.58,0,0,0,.19,0c-.37.29-.74.66-.45,1.13.18.29.61.11.82,0a.78.78,0,0,0,.2-.16.52.52,0,0,0,.29.5c.08,0,.17,0,.25-.09a.5.5,0,0,0,0,.35c.27.38.67.2,1,0a2.38,2.38,0,0,0,.75-.59c.27.5,1.13.66,1.7.61a2.26,2.26,0,0,0,1.69-1,1.52,1.52,0,0,0,1.15,0C94.92,163.39,95.11,163.19,95,163Z" transform="translate(0 -57.34)"/><path class="cls-19" d="M93.72,162.2c.21-.18.37-.42.21-.65s-.37-.08-.57.1a1.16,1.16,0,0,0,.07-.37c0-.15-.06-.35-.25-.27a1,1,0,0,0-.53.7l-.14-.08a.75.75,0,0,0-.62,0,1,1,0,0,0,.32-.61c0-.24-.26-.44-.48-.45a1,1,0,0,0-.35.06,1.22,1.22,0,0,0,.1-.24c.06-.17.08-.64-.16-.71a.63.63,0,0,0-.62.25.53.53,0,0,0-.5-.21.84.84,0,0,0-.6.48,1,1,0,0,0-.09.3l-.09,0,0-.13a.72.72,0,0,0-.07-.38.39.39,0,0,0-.28-.19.66.66,0,0,0-.37.22c0-.43-.2-1-.52-.72s-.12.62.06,1h0a.3.3,0,0,0-.29.19.52.52,0,0,0,0,.38.77.77,0,0,0-.25.14.47.47,0,0,0-.07.12,1.36,1.36,0,0,0-.36-.25c-.25-.12-.57-.21-.69.11s.21.61.44.74a1,1,0,0,0,.34.13.49.49,0,0,0-.22.25c-.07.21,0,.32.25.34h0a.57.57,0,0,0-.17.78c.23.34.73,0,1-.11l.16-.12c0,.11,0,.18.16.15a.84.84,0,0,0,.29-.13,1,1,0,0,0,0,.24.58.58,0,0,0,.66.57,1.1,1.1,0,0,0,.77-.62,1.12,1.12,0,0,0,.38.48.7.7,0,0,0,.91-.12,1.47,1.47,0,0,0,.35-.77l.17.09a.48.48,0,0,0,0,.64c.23.27.69.1.94,0a1.13,1.13,0,0,0,.42-.4.65.65,0,0,0,.28,0c.27,0,.68-.1.72-.44S94.09,162.15,93.72,162.2Z" transform="translate(0 -57.34)"/><path class="cls-20" d="M87.21,162.31s0,0,0,0S87.22,162.31,87.21,162.31Z" transform="translate(0 -57.34)"/><path class="cls-19" d="M92.58,159.72c-.1-.3-.5-.07-.64.05a.52.52,0,0,0-.2.32.18.18,0,0,0,0,.23.37.37,0,0,0,.39,0C92.34,160.23,92.66,160,92.58,159.72Z" transform="translate(0 -57.34)"/><path class="cls-19" d="M92.63,160.26v0l0,0a.2.2,0,0,0-.12.08s0,.1,0,.1a.18.18,0,0,0,.09,0S92.64,160.29,92.63,160.26Z" transform="translate(0 -57.34)"/><path class="cls-19" d="M88.22,161.4a.38.38,0,0,0-.44-.17.27.27,0,0,0-.28.15c-.15.27.25.53.47.57S88.34,161.6,88.22,161.4Z" transform="translate(0 -57.34)"/><path class="cls-19" d="M86.34,162.33c-.06-.2-.32-.2-.49-.19a.9.9,0,0,0-.32.09.26.26,0,0,0-.16.1.18.18,0,0,0-.05.13.14.14,0,0,0,0,.07c.07.33.6.25.81.12S86.38,162.45,86.34,162.33Z" transform="translate(0 -57.34)"/><path class="cls-19" d="M86.35,163l0,.05c0,.07.05.08.1.07a.17.17,0,0,0,.1-.16C86.51,162.9,86.39,163,86.35,163Z" transform="translate(0 -57.34)"/><path class="cls-19" d="M94.53,160.75c-.22-.22-.69-.05-.82.2s-.07.22.05.28a.67.67,0,0,0,.73-.11C94.57,161,94.64,160.85,94.53,160.75Z" transform="translate(0 -57.34)"/><path class="cls-17" d="M88,161.85a4.26,4.26,0,0,0-1.41-.24,1,1,0,0,0,.6-.61c.09-.48-.33-.6-.82-.59.73-.32,1.48-.79,1.24-1.27a.59.59,0,0,0-.57-.25,2.42,2.42,0,0,0,.5-1.4c0-.65-1-.84-1.48-.88a3.63,3.63,0,0,0-1.35.12c.42-.35.77-.77.57-1.11-.28-.5-.88-.31-1.39,0a.58.58,0,0,0,0-.57c-.27-.46-1.08.07-1.56.42.24-.79.32-2-.91-1.6a2.38,2.38,0,0,0-1.14,1,1.74,1.74,0,0,0,0-.53c-.24-.79-1.25-.18-1.85.48,0-.24,0-.44-.33-.41s-.74.58-.87,1.05c-.31-.56-1-1.55-1.43-.84a.83.83,0,0,0-.1.48,1.93,1.93,0,0,0-.25-.24.82.82,0,0,0-1.15,0,1.66,1.66,0,0,0-.06,1.55c-.3-.07-.62,0-.75.3a1.54,1.54,0,0,0,0,.54,2,2,0,0,0-1.15-.09c-1.31.31-1.13,1.58-.34,2.22a.69.69,0,0,0-.33.38.62.62,0,0,0,.32.71c-.82,0-1.67.38-1.29,1.26.26.6,1,.62,1.71.42a2.32,2.32,0,0,0-.51,1.1.79.79,0,0,0,.78.89,1.15,1.15,0,0,0,.58-.1.93.93,0,0,0-.13.35c-.09.66.88.19,1.38-.11l-.06.18c0,.15-.07.42.13.48a.86.86,0,0,0,.33.22,5.16,5.16,0,0,0,2,.11c.82,0,7.74,0,8,0,1.53-.19.28-1.2.2-1.34,1.16.38,2.79.3,3.41-.76A.87.87,0,0,0,88,161.85Z" transform="translate(0 -57.34)"/><path class="cls-18" d="M86.16,162.05a.62.62,0,0,0-.44-.3.69.69,0,0,0,.14-.27c.11-.41-.26-.76-.59-.9a1.4,1.4,0,0,0-.4-.11,2.13,2.13,0,0,0,.95-1.08c.28-.8-.39-1.31-1.1-1.34a2.51,2.51,0,0,0-1.12.31c.09-.15.49-.87,0-.91a1.08,1.08,0,0,0-.65.15,1.28,1.28,0,0,0,0-1c-.29-.67-1.31-.31-1.72,0a.48.48,0,0,0-.11.09.76.76,0,0,0-.42-.64c-.37-.2-.66,0-.87.3,0-.38-.13-1.24-.65-1.18-.7.08-1.07.82-1.12,1.52a.38.38,0,0,0-.45,0,.6.6,0,0,0-.18.21,1.12,1.12,0,0,0-.25-.47c-.21-.22-.48-.38-.74-.15l-.06.08c-.17-.67-.57-1.4-1-1s-.35,1.69.16,2.26a.53.53,0,0,0-.51.25.85.85,0,0,0-.1.67.63.63,0,0,0-.34,0,.29.29,0,0,0-.13.05,1.86,1.86,0,0,0-.33-.41.86.86,0,0,0-1.39.28c-.38.64.16,1.46.62,1.89a1.69,1.69,0,0,0,.51.32.73.73,0,0,0-.45.46c-.09.31.44.5.66.56a1.27,1.27,0,0,0,.28,0c-.55.44-1.12,1-.68,1.72.27.45.93.17,1.25,0a1.48,1.48,0,0,0,.3-.26.79.79,0,0,0,.44.76c.13.07.26,0,.38-.12a.68.68,0,0,0,.07.53c.4.57,1,.3,1.55.05a3.78,3.78,0,0,0,1.13-.91c.42.77,1.72,1,2.6.93A3.39,3.39,0,0,0,84,162.82a2.3,2.3,0,0,0,1.75,0C86,162.66,86.31,162.35,86.16,162.05Z" transform="translate(0 -57.34)"/><path class="cls-19" d="M84.19,160.85c.32-.28.55-.64.32-1s-.57-.13-.88.14a1.5,1.5,0,0,0,.11-.55c0-.22-.08-.54-.38-.41a1.45,1.45,0,0,0-.8,1.07,1,1,0,0,0-.22-.13,1.07,1.07,0,0,0-.94,0,1.63,1.63,0,0,0,.49-.94c0-.37-.39-.67-.72-.68a1.39,1.39,0,0,0-.54.08,3,3,0,0,0,.16-.36c.08-.25.11-1-.25-1.08a1,1,0,0,0-1,.39.78.78,0,0,0-.75-.32,1.25,1.25,0,0,0-.93.72,1.45,1.45,0,0,0-.13.45l-.14,0a1.29,1.29,0,0,1,0-.19,1.09,1.09,0,0,0-.11-.59c-.06-.11-.29-.3-.43-.28a.9.9,0,0,0-.56.34c-.08-.67-.3-1.47-.79-1.1-.33.26-.19.94.09,1.47h0a.49.49,0,0,0-.45.29.77.77,0,0,0,.08.58.8.8,0,0,0-.38.22.52.52,0,0,0-.12.17,2.17,2.17,0,0,0-.54-.38c-.38-.18-.87-.31-1.06.17s.32.93.67,1.13a1.71,1.71,0,0,0,.52.2.72.72,0,0,0-.33.38c-.11.32.08.49.38.51h.07a.87.87,0,0,0-.25,1.19c.34.51,1.11,0,1.45-.18a1.46,1.46,0,0,0,.24-.17c0,.17,0,.28.25.23a1.16,1.16,0,0,0,.44-.2,1.45,1.45,0,0,0,0,.36.88.88,0,0,0,1,.88,1.76,1.76,0,0,0,1.19-.95,1.64,1.64,0,0,0,.57.73,1.06,1.06,0,0,0,1.38-.19,2.14,2.14,0,0,0,.53-1.17,1.3,1.3,0,0,0,.26.14.72.72,0,0,0-.06,1c.35.42,1,.16,1.43,0a1.79,1.79,0,0,0,.64-.62,1.24,1.24,0,0,0,.43.05c.41,0,1-.16,1.09-.67S84.75,160.77,84.19,160.85Z" transform="translate(0 -57.34)"/><path class="cls-20" d="M74.28,161s0,0,0,0S74.3,161,74.28,161Z" transform="translate(0 -57.34)"/><path class="cls-19" d="M82.45,157.07c-.15-.45-.76-.1-1,.08a.84.84,0,0,0-.31.48.29.29,0,0,0,0,.35.55.55,0,0,0,.59,0C82.09,157.84,82.57,157.43,82.45,157.07Z" transform="translate(0 -57.34)"/><path class="cls-19" d="M82.53,157.89v0a.05.05,0,0,0,0,0,.28.28,0,0,0-.18.12c0,.05-.07.15,0,.15a.17.17,0,0,0,.15-.06A.18.18,0,0,0,82.53,157.89Z" transform="translate(0 -57.34)"/><path class="cls-19" d="M75.83,159.64a.6.6,0,0,0-.68-.27.42.42,0,0,0-.43.24c-.23.4.38.8.71.85S76,159.94,75.83,159.64Z" transform="translate(0 -57.34)"/><path class="cls-19" d="M73,161c-.1-.29-.49-.3-.75-.29a1.2,1.2,0,0,0-.49.14.41.41,0,0,0-.24.16.25.25,0,0,0-.08.19.81.81,0,0,0,0,.11c.12.5.92.38,1.24.18C72.82,161.44,73,161.23,73,161Z" transform="translate(0 -57.34)"/><path class="cls-19" d="M73,162.13a.13.13,0,0,0,0,.07c0,.11.07.13.14.11a.26.26,0,0,0,.17-.25C73.21,161.91,73,162.05,73,162.13Z" transform="translate(0 -57.34)"/><path class="cls-19" d="M85.42,158.63c-.34-.33-1.06-.06-1.26.32-.07.14-.09.34.08.42a1,1,0,0,0,.52.1.93.93,0,0,0,.59-.27C85.48,159.06,85.58,158.79,85.42,158.63Z" transform="translate(0 -57.34)"/></g></g></g></g></svg>