<svg xmlns="http://www.w3.org/2000/svg" viewBox="0 0 1366.23 210.58"><defs><style>.e6e1e6e8-5769-4447-b3e8-76df405b7960{fill:#689f38;}.bf0fc9f5-336c-42fe-abd2-1b3a207e00b0{fill:#546e7a;}.a812bf4b-12b2-403f-adf3-40f25970659c{fill:#8bc34a;}.ad7b8d90-a70c-4ea0-8a70-3c8056ab467e{fill:#78909c;}.adba99b0-1aaa-4cfe-ad2b-cc1fae86458c{fill:#fdd835;}</style></defs><g id="a9b0128a-a79f-4117-b173-d0c9861633ed" data-name="Layer 2"><g id="e474743e-eb0d-4bc3-b26f-e3e62d2318e1" data-name="Layer 1"><path class="e6e1e6e8-5769-4447-b3e8-76df405b7960" d="M578.64,15.55l2.74-.15"/><path class="e6e1e6e8-5769-4447-b3e8-76df405b7960" d="M598.78,14.58c20.38-.84,41.43-1.28,63-1.28,182.27,0,330,31.49,330,70.33S844,154,661.74,154s-330-31.49-330-70.33c0-32.73,104.89-60.23,246.93-68.08"/><path class="e6e1e6e8-5769-4447-b3e8-76df405b7960" d="M581.38,15.4q8.61-.47,17.4-.82"/><path class="bf0fc9f5-336c-42fe-abd2-1b3a207e00b0" d="M581.38,15.4l13,3.38s19.49,4.1,3.83,5.22S546,30.15,539.62,31.12s-39.48,5.8,14.29,15.12,55.82,9.36,76.7,13.94,56,13.44,56,13.44l157.47-1S798.74,59,732.49,50.16,599.07,40.08,590,39.06s-36.3-4.27,7.26-9.77S619,22,608.14,19.31L589.74,15"/><path class="a812bf4b-12b2-403f-adf3-40f25970659c" d="M1245.66,0C1120.91,0,1008.43,16.28,929,42.36a409.86,409.86,0,0,0-49.37,19.52c-33.26,15.94-56,34.19-65.16,53.82a45.77,45.77,0,0,0-4.58,19.63,42.89,42.89,0,0,0,1.44,11c3.49,13.62,13.54,26.66,29.1,38.83,11.45,9,25.92,17.5,43,25.41h482.74V5.27C1328,1.85,1287.49,0,1245.66,0Z"/><path class="a812bf4b-12b2-403f-adf3-40f25970659c" d="M842.65,142.46c-5.64-9.28-15.12-18.24-28.15-26.76-24-15.78-59.77-30-104.82-42.23h-.14c-4.28-1.17-8.6-2.29-13.06-3.41l0,0c-45.67-11.46-99.85-20.8-159.94-27.36C501.81,38.89,465.1,36,427,34.21h0c-31.59-1.51-64.15-2.31-97.49-2.31C204.31,31.9,89.6,43,0,61.51V210.58H811.45c12.94-8.1,22.75-16.6,29-25.41,5.33-7.47,8.08-15.16,8.08-23A37.79,37.79,0,0,0,842.65,142.46Z"/><path class="ad7b8d90-a70c-4ea0-8a70-3c8056ab467e" d="M1003.22,120.29a218,218,0,0,0-22.16-16.8C935,72.72,886.37,63.71,881,62.8l-.48-.1L807.23,64,680.69,66.27A124.19,124.19,0,0,1,697.82,71l0,0c3,1.07,5.86,2.23,8.43,3.44,13.24,6.16,20.32,13.63,14.82,18.4-7,6-9.7,24.29-212.76,53.87-44.79,6.51-99.33,13.59-165.79,21.19C230,180.76,110.21,189.92,0,196.23v14.35H1009.72c1.31-.89,2.46-1.7,3.41-2.42C1024.5,199.62,1057.09,167,1003.22,120.29Z"/><path class="adba99b0-1aaa-4cfe-ad2b-cc1fae86458c" d="M789.14,64.18l-16.41.3c130,66.83-58,121.73-166.57,146.1H663C960.24,134.71,789.14,64.18,789.14,64.18Z"/></g></g></svg>